<?xml version="1.0" encoding="utf-8" standalone="no"?>
<!DOCTYPE svg PUBLIC "-//W3C//DTD SVG 1.1//EN"
  "http://www.w3.org/Graphics/SVG/1.1/DTD/svg11.dtd">
<svg xmlns:xlink="http://www.w3.org/1999/xlink" width="691.2pt" height="475.2pt" viewBox="0 0 691.2 475.2" xmlns="http://www.w3.org/2000/svg" version="1.1">
 <metadata>
  <rdf:RDF xmlns:dc="http://purl.org/dc/elements/1.1/" xmlns:cc="http://creativecommons.org/ns#" xmlns:rdf="http://www.w3.org/1999/02/22-rdf-syntax-ns#">
   <cc:Work>
    <dc:type rdf:resource="http://purl.org/dc/dcmitype/StillImage"/>
    <dc:date>2026-06-05T12:31:23.593300</dc:date>
    <dc:format>image/svg+xml</dc:format>
    <dc:creator>
     <cc:Agent>
      <dc:title>Matplotlib v3.10.9, https://matplotlib.org/</dc:title>
     </cc:Agent>
    </dc:creator>
   </cc:Work>
  </rdf:RDF>
 </metadata>
 <defs>
  <style type="text/css">*{stroke-linejoin: round; stroke-linecap: butt}</style>
 </defs>
 <g id="figure_1">
  <g id="patch_1">
   <path d="M 0 475.2 
L 691.2 475.2 
L 691.2 0 
L 0 0 
z
" style="fill: #f5f6f8"/>
  </g>
  <g id="patch_2">
   <path d="M 39.3984 453.816 
L 662.1696 453.816 
Q 677.376 453.816 677.376 438.6096 
L 677.376 27.0864 
Q 677.376 11.88 662.1696 11.88 
L 39.3984 11.88 
Q 24.192 11.88 24.192 27.0864 
L 24.192 438.6096 
Q 24.192 453.816 39.3984 453.816 
z
" style="opacity: 0.05"/>
  </g>
  <g id="patch_3">
   <path d="M 35.9424 449.064 
L 658.7136 449.064 
Q 673.92 449.064 673.92 433.8576 
L 673.92 22.3344 
Q 673.92 7.128 658.7136 7.128 
L 35.9424 7.128 
Q 20.736 7.128 20.736 22.3344 
L 20.736 433.8576 
Q 20.736 449.064 35.9424 449.064 
z
" style="fill: #ffffff; stroke: #e9ecf1; stroke-linejoin: miter"/>
  </g>
  <g id="line2d_1">
   <path d="M 72.576 425.304 
L 646.272 425.304 
" style="fill: none; stroke: #e9ecf1; stroke-linecap: square"/>
  </g>
  <g id="axes_1">
   <g id="patch_4">
    <path d="M 72.576 396.792 
L 646.272 396.792 
L 646.272 130.68 
L 72.576 130.68 
L 72.576 396.792 
z
" style="fill: none; opacity: 0"/>
   </g>
   <g id="matplotlib.axis_1">
    <g id="xtick_1">
     <g id="line2d_2"/>
     <g id="text_1">
      <!-- HYPE -->
      <g style="fill: #11a37f" transform="translate(126.884848 409.217781) scale(0.125 -0.125)">
       <defs>
        <path id="HelveticaNeue-48" d="M 499 4570 
L 499 0 
L 1107 0 
L 1107 2093 
L 3514 2093 
L 3514 0 
L 4122 0 
L 4122 4570 
L 3514 4570 
L 3514 2605 
L 1107 2605 
L 1107 4570 
L 499 4570 
z
" transform="scale(0.015625)"/>
        <path id="HelveticaNeue-59" d="M 2387 1869 
L 4134 4570 
L 3443 4570 
L 2106 2394 
L 736 4570 
L 13 4570 
L 1779 1869 
L 1779 0 
L 2387 0 
L 2387 1869 
z
" transform="scale(0.015625)"/>
        <path id="HelveticaNeue-50" d="M 1107 2381 
L 1107 4058 
L 2298 4058 
Q 2816 4058 3056 3843 
Q 3296 3629 3296 3219 
Q 3296 2810 3056 2592 
Q 2816 2374 2298 2381 
L 1107 2381 
z
M 499 4570 
L 499 0 
L 1107 0 
L 1107 1869 
L 2502 1869 
Q 3194 1862 3549 2220 
Q 3904 2579 3904 3219 
Q 3904 3859 3549 4214 
Q 3194 4570 2502 4570 
L 499 4570 
z
" transform="scale(0.015625)"/>
        <path id="HelveticaNeue-45" d="M 499 4570 
L 499 0 
L 3674 0 
L 3674 512 
L 1107 512 
L 1107 2093 
L 3482 2093 
L 3482 2605 
L 1107 2605 
L 1107 4058 
L 3654 4058 
L 3654 4570 
L 499 4570 
z
" transform="scale(0.015625)"/>
       </defs>
       <use xlink:href="#HelveticaNeue-48"/>
       <use xlink:href="#HelveticaNeue-59" transform="translate(72.199982 0)"/>
       <use xlink:href="#HelveticaNeue-50" transform="translate(136.999969 0)"/>
       <use xlink:href="#HelveticaNeue-45" transform="translate(201.799957 0)"/>
      </g>
     </g>
    </g>
    <g id="xtick_2">
     <g id="line2d_3"/>
     <g id="text_2">
      <!-- Bitcoin -->
      <g style="fill: #1a1d21" transform="translate(267.943501 409.217781) scale(0.125 -0.125)">
       <defs>
        <path id="HelveticaNeue-42" d="M 1107 2605 
L 1107 4058 
L 2323 4058 
Q 2522 4058 2698 4035 
Q 2874 4013 3008 3936 
Q 3142 3859 3219 3718 
Q 3296 3578 3296 3334 
Q 3296 2970 3069 2787 
Q 2842 2605 2323 2605 
L 1107 2605 
z
M 499 4570 
L 499 0 
L 2707 0 
Q 3046 0 3305 112 
Q 3565 224 3741 406 
Q 3917 589 4006 825 
Q 4096 1062 4096 1312 
Q 4096 1734 3872 2028 
Q 3648 2323 3226 2413 
L 3226 2426 
Q 3552 2554 3728 2819 
Q 3904 3085 3904 3450 
Q 3904 3795 3747 4032 
Q 3590 4269 3366 4403 
Q 3264 4467 3120 4499 
Q 2976 4531 2809 4547 
Q 2643 4563 2473 4566 
Q 2304 4570 2157 4570 
L 499 4570 
z
M 1107 512 
L 1107 2093 
L 2496 2093 
Q 2688 2093 2867 2057 
Q 3046 2022 3184 1936 
Q 3322 1850 3405 1702 
Q 3488 1555 3488 1331 
Q 3488 947 3261 729 
Q 3034 512 2630 512 
L 1107 512 
z
" transform="scale(0.015625)"/>
        <path id="HelveticaNeue-69" d="M 986 3904 
L 986 4570 
L 442 4570 
L 442 3904 
L 986 3904 
z
M 442 3309 
L 442 0 
L 986 0 
L 986 3309 
L 442 3309 
z
" transform="scale(0.015625)"/>
        <path id="HelveticaNeue-74" d="M 1165 3309 
L 1165 4301 
L 621 4301 
L 621 3309 
L 58 3309 
L 58 2829 
L 621 2829 
L 621 723 
Q 621 493 665 352 
Q 710 211 803 134 
Q 896 58 1046 29 
Q 1197 0 1408 0 
L 1824 0 
L 1824 480 
L 1574 480 
Q 1446 480 1366 489 
Q 1286 499 1241 531 
Q 1197 563 1181 620 
Q 1165 678 1165 774 
L 1165 2829 
L 1824 2829 
L 1824 3309 
L 1165 3309 
z
" transform="scale(0.015625)"/>
        <path id="HelveticaNeue-63" d="M 2656 2246 
L 3219 2246 
Q 3187 2541 3065 2755 
Q 2944 2970 2755 3110 
Q 2566 3251 2320 3318 
Q 2074 3386 1792 3386 
Q 1402 3386 1107 3248 
Q 813 3110 617 2870 
Q 422 2630 326 2307 
Q 230 1984 230 1613 
Q 230 1242 329 931 
Q 429 621 624 397 
Q 819 173 1110 51 
Q 1402 -70 1779 -70 
Q 2413 -70 2781 262 
Q 3149 595 3238 1210 
L 2682 1210 
Q 2630 826 2403 614 
Q 2176 403 1773 403 
Q 1517 403 1331 505 
Q 1146 608 1030 777 
Q 915 947 860 1164 
Q 806 1382 806 1613 
Q 806 1862 857 2096 
Q 909 2330 1027 2509 
Q 1146 2688 1344 2797 
Q 1542 2906 1837 2906 
Q 2182 2906 2387 2733 
Q 2592 2560 2656 2246 
z
" transform="scale(0.015625)"/>
        <path id="HelveticaNeue-6f" d="M 806 1651 
Q 806 1952 886 2185 
Q 966 2419 1107 2579 
Q 1248 2739 1437 2822 
Q 1626 2906 1837 2906 
Q 2048 2906 2237 2822 
Q 2426 2739 2566 2579 
Q 2707 2419 2787 2185 
Q 2867 1952 2867 1651 
Q 2867 1350 2787 1116 
Q 2707 883 2566 726 
Q 2426 570 2237 486 
Q 2048 403 1837 403 
Q 1626 403 1437 486 
Q 1248 570 1107 726 
Q 966 883 886 1116 
Q 806 1350 806 1651 
z
M 230 1651 
Q 230 1286 332 972 
Q 435 659 640 425 
Q 845 192 1145 61 
Q 1446 -70 1837 -70 
Q 2234 -70 2531 61 
Q 2829 192 3033 425 
Q 3238 659 3340 972 
Q 3443 1286 3443 1651 
Q 3443 2016 3340 2333 
Q 3238 2650 3033 2883 
Q 2829 3117 2531 3251 
Q 2234 3386 1837 3386 
Q 1446 3386 1145 3251 
Q 845 3117 640 2883 
Q 435 2650 332 2333 
Q 230 2016 230 1651 
z
" transform="scale(0.015625)"/>
        <path id="HelveticaNeue-6e" d="M 410 3309 
L 410 0 
L 954 0 
L 954 1869 
Q 954 2093 1014 2281 
Q 1075 2470 1196 2611 
Q 1318 2752 1500 2829 
Q 1683 2906 1933 2906 
Q 2246 2906 2425 2726 
Q 2605 2547 2605 2240 
L 2605 0 
L 3149 0 
L 3149 2176 
Q 3149 2445 3094 2665 
Q 3040 2886 2905 3046 
Q 2771 3206 2553 3296 
Q 2336 3386 2010 3386 
Q 1274 3386 934 2784 
L 922 2784 
L 922 3309 
L 410 3309 
z
" transform="scale(0.015625)"/>
       </defs>
       <use xlink:href="#HelveticaNeue-42"/>
       <use xlink:href="#HelveticaNeue-69" transform="translate(68.499985 0)"/>
       <use xlink:href="#HelveticaNeue-74" transform="translate(90.699982 0)"/>
       <use xlink:href="#HelveticaNeue-63" transform="translate(122.199966 0)"/>
       <use xlink:href="#HelveticaNeue-6f" transform="translate(175.899963 0)"/>
       <use xlink:href="#HelveticaNeue-69" transform="translate(233.299957 0)"/>
       <use xlink:href="#HelveticaNeue-6e" transform="translate(255.499954 0)"/>
      </g>
     </g>
    </g>
    <g id="xtick_3">
     <g id="line2d_4"/>
     <g id="text_3">
      <!-- Ethereum -->
      <g style="fill: #1a1d21" transform="translate(404.70821 409.217781) scale(0.125 -0.125)">
       <defs>
        <path id="HelveticaNeue-68" d="M 410 4570 
L 410 0 
L 954 0 
L 954 1869 
Q 954 2093 1014 2281 
Q 1075 2470 1196 2611 
Q 1318 2752 1500 2829 
Q 1683 2906 1933 2906 
Q 2246 2906 2425 2726 
Q 2605 2547 2605 2240 
L 2605 0 
L 3149 0 
L 3149 2176 
Q 3149 2445 3094 2665 
Q 3040 2886 2905 3046 
Q 2771 3206 2553 3296 
Q 2336 3386 2010 3386 
Q 1862 3386 1705 3354 
Q 1549 3322 1405 3254 
Q 1261 3187 1145 3081 
Q 1030 2976 966 2822 
L 954 2822 
L 954 4570 
L 410 4570 
z
" transform="scale(0.015625)"/>
        <path id="HelveticaNeue-65" d="M 2707 1971 
L 806 1971 
Q 819 2163 889 2332 
Q 960 2502 1081 2630 
Q 1203 2758 1372 2832 
Q 1542 2906 1754 2906 
Q 1958 2906 2128 2832 
Q 2298 2758 2422 2633 
Q 2547 2509 2620 2336 
Q 2694 2163 2707 1971 
z
M 3232 1050 
L 2694 1050 
Q 2624 723 2403 563 
Q 2182 403 1837 403 
Q 1568 403 1369 492 
Q 1171 582 1043 732 
Q 915 883 857 1078 
Q 800 1274 806 1491 
L 3283 1491 
Q 3296 1792 3229 2125 
Q 3162 2458 2986 2739 
Q 2810 3021 2518 3203 
Q 2227 3386 1786 3386 
Q 1446 3386 1161 3258 
Q 877 3130 669 2899 
Q 461 2669 345 2355 
Q 230 2042 230 1664 
Q 243 1286 342 966 
Q 442 646 640 416 
Q 838 186 1129 58 
Q 1421 -70 1818 -70 
Q 2381 -70 2752 211 
Q 3123 493 3232 1050 
z
" transform="scale(0.015625)"/>
        <path id="HelveticaNeue-72" d="M 390 3309 
L 390 0 
L 934 0 
L 934 1472 
Q 934 1792 998 2038 
Q 1062 2285 1203 2457 
Q 1344 2630 1574 2720 
Q 1805 2810 2131 2810 
L 2131 3386 
Q 1690 3398 1402 3206 
Q 1114 3014 915 2611 
L 902 2611 
L 902 3309 
L 390 3309 
z
" transform="scale(0.015625)"/>
        <path id="HelveticaNeue-75" d="M 3149 0 
L 3149 3309 
L 2605 3309 
L 2605 1440 
Q 2605 1216 2544 1027 
Q 2483 838 2361 697 
Q 2240 557 2057 480 
Q 1875 403 1626 403 
Q 1312 403 1133 582 
Q 954 762 954 1069 
L 954 3309 
L 410 3309 
L 410 1133 
Q 410 864 464 643 
Q 518 422 652 262 
Q 787 102 1004 16 
Q 1222 -70 1549 -70 
Q 1914 -70 2182 74 
Q 2451 218 2624 525 
L 2637 525 
L 2637 0 
L 3149 0 
z
" transform="scale(0.015625)"/>
        <path id="HelveticaNeue-6d" d="M 410 3309 
L 410 0 
L 954 0 
L 954 2061 
Q 954 2157 1002 2301 
Q 1050 2445 1155 2579 
Q 1261 2714 1430 2810 
Q 1600 2906 1837 2906 
Q 2022 2906 2140 2851 
Q 2259 2797 2329 2697 
Q 2400 2598 2429 2464 
Q 2458 2330 2458 2170 
L 2458 0 
L 3002 0 
L 3002 2061 
Q 3002 2445 3232 2675 
Q 3462 2906 3866 2906 
Q 4064 2906 4189 2848 
Q 4314 2790 4384 2691 
Q 4454 2592 4480 2457 
Q 4506 2323 4506 2170 
L 4506 0 
L 5050 0 
L 5050 2426 
Q 5050 2682 4970 2864 
Q 4890 3046 4746 3161 
Q 4602 3277 4400 3331 
Q 4198 3386 3949 3386 
Q 3622 3386 3350 3238 
Q 3078 3091 2912 2822 
Q 2810 3130 2560 3258 
Q 2310 3386 2003 3386 
Q 1306 3386 934 2822 
L 922 2822 
L 922 3309 
L 410 3309 
z
" transform="scale(0.015625)"/>
       </defs>
       <use xlink:href="#HelveticaNeue-45"/>
       <use xlink:href="#HelveticaNeue-74" transform="translate(61.099991 0)"/>
       <use xlink:href="#HelveticaNeue-68" transform="translate(92.599976 0)"/>
       <use xlink:href="#HelveticaNeue-65" transform="translate(148.199966 0)"/>
       <use xlink:href="#HelveticaNeue-72" transform="translate(201.899963 0)"/>
       <use xlink:href="#HelveticaNeue-65" transform="translate(233.449951 0)"/>
       <use xlink:href="#HelveticaNeue-75" transform="translate(287.149948 0)"/>
       <use xlink:href="#HelveticaNeue-6d" transform="translate(342.749939 0)"/>
      </g>
     </g>
    </g>
    <g id="xtick_4">
     <g id="line2d_5"/>
     <g id="text_4">
      <!-- Solana -->
      <g style="fill: #1a1d21" transform="translate(556.319598 409.217781) scale(0.125 -0.125)">
       <defs>
        <path id="HelveticaNeue-53" d="M 3142 3232 
L 3718 3232 
Q 3706 3610 3574 3882 
Q 3443 4154 3216 4333 
Q 2989 4512 2688 4595 
Q 2387 4678 2035 4678 
Q 1722 4678 1424 4598 
Q 1126 4518 892 4355 
Q 659 4192 518 3939 
Q 378 3686 378 3341 
Q 378 3027 502 2819 
Q 627 2611 835 2480 
Q 1043 2349 1305 2269 
Q 1568 2189 1840 2128 
Q 2112 2067 2374 2009 
Q 2637 1952 2845 1859 
Q 3053 1766 3177 1619 
Q 3302 1472 3302 1235 
Q 3302 986 3200 826 
Q 3098 666 2931 573 
Q 2765 480 2557 441 
Q 2349 403 2144 403 
Q 1888 403 1645 467 
Q 1402 531 1219 665 
Q 1037 800 925 1008 
Q 813 1216 813 1504 
L 237 1504 
Q 237 1088 387 784 
Q 538 480 797 285 
Q 1056 90 1398 -6 
Q 1741 -102 2125 -102 
Q 2438 -102 2755 -28 
Q 3072 45 3328 208 
Q 3584 371 3747 630 
Q 3910 890 3910 1254 
Q 3910 1594 3785 1818 
Q 3661 2042 3453 2189 
Q 3245 2336 2982 2422 
Q 2720 2509 2448 2573 
Q 2176 2637 1913 2691 
Q 1651 2746 1443 2829 
Q 1235 2912 1110 3043 
Q 986 3174 986 3386 
Q 986 3610 1072 3760 
Q 1158 3910 1302 4000 
Q 1446 4090 1632 4128 
Q 1818 4166 2010 4166 
Q 2483 4166 2787 3945 
Q 3091 3725 3142 3232 
z
" transform="scale(0.015625)"/>
        <path id="HelveticaNeue-6c" d="M 442 4570 
L 442 0 
L 986 0 
L 986 4570 
L 442 4570 
z
" transform="scale(0.015625)"/>
        <path id="HelveticaNeue-61" d="M 3341 13 
Q 3200 -70 2950 -70 
Q 2739 -70 2614 48 
Q 2490 166 2490 435 
Q 2266 166 1968 48 
Q 1670 -70 1325 -70 
Q 1101 -70 899 -19 
Q 698 32 550 141 
Q 403 250 316 426 
Q 230 602 230 851 
Q 230 1133 326 1312 
Q 422 1491 579 1603 
Q 736 1715 937 1772 
Q 1139 1830 1350 1869 
Q 1574 1914 1776 1936 
Q 1978 1958 2131 2000 
Q 2285 2042 2374 2122 
Q 2464 2202 2464 2355 
Q 2464 2534 2397 2643 
Q 2330 2752 2224 2809 
Q 2118 2867 1987 2886 
Q 1856 2906 1728 2906 
Q 1382 2906 1152 2774 
Q 922 2643 902 2278 
L 358 2278 
Q 371 2586 486 2797 
Q 602 3008 794 3139 
Q 986 3270 1232 3328 
Q 1478 3386 1760 3386 
Q 1984 3386 2205 3354 
Q 2426 3322 2605 3222 
Q 2784 3123 2893 2944 
Q 3002 2765 3002 2477 
L 3002 774 
Q 3002 582 3024 492 
Q 3046 403 3174 403 
Q 3245 403 3341 435 
L 3341 13 
z
M 2458 1709 
Q 2355 1632 2188 1597 
Q 2022 1562 1840 1539 
Q 1658 1517 1472 1488 
Q 1286 1459 1139 1395 
Q 992 1331 899 1212 
Q 806 1094 806 890 
Q 806 755 860 662 
Q 915 570 1001 512 
Q 1088 454 1203 428 
Q 1318 403 1446 403 
Q 1715 403 1907 476 
Q 2099 550 2220 662 
Q 2342 774 2400 905 
Q 2458 1037 2458 1152 
L 2458 1709 
z
" transform="scale(0.015625)"/>
       </defs>
       <use xlink:href="#HelveticaNeue-53"/>
       <use xlink:href="#HelveticaNeue-6f" transform="translate(64.799988 0)"/>
       <use xlink:href="#HelveticaNeue-6c" transform="translate(122.199982 0)"/>
       <use xlink:href="#HelveticaNeue-61" transform="translate(144.399979 0)"/>
       <use xlink:href="#HelveticaNeue-6e" transform="translate(198.099976 0)"/>
       <use xlink:href="#HelveticaNeue-61" transform="translate(253.699966 0)"/>
      </g>
     </g>
    </g>
   </g>
   <g id="matplotlib.axis_2">
    <g id="ytick_1">
     <g id="line2d_6">
      <path d="M 72.576 396.792 
L 646.272 396.792 
" clip-path="url(#p42550de86c)" style="fill: none; stroke: #e9ecf1; stroke-linecap: square"/>
     </g>
     <g id="line2d_7"/>
     <g id="text_5">
      <!-- 0.00% -->
      <g style="fill: #5b6470" transform="translate(35.964281 400.986609) scale(0.11 -0.11)">
       <defs>
        <path id="Menlo-Regular-30" d="M 1925 4734 
Q 2672 4734 3055 4125 
Q 3438 3516 3438 2322 
Q 3438 1128 3055 518 
Q 2672 -91 1925 -91 
Q 1178 -91 797 518 
Q 416 1128 416 2322 
Q 416 3516 797 4125 
Q 1178 4734 1925 4734 
z
M 1925 409 
Q 2369 409 2586 881 
Q 2803 1353 2803 2322 
Q 2803 2838 2741 3253 
L 1253 925 
Q 1488 409 1925 409 
z
M 1925 4234 
Q 1484 4234 1267 3762 
Q 1050 3291 1050 2322 
Q 1050 1881 1109 1497 
L 2566 3819 
Q 2328 4234 1925 4234 
z
" transform="scale(0.015625)"/>
        <path id="Menlo-Regular-2e" d="M 1216 1263 
L 2316 1263 
L 2316 0 
L 1216 0 
L 1216 1263 
z
" transform="scale(0.015625)"/>
        <path id="Menlo-Regular-25" d="M 2175 997 
Q 2175 753 2339 587 
Q 2503 422 2747 422 
Q 2988 422 3155 589 
Q 3322 756 3322 997 
Q 3322 1238 3153 1406 
Q 2984 1575 2747 1575 
Q 2503 1575 2339 1409 
Q 2175 1244 2175 997 
z
M 1753 997 
Q 1753 1419 2040 1708 
Q 2328 1997 2747 1997 
Q 2947 1997 3126 1922 
Q 3306 1847 3450 1703 
Q 3594 1556 3672 1375 
Q 3750 1194 3750 997 
Q 3750 581 3459 290 
Q 3169 0 2747 0 
Q 2322 0 2037 286 
Q 1753 572 1753 997 
z
M 259 1375 
L 122 1728 
L 3606 3122 
L 3763 2769 
L 259 1375 
z
M 525 3475 
Q 525 3228 689 3064 
Q 853 2900 1100 2900 
Q 1341 2900 1509 3067 
Q 1678 3234 1678 3475 
Q 1678 3716 1509 3883 
Q 1341 4050 1100 4050 
Q 859 4050 692 3884 
Q 525 3719 525 3475 
z
M 103 3475 
Q 103 3897 390 4186 
Q 678 4475 1100 4475 
Q 1300 4475 1483 4400 
Q 1666 4325 1806 4184 
Q 1947 4044 2023 3861 
Q 2100 3678 2100 3475 
Q 2100 3056 1809 2767 
Q 1519 2478 1100 2478 
Q 678 2478 390 2765 
Q 103 3053 103 3475 
z
" transform="scale(0.015625)"/>
       </defs>
       <use xlink:href="#Menlo-Regular-30"/>
       <use xlink:href="#Menlo-Regular-2e" transform="translate(60.205078 0)"/>
       <use xlink:href="#Menlo-Regular-30" transform="translate(120.410156 0)"/>
       <use xlink:href="#Menlo-Regular-30" transform="translate(180.615234 0)"/>
       <use xlink:href="#Menlo-Regular-25" transform="translate(240.820312 0)"/>
      </g>
     </g>
    </g>
    <g id="ytick_2">
     <g id="line2d_8">
      <path d="M 72.576 353.42303 
L 646.272 353.42303 
" clip-path="url(#p42550de86c)" style="fill: none; stroke: #e9ecf1; stroke-linecap: square"/>
     </g>
     <g id="line2d_9"/>
     <g id="text_6">
      <!-- 0.20% -->
      <g style="fill: #5b6470" transform="translate(35.964281 357.617639) scale(0.11 -0.11)">
       <defs>
        <path id="Menlo-Regular-32" d="M 1166 531 
L 3309 531 
L 3309 0 
L 475 0 
L 475 531 
Q 1059 1147 1496 1619 
Q 1934 2091 2100 2284 
Q 2413 2666 2522 2902 
Q 2631 3138 2631 3384 
Q 2631 3775 2401 3997 
Q 2172 4219 1772 4219 
Q 1488 4219 1175 4116 
Q 863 4013 513 3803 
L 513 4441 
Q 834 4594 1145 4672 
Q 1456 4750 1759 4750 
Q 2444 4750 2861 4386 
Q 3278 4022 3278 3431 
Q 3278 3131 3139 2831 
Q 3000 2531 2688 2169 
Q 2513 1966 2180 1606 
Q 1847 1247 1166 531 
z
" transform="scale(0.015625)"/>
       </defs>
       <use xlink:href="#Menlo-Regular-30"/>
       <use xlink:href="#Menlo-Regular-2e" transform="translate(60.205078 0)"/>
       <use xlink:href="#Menlo-Regular-32" transform="translate(120.410156 0)"/>
       <use xlink:href="#Menlo-Regular-30" transform="translate(180.615234 0)"/>
       <use xlink:href="#Menlo-Regular-25" transform="translate(240.820312 0)"/>
      </g>
     </g>
    </g>
    <g id="ytick_3">
     <g id="line2d_10">
      <path d="M 72.576 310.05406 
L 646.272 310.05406 
" clip-path="url(#p42550de86c)" style="fill: none; stroke: #e9ecf1; stroke-linecap: square"/>
     </g>
     <g id="line2d_11"/>
     <g id="text_7">
      <!-- 0.40% -->
      <g style="fill: #5b6470" transform="translate(35.964281 314.248669) scale(0.11 -0.11)">
       <defs>
        <path id="Menlo-Regular-34" d="M 2297 4091 
L 825 1625 
L 2297 1625 
L 2297 4091 
z
M 2194 4666 
L 2925 4666 
L 2925 1625 
L 3547 1625 
L 3547 1113 
L 2925 1113 
L 2925 0 
L 2297 0 
L 2297 1113 
L 319 1113 
L 319 1709 
L 2194 4666 
z
" transform="scale(0.015625)"/>
       </defs>
       <use xlink:href="#Menlo-Regular-30"/>
       <use xlink:href="#Menlo-Regular-2e" transform="translate(60.205078 0)"/>
       <use xlink:href="#Menlo-Regular-34" transform="translate(120.410156 0)"/>
       <use xlink:href="#Menlo-Regular-30" transform="translate(180.615234 0)"/>
       <use xlink:href="#Menlo-Regular-25" transform="translate(240.820312 0)"/>
      </g>
     </g>
    </g>
    <g id="ytick_4">
     <g id="line2d_12">
      <path d="M 72.576 266.68509 
L 646.272 266.68509 
" clip-path="url(#p42550de86c)" style="fill: none; stroke: #e9ecf1; stroke-linecap: square"/>
     </g>
     <g id="line2d_13"/>
     <g id="text_8">
      <!-- 0.60% -->
      <g style="fill: #5b6470" transform="translate(35.964281 270.879699) scale(0.11 -0.11)">
       <defs>
        <path id="Menlo-Regular-36" d="M 3097 4563 
L 3097 3981 
Q 2900 4097 2678 4158 
Q 2456 4219 2216 4219 
Q 1616 4219 1306 3767 
Q 997 3316 997 2438 
Q 1147 2750 1412 2917 
Q 1678 3084 2022 3084 
Q 2697 3084 3067 2670 
Q 3438 2256 3438 1497 
Q 3438 741 3056 325 
Q 2675 -91 1984 -91 
Q 1172 -91 794 492 
Q 416 1075 416 2328 
Q 416 3509 870 4129 
Q 1325 4750 2188 4750 
Q 2419 4750 2650 4701 
Q 2881 4653 3097 4563 
z
M 1972 2591 
Q 1569 2591 1337 2300 
Q 1106 2009 1106 1497 
Q 1106 984 1337 693 
Q 1569 403 1972 403 
Q 2391 403 2603 679 
Q 2816 956 2816 1497 
Q 2816 2041 2603 2316 
Q 2391 2591 1972 2591 
z
" transform="scale(0.015625)"/>
       </defs>
       <use xlink:href="#Menlo-Regular-30"/>
       <use xlink:href="#Menlo-Regular-2e" transform="translate(60.205078 0)"/>
       <use xlink:href="#Menlo-Regular-36" transform="translate(120.410156 0)"/>
       <use xlink:href="#Menlo-Regular-30" transform="translate(180.615234 0)"/>
       <use xlink:href="#Menlo-Regular-25" transform="translate(240.820312 0)"/>
      </g>
     </g>
    </g>
    <g id="ytick_5">
     <g id="line2d_14">
      <path d="M 72.576 223.31612 
L 646.272 223.31612 
" clip-path="url(#p42550de86c)" style="fill: none; stroke: #e9ecf1; stroke-linecap: square"/>
     </g>
     <g id="line2d_15"/>
     <g id="text_9">
      <!-- 0.80% -->
      <g style="fill: #5b6470" transform="translate(35.964281 227.510729) scale(0.11 -0.11)">
       <defs>
        <path id="Menlo-Regular-38" d="M 1925 2216 
Q 1503 2216 1273 1980 
Q 1044 1744 1044 1313 
Q 1044 881 1276 642 
Q 1509 403 1925 403 
Q 2350 403 2579 639 
Q 2809 875 2809 1313 
Q 2809 1741 2576 1978 
Q 2344 2216 1925 2216 
z
M 1375 2478 
Q 972 2581 745 2862 
Q 519 3144 519 3541 
Q 519 4097 897 4423 
Q 1275 4750 1925 4750 
Q 2578 4750 2956 4423 
Q 3334 4097 3334 3541 
Q 3334 3144 3107 2862 
Q 2881 2581 2478 2478 
Q 2947 2375 3195 2062 
Q 3444 1750 3444 1253 
Q 3444 622 3041 265 
Q 2638 -91 1925 -91 
Q 1213 -91 811 264 
Q 409 619 409 1247 
Q 409 1747 657 2061 
Q 906 2375 1375 2478 
z
M 1147 3481 
Q 1147 3106 1347 2909 
Q 1547 2713 1925 2713 
Q 2306 2713 2506 2909 
Q 2706 3106 2706 3481 
Q 2706 3863 2507 4063 
Q 2309 4263 1925 4263 
Q 1547 4263 1347 4061 
Q 1147 3859 1147 3481 
z
" transform="scale(0.015625)"/>
       </defs>
       <use xlink:href="#Menlo-Regular-30"/>
       <use xlink:href="#Menlo-Regular-2e" transform="translate(60.205078 0)"/>
       <use xlink:href="#Menlo-Regular-38" transform="translate(120.410156 0)"/>
       <use xlink:href="#Menlo-Regular-30" transform="translate(180.615234 0)"/>
       <use xlink:href="#Menlo-Regular-25" transform="translate(240.820312 0)"/>
      </g>
     </g>
    </g>
    <g id="ytick_6">
     <g id="line2d_16">
      <path d="M 72.576 179.94715 
L 646.272 179.94715 
" clip-path="url(#p42550de86c)" style="fill: none; stroke: #e9ecf1; stroke-linecap: square"/>
     </g>
     <g id="line2d_17"/>
     <g id="text_10">
      <!-- 1.00% -->
      <g style="fill: #5b6470" transform="translate(35.964281 184.141759) scale(0.11 -0.11)">
       <defs>
        <path id="Menlo-Regular-31" d="M 844 528 
L 1825 528 
L 1825 4053 
L 650 3488 
L 650 4094 
L 1819 4650 
L 2450 4650 
L 2450 528 
L 3419 528 
L 3419 0 
L 844 0 
L 844 528 
z
" transform="scale(0.015625)"/>
       </defs>
       <use xlink:href="#Menlo-Regular-31"/>
       <use xlink:href="#Menlo-Regular-2e" transform="translate(60.205078 0)"/>
       <use xlink:href="#Menlo-Regular-30" transform="translate(120.410156 0)"/>
       <use xlink:href="#Menlo-Regular-30" transform="translate(180.615234 0)"/>
       <use xlink:href="#Menlo-Regular-25" transform="translate(240.820312 0)"/>
      </g>
     </g>
    </g>
    <g id="ytick_7">
     <g id="line2d_18">
      <path d="M 72.576 136.57818 
L 646.272 136.57818 
" clip-path="url(#p42550de86c)" style="fill: none; stroke: #e9ecf1; stroke-linecap: square"/>
     </g>
     <g id="line2d_19"/>
     <g id="text_11">
      <!-- 1.20% -->
      <g style="fill: #5b6470" transform="translate(35.964281 140.772789) scale(0.11 -0.11)">
       <use xlink:href="#Menlo-Regular-31"/>
       <use xlink:href="#Menlo-Regular-2e" transform="translate(60.205078 0)"/>
       <use xlink:href="#Menlo-Regular-32" transform="translate(120.410156 0)"/>
       <use xlink:href="#Menlo-Regular-30" transform="translate(180.615234 0)"/>
       <use xlink:href="#Menlo-Regular-25" transform="translate(240.820312 0)"/>
      </g>
     </g>
    </g>
   </g>
   <g id="patch_5">
    <path d="M 98.653091 396.792 
L 187.977933 396.792 
L 187.977933 171.273356 
L 98.653091 171.273356 
z
" clip-path="url(#p42550de86c)" style="fill: #11a37f"/>
   </g>
   <g id="patch_6">
    <path d="M 242.725416 396.792 
L 332.050258 396.792 
L 332.050258 268.853538 
L 242.725416 268.853538 
z
" clip-path="url(#p42550de86c)" style="fill: #c6ccd4"/>
   </g>
   <g id="patch_7">
    <path d="M 386.797742 396.792 
L 476.122584 396.792 
L 476.122584 307.885611 
L 386.797742 307.885611 
z
" clip-path="url(#p42550de86c)" style="fill: #c6ccd4"/>
   </g>
   <g id="patch_8">
    <path d="M 530.870067 396.792 
L 620.194909 396.792 
L 620.194909 329.570096 
L 530.870067 329.570096 
z
" clip-path="url(#p42550de86c)" style="fill: #c6ccd4"/>
   </g>
   <g id="text_12">
    <!-- 1.04% -->
    <g style="fill: #1a1d21" transform="translate(122.244418 162.940672) scale(0.14 -0.14)">
     <use xlink:href="#Menlo-Regular-31"/>
     <use xlink:href="#Menlo-Regular-2e" transform="translate(60.205078 0)"/>
     <use xlink:href="#Menlo-Regular-30" transform="translate(120.410156 0)"/>
     <use xlink:href="#Menlo-Regular-34" transform="translate(180.615234 0)"/>
     <use xlink:href="#Menlo-Regular-25" transform="translate(240.820312 0)"/>
    </g>
   </g>
   <g id="text_13">
    <!-- 0.59% -->
    <g style="fill: #5b6470" transform="translate(269.3269 260.936792) scale(0.12 -0.12)">
     <defs>
      <path id="Menlo-Regular-35" d="M 647 4666 
L 3009 4666 
L 3009 4134 
L 1222 4134 
L 1222 2988 
Q 1356 3038 1492 3061 
Q 1628 3084 1766 3084 
Q 2491 3084 2916 2656 
Q 3341 2228 3341 1497 
Q 3341 759 2895 334 
Q 2450 -91 1678 -91 
Q 1306 -91 998 -41 
Q 691 9 447 109 
L 447 750 
Q 734 594 1025 517 
Q 1316 441 1619 441 
Q 2141 441 2423 716 
Q 2706 991 2706 1497 
Q 2706 1997 2414 2275 
Q 2122 2553 1600 2553 
Q 1347 2553 1106 2495 
Q 866 2438 647 2322 
L 647 4666 
z
" transform="scale(0.015625)"/>
      <path id="Menlo-Regular-39" d="M 1863 2069 
Q 2266 2069 2495 2359 
Q 2725 2650 2725 3163 
Q 2725 3675 2495 3965 
Q 2266 4256 1863 4256 
Q 1444 4256 1231 3979 
Q 1019 3703 1019 3163 
Q 1019 2619 1230 2344 
Q 1441 2069 1863 2069 
z
M 738 97 
L 738 678 
Q 934 563 1156 502 
Q 1378 441 1619 441 
Q 2219 441 2526 892 
Q 2834 1344 2834 2222 
Q 2688 1909 2422 1742 
Q 2156 1575 1813 1575 
Q 1138 1575 767 1990 
Q 397 2406 397 3169 
Q 397 3922 776 4336 
Q 1156 4750 1850 4750 
Q 2663 4750 3041 4165 
Q 3419 3581 3419 2328 
Q 3419 1150 2964 529 
Q 2509 -91 1644 -91 
Q 1416 -91 1184 -42 
Q 953 6 738 97 
z
" transform="scale(0.015625)"/>
     </defs>
     <use xlink:href="#Menlo-Regular-30"/>
     <use xlink:href="#Menlo-Regular-2e" transform="translate(60.205078 0)"/>
     <use xlink:href="#Menlo-Regular-35" transform="translate(120.410156 0)"/>
     <use xlink:href="#Menlo-Regular-39" transform="translate(180.615234 0)"/>
     <use xlink:href="#Menlo-Regular-25" transform="translate(240.820312 0)"/>
    </g>
   </g>
   <g id="text_14">
    <!-- 0.41% -->
    <g style="fill: #5b6470" transform="translate(413.399225 299.968865) scale(0.12 -0.12)">
     <use xlink:href="#Menlo-Regular-30"/>
     <use xlink:href="#Menlo-Regular-2e" transform="translate(60.205078 0)"/>
     <use xlink:href="#Menlo-Regular-34" transform="translate(120.410156 0)"/>
     <use xlink:href="#Menlo-Regular-31" transform="translate(180.615234 0)"/>
     <use xlink:href="#Menlo-Regular-25" transform="translate(240.820312 0)"/>
    </g>
   </g>
   <g id="text_15">
    <!-- 0.31% -->
    <g style="fill: #5b6470" transform="translate(557.471551 321.65335) scale(0.12 -0.12)">
     <defs>
      <path id="Menlo-Regular-33" d="M 2425 2497 
Q 2884 2375 3128 2064 
Q 3372 1753 3372 1288 
Q 3372 644 2939 276 
Q 2506 -91 1741 -91 
Q 1419 -91 1084 -31 
Q 750 28 428 141 
L 428 769 
Q 747 603 1056 522 
Q 1366 441 1672 441 
Q 2191 441 2469 675 
Q 2747 909 2747 1350 
Q 2747 1756 2469 1995 
Q 2191 2234 1716 2234 
L 1234 2234 
L 1234 2753 
L 1716 2753 
Q 2150 2753 2394 2943 
Q 2638 3134 2638 3475 
Q 2638 3834 2411 4026 
Q 2184 4219 1766 4219 
Q 1488 4219 1191 4156 
Q 894 4094 569 3969 
L 569 4550 
Q 947 4650 1242 4700 
Q 1538 4750 1766 4750 
Q 2447 4750 2855 4408 
Q 3263 4066 3263 3500 
Q 3263 3116 3048 2859 
Q 2834 2603 2425 2497 
z
" transform="scale(0.015625)"/>
     </defs>
     <use xlink:href="#Menlo-Regular-30"/>
     <use xlink:href="#Menlo-Regular-2e" transform="translate(60.205078 0)"/>
     <use xlink:href="#Menlo-Regular-33" transform="translate(120.410156 0)"/>
     <use xlink:href="#Menlo-Regular-31" transform="translate(180.615234 0)"/>
     <use xlink:href="#Menlo-Regular-25" transform="translate(240.820312 0)"/>
    </g>
   </g>
  </g>
  <g id="text_16">
   <!-- E T F   D E B U T   ·   F I R S T   1 0   T R A D I N G   D A Y S   ·   P E R   K A I R O S   R E S E A R C H -->
   <g style="fill: #11a37f" transform="translate(72.576 49.896) scale(0.085 -0.085)">
    <defs>
     <path id="Menlo-Regular-45" d="M 616 4666 
L 3384 4666 
L 3384 4134 
L 1247 4134 
L 1247 2878 
L 3291 2878 
L 3291 2347 
L 1247 2347 
L 1247 531 
L 3444 531 
L 3444 0 
L 616 0 
L 616 4666 
z
" transform="scale(0.015625)"/>
     <path id="Menlo-Regular-2009" transform="scale(0.015625)"/>
     <path id="Menlo-Regular-54" d="M 147 4666 
L 3706 4666 
L 3706 4134 
L 2247 4134 
L 2247 0 
L 1613 0 
L 1613 4134 
L 147 4134 
L 147 4666 
z
" transform="scale(0.015625)"/>
     <path id="Menlo-Regular-46" d="M 728 4666 
L 3475 4666 
L 3475 4134 
L 1363 4134 
L 1363 2884 
L 3278 2884 
L 3278 2353 
L 1363 2353 
L 1363 0 
L 728 0 
L 728 4666 
z
" transform="scale(0.015625)"/>
     <path id="Menlo-Regular-20" transform="scale(0.015625)"/>
     <path id="Menlo-Regular-44" d="M 1363 519 
Q 2159 519 2475 911 
Q 2791 1303 2791 2328 
Q 2791 3363 2477 3755 
Q 2163 4147 1363 4147 
L 1063 4147 
L 1063 519 
L 1363 519 
z
M 1375 4666 
Q 2444 4666 2950 4097 
Q 3456 3528 3456 2328 
Q 3456 1134 2950 567 
Q 2444 0 1375 0 
L 428 0 
L 428 4666 
L 1375 4666 
z
" transform="scale(0.015625)"/>
     <path id="Menlo-Regular-42" d="M 1153 2353 
L 1153 519 
L 1900 519 
Q 2450 519 2684 711 
Q 2919 903 2919 1344 
Q 2919 1925 2672 2139 
Q 2425 2353 1900 2353 
L 1153 2353 
z
M 1153 4147 
L 1153 2866 
L 1888 2866 
Q 2344 2866 2548 3041 
Q 2753 3216 2753 3481 
Q 2753 3834 2551 3990 
Q 2350 4147 1888 4147 
L 1153 4147 
z
M 519 4666 
L 1900 4666 
Q 2616 4666 3003 4356 
Q 3391 4047 3391 3481 
Q 3391 3178 3186 2931 
Q 2981 2684 2572 2622 
Q 3031 2553 3292 2229 
Q 3553 1906 3553 1281 
Q 3553 647 3137 323 
Q 2722 0 1900 0 
L 519 0 
L 519 4666 
z
" transform="scale(0.015625)"/>
     <path id="Menlo-Regular-55" d="M 459 1791 
L 459 4666 
L 1094 4666 
L 1094 1503 
Q 1094 1163 1112 1017 
Q 1131 872 1178 794 
Q 1278 609 1467 515 
Q 1656 422 1925 422 
Q 2197 422 2384 515 
Q 2572 609 2675 794 
Q 2722 872 2740 1015 
Q 2759 1159 2759 1497 
L 2759 4666 
L 3391 4666 
L 3391 1791 
Q 3391 1075 3302 773 
Q 3213 472 2994 275 
Q 2788 91 2522 0 
Q 2256 -91 1925 -91 
Q 1597 -91 1331 0 
Q 1066 91 856 275 
Q 641 469 550 776 
Q 459 1084 459 1791 
z
" transform="scale(0.015625)"/>
     <path id="Menlo-Regular-b7" d="M 1528 2700 
L 2316 2700 
L 2316 1747 
L 1528 1747 
L 1528 2700 
z
" transform="scale(0.015625)"/>
     <path id="Menlo-Regular-49" d="M 628 4666 
L 3219 4666 
L 3219 4134 
L 2241 4134 
L 2241 531 
L 3219 531 
L 3219 0 
L 628 0 
L 628 531 
L 1606 531 
L 1606 4134 
L 628 4134 
L 628 4666 
z
" transform="scale(0.015625)"/>
     <path id="Menlo-Regular-52" d="M 2375 2203 
Q 2619 2141 2791 1967 
Q 2963 1794 3219 1275 
L 3853 0 
L 3175 0 
L 2619 1178 
Q 2378 1681 2186 1826 
Q 1994 1972 1684 1972 
L 1081 1972 
L 1081 0 
L 447 0 
L 447 4666 
L 1747 4666 
Q 2516 4666 2925 4319 
Q 3334 3972 3334 3316 
Q 3334 2853 3082 2561 
Q 2831 2269 2375 2203 
z
M 1081 4147 
L 1081 2491 
L 1772 2491 
Q 2225 2491 2447 2694 
Q 2669 2897 2669 3316 
Q 2669 3719 2433 3933 
Q 2197 4147 1747 4147 
L 1081 4147 
z
" transform="scale(0.015625)"/>
     <path id="Menlo-Regular-53" d="M 3163 4506 
L 3163 3866 
Q 2875 4050 2586 4144 
Q 2297 4238 2003 4238 
Q 1556 4238 1297 4030 
Q 1038 3822 1038 3469 
Q 1038 3159 1208 2996 
Q 1378 2834 1844 2725 
L 2175 2650 
Q 2831 2497 3131 2169 
Q 3431 1841 3431 1275 
Q 3431 609 3018 259 
Q 2606 -91 1819 -91 
Q 1491 -91 1159 -20 
Q 828 50 494 191 
L 494 863 
Q 853 634 1173 528 
Q 1494 422 1819 422 
Q 2297 422 2562 636 
Q 2828 850 2828 1234 
Q 2828 1584 2645 1768 
Q 2463 1953 2009 2053 
L 1672 2131 
Q 1022 2278 728 2575 
Q 434 2872 434 3372 
Q 434 3997 854 4373 
Q 1275 4750 1972 4750 
Q 2241 4750 2537 4689 
Q 2834 4628 3163 4506 
z
" transform="scale(0.015625)"/>
     <path id="Menlo-Regular-41" d="M 1925 4109 
L 1259 1722 
L 2591 1722 
L 1925 4109 
z
M 1544 4666 
L 2309 4666 
L 3738 0 
L 3084 0 
L 2741 1216 
L 1106 1216 
L 769 0 
L 116 0 
L 1544 4666 
z
" transform="scale(0.015625)"/>
     <path id="Menlo-Regular-4e" d="M 59 4650 
L 922 4650 
L 2747 822 
L 2747 4650 
L 3419 4650 
L 3419 0 
L 2556 0 
L 731 3828 
L 731 0 
L 59 0 
L 59 4650 
z
" transform="scale(0.015625)"/>
     <path id="Menlo-Regular-47" d="M 3450 384 
Q 3197 150 2880 29 
Q 2563 -91 2194 -91 
Q 1306 -91 812 545 
Q 319 1181 319 2328 
Q 319 3472 819 4111 
Q 1319 4750 2209 4750 
Q 2503 4750 2772 4667 
Q 3041 4584 3291 4416 
L 3291 3769 
Q 3038 4009 2772 4123 
Q 2506 4238 2209 4238 
Q 1594 4238 1286 3761 
Q 978 3284 978 2328 
Q 978 1356 1276 889 
Q 1575 422 2194 422 
Q 2403 422 2561 470 
Q 2719 519 2847 622 
L 2847 1875 
L 2169 1875 
L 2169 2394 
L 3450 2394 
L 3450 384 
z
" transform="scale(0.015625)"/>
     <path id="Menlo-Regular-59" d="M 116 4666 
L 788 4666 
L 1925 2606 
L 3059 4666 
L 3738 4666 
L 2241 2094 
L 2241 0 
L 1606 0 
L 1606 2094 
L 116 4666 
z
" transform="scale(0.015625)"/>
     <path id="Menlo-Regular-50" d="M 1247 4147 
L 1247 2394 
L 1978 2394 
Q 2416 2394 2661 2625 
Q 2906 2856 2906 3272 
Q 2906 3688 2662 3917 
Q 2419 4147 1978 4147 
L 1247 4147 
z
M 616 4666 
L 1978 4666 
Q 2759 4666 3162 4311 
Q 3566 3956 3566 3272 
Q 3566 2581 3164 2228 
Q 2763 1875 1978 1875 
L 1247 1875 
L 1247 0 
L 616 0 
L 616 4666 
z
" transform="scale(0.015625)"/>
     <path id="Menlo-Regular-4b" d="M 428 4666 
L 1063 4666 
L 1063 2591 
L 3034 4666 
L 3775 4666 
L 1959 2759 
L 3828 0 
L 3066 0 
L 1544 2338 
L 1063 1825 
L 1063 0 
L 428 0 
L 428 4666 
z
" transform="scale(0.015625)"/>
     <path id="Menlo-Regular-4f" d="M 2828 2328 
Q 2828 3356 2617 3797 
Q 2406 4238 1925 4238 
Q 1447 4238 1236 3797 
Q 1025 3356 1025 2328 
Q 1025 1303 1236 862 
Q 1447 422 1925 422 
Q 2406 422 2617 861 
Q 2828 1300 2828 2328 
z
M 3488 2328 
Q 3488 1109 3102 509 
Q 2716 -91 1925 -91 
Q 1134 -91 750 506 
Q 366 1103 366 2328 
Q 366 3550 752 4150 
Q 1138 4750 1925 4750 
Q 2716 4750 3102 4150 
Q 3488 3550 3488 2328 
z
" transform="scale(0.015625)"/>
     <path id="Menlo-Regular-43" d="M 3353 166 
Q 3113 38 2859 -26 
Q 2606 -91 2322 -91 
Q 1425 -91 929 543 
Q 434 1178 434 2328 
Q 434 3472 932 4111 
Q 1431 4750 2322 4750 
Q 2606 4750 2859 4686 
Q 3113 4622 3353 4494 
L 3353 3847 
Q 3122 4038 2856 4138 
Q 2591 4238 2322 4238 
Q 1706 4238 1400 3763 
Q 1094 3288 1094 2328 
Q 1094 1372 1400 897 
Q 1706 422 2322 422 
Q 2597 422 2861 522 
Q 3125 622 3353 813 
L 3353 166 
z
" transform="scale(0.015625)"/>
     <path id="Menlo-Regular-48" d="M 428 4666 
L 1063 4666 
L 1063 2878 
L 2791 2878 
L 2791 4666 
L 3425 4666 
L 3425 0 
L 2791 0 
L 2791 2347 
L 1063 2347 
L 1063 0 
L 428 0 
L 428 4666 
z
" transform="scale(0.015625)"/>
    </defs>
    <use xlink:href="#Menlo-Regular-45"/>
    <use xlink:href="#Menlo-Regular-2009" transform="translate(60.205078 0)"/>
    <use xlink:href="#Menlo-Regular-54" transform="translate(120.410156 0)"/>
    <use xlink:href="#Menlo-Regular-2009" transform="translate(180.615234 0)"/>
    <use xlink:href="#Menlo-Regular-46" transform="translate(240.820312 0)"/>
    <use xlink:href="#Menlo-Regular-2009" transform="translate(301.025391 0)"/>
    <use xlink:href="#Menlo-Regular-20" transform="translate(361.230469 0)"/>
    <use xlink:href="#Menlo-Regular-2009" transform="translate(421.435547 0)"/>
    <use xlink:href="#Menlo-Regular-44" transform="translate(481.640625 0)"/>
    <use xlink:href="#Menlo-Regular-2009" transform="translate(541.845703 0)"/>
    <use xlink:href="#Menlo-Regular-45" transform="translate(602.050781 0)"/>
    <use xlink:href="#Menlo-Regular-2009" transform="translate(662.255859 0)"/>
    <use xlink:href="#Menlo-Regular-42" transform="translate(722.460938 0)"/>
    <use xlink:href="#Menlo-Regular-2009" transform="translate(782.666016 0)"/>
    <use xlink:href="#Menlo-Regular-55" transform="translate(842.871094 0)"/>
    <use xlink:href="#Menlo-Regular-2009" transform="translate(903.076172 0)"/>
    <use xlink:href="#Menlo-Regular-54" transform="translate(963.28125 0)"/>
    <use xlink:href="#Menlo-Regular-2009" transform="translate(1023.486328 0)"/>
    <use xlink:href="#Menlo-Regular-20" transform="translate(1083.691406 0)"/>
    <use xlink:href="#Menlo-Regular-2009" transform="translate(1143.896484 0)"/>
    <use xlink:href="#Menlo-Regular-b7" transform="translate(1204.101562 0)"/>
    <use xlink:href="#Menlo-Regular-2009" transform="translate(1264.306641 0)"/>
    <use xlink:href="#Menlo-Regular-20" transform="translate(1324.511719 0)"/>
    <use xlink:href="#Menlo-Regular-2009" transform="translate(1384.716797 0)"/>
    <use xlink:href="#Menlo-Regular-46" transform="translate(1444.921875 0)"/>
    <use xlink:href="#Menlo-Regular-2009" transform="translate(1505.126953 0)"/>
    <use xlink:href="#Menlo-Regular-49" transform="translate(1565.332031 0)"/>
    <use xlink:href="#Menlo-Regular-2009" transform="translate(1625.537109 0)"/>
    <use xlink:href="#Menlo-Regular-52" transform="translate(1685.742188 0)"/>
    <use xlink:href="#Menlo-Regular-2009" transform="translate(1745.947266 0)"/>
    <use xlink:href="#Menlo-Regular-53" transform="translate(1806.152344 0)"/>
    <use xlink:href="#Menlo-Regular-2009" transform="translate(1866.357422 0)"/>
    <use xlink:href="#Menlo-Regular-54" transform="translate(1926.5625 0)"/>
    <use xlink:href="#Menlo-Regular-2009" transform="translate(1986.767578 0)"/>
    <use xlink:href="#Menlo-Regular-20" transform="translate(2046.972656 0)"/>
    <use xlink:href="#Menlo-Regular-2009" transform="translate(2107.177734 0)"/>
    <use xlink:href="#Menlo-Regular-31" transform="translate(2167.382812 0)"/>
    <use xlink:href="#Menlo-Regular-2009" transform="translate(2227.587891 0)"/>
    <use xlink:href="#Menlo-Regular-30" transform="translate(2287.792969 0)"/>
    <use xlink:href="#Menlo-Regular-2009" transform="translate(2347.998047 0)"/>
    <use xlink:href="#Menlo-Regular-20" transform="translate(2408.203125 0)"/>
    <use xlink:href="#Menlo-Regular-2009" transform="translate(2468.408203 0)"/>
    <use xlink:href="#Menlo-Regular-54" transform="translate(2528.613281 0)"/>
    <use xlink:href="#Menlo-Regular-2009" transform="translate(2588.818359 0)"/>
    <use xlink:href="#Menlo-Regular-52" transform="translate(2649.023438 0)"/>
    <use xlink:href="#Menlo-Regular-2009" transform="translate(2709.228516 0)"/>
    <use xlink:href="#Menlo-Regular-41" transform="translate(2769.433594 0)"/>
    <use xlink:href="#Menlo-Regular-2009" transform="translate(2829.638672 0)"/>
    <use xlink:href="#Menlo-Regular-44" transform="translate(2889.84375 0)"/>
    <use xlink:href="#Menlo-Regular-2009" transform="translate(2950.048828 0)"/>
    <use xlink:href="#Menlo-Regular-49" transform="translate(3010.253906 0)"/>
    <use xlink:href="#Menlo-Regular-2009" transform="translate(3070.458984 0)"/>
    <use xlink:href="#Menlo-Regular-4e" transform="translate(3130.664062 0)"/>
    <use xlink:href="#Menlo-Regular-2009" transform="translate(3190.869141 0)"/>
    <use xlink:href="#Menlo-Regular-47" transform="translate(3251.074219 0)"/>
    <use xlink:href="#Menlo-Regular-2009" transform="translate(3311.279297 0)"/>
    <use xlink:href="#Menlo-Regular-20" transform="translate(3371.484375 0)"/>
    <use xlink:href="#Menlo-Regular-2009" transform="translate(3431.689453 0)"/>
    <use xlink:href="#Menlo-Regular-44" transform="translate(3491.894531 0)"/>
    <use xlink:href="#Menlo-Regular-2009" transform="translate(3552.099609 0)"/>
    <use xlink:href="#Menlo-Regular-41" transform="translate(3612.304688 0)"/>
    <use xlink:href="#Menlo-Regular-2009" transform="translate(3672.509766 0)"/>
    <use xlink:href="#Menlo-Regular-59" transform="translate(3732.714844 0)"/>
    <use xlink:href="#Menlo-Regular-2009" transform="translate(3792.919922 0)"/>
    <use xlink:href="#Menlo-Regular-53" transform="translate(3853.125 0)"/>
    <use xlink:href="#Menlo-Regular-2009" transform="translate(3913.330078 0)"/>
    <use xlink:href="#Menlo-Regular-20" transform="translate(3973.535156 0)"/>
    <use xlink:href="#Menlo-Regular-2009" transform="translate(4033.740234 0)"/>
    <use xlink:href="#Menlo-Regular-b7" transform="translate(4093.945312 0)"/>
    <use xlink:href="#Menlo-Regular-2009" transform="translate(4154.150391 0)"/>
    <use xlink:href="#Menlo-Regular-20" transform="translate(4214.355469 0)"/>
    <use xlink:href="#Menlo-Regular-2009" transform="translate(4274.560547 0)"/>
    <use xlink:href="#Menlo-Regular-50" transform="translate(4334.765625 0)"/>
    <use xlink:href="#Menlo-Regular-2009" transform="translate(4394.970703 0)"/>
    <use xlink:href="#Menlo-Regular-45" transform="translate(4455.175781 0)"/>
    <use xlink:href="#Menlo-Regular-2009" transform="translate(4515.380859 0)"/>
    <use xlink:href="#Menlo-Regular-52" transform="translate(4575.585938 0)"/>
    <use xlink:href="#Menlo-Regular-2009" transform="translate(4635.791016 0)"/>
    <use xlink:href="#Menlo-Regular-20" transform="translate(4695.996094 0)"/>
    <use xlink:href="#Menlo-Regular-2009" transform="translate(4756.201172 0)"/>
    <use xlink:href="#Menlo-Regular-4b" transform="translate(4816.40625 0)"/>
    <use xlink:href="#Menlo-Regular-2009" transform="translate(4876.611328 0)"/>
    <use xlink:href="#Menlo-Regular-41" transform="translate(4936.816406 0)"/>
    <use xlink:href="#Menlo-Regular-2009" transform="translate(4997.021484 0)"/>
    <use xlink:href="#Menlo-Regular-49" transform="translate(5057.226562 0)"/>
    <use xlink:href="#Menlo-Regular-2009" transform="translate(5117.431641 0)"/>
    <use xlink:href="#Menlo-Regular-52" transform="translate(5177.636719 0)"/>
    <use xlink:href="#Menlo-Regular-2009" transform="translate(5237.841797 0)"/>
    <use xlink:href="#Menlo-Regular-4f" transform="translate(5298.046875 0)"/>
    <use xlink:href="#Menlo-Regular-2009" transform="translate(5358.251953 0)"/>
    <use xlink:href="#Menlo-Regular-53" transform="translate(5418.457031 0)"/>
    <use xlink:href="#Menlo-Regular-2009" transform="translate(5478.662109 0)"/>
    <use xlink:href="#Menlo-Regular-20" transform="translate(5538.867188 0)"/>
    <use xlink:href="#Menlo-Regular-2009" transform="translate(5599.072266 0)"/>
    <use xlink:href="#Menlo-Regular-52" transform="translate(5659.277344 0)"/>
    <use xlink:href="#Menlo-Regular-2009" transform="translate(5719.482422 0)"/>
    <use xlink:href="#Menlo-Regular-45" transform="translate(5779.6875 0)"/>
    <use xlink:href="#Menlo-Regular-2009" transform="translate(5839.892578 0)"/>
    <use xlink:href="#Menlo-Regular-53" transform="translate(5900.097656 0)"/>
    <use xlink:href="#Menlo-Regular-2009" transform="translate(5960.302734 0)"/>
    <use xlink:href="#Menlo-Regular-45" transform="translate(6020.507812 0)"/>
    <use xlink:href="#Menlo-Regular-2009" transform="translate(6080.712891 0)"/>
    <use xlink:href="#Menlo-Regular-41" transform="translate(6140.917969 0)"/>
    <use xlink:href="#Menlo-Regular-2009" transform="translate(6201.123047 0)"/>
    <use xlink:href="#Menlo-Regular-52" transform="translate(6261.328125 0)"/>
    <use xlink:href="#Menlo-Regular-2009" transform="translate(6321.533203 0)"/>
    <use xlink:href="#Menlo-Regular-43" transform="translate(6381.738281 0)"/>
    <use xlink:href="#Menlo-Regular-2009" transform="translate(6441.943359 0)"/>
    <use xlink:href="#Menlo-Regular-48" transform="translate(6502.148438 0)"/>
   </g>
  </g>
  <g id="text_17">
   <!-- HYPE set a crypto-ETF debut record -->
   <g style="fill: #1a1d21" transform="translate(72.576 83.16) scale(0.22 -0.22)">
    <defs>
     <path id="HelveticaNeue-20" transform="scale(0.015625)"/>
     <path id="HelveticaNeue-73" d="M 742 1043 
L 198 1043 
Q 211 736 326 521 
Q 442 307 634 176 
Q 826 45 1075 -12 
Q 1325 -70 1600 -70 
Q 1850 -70 2102 -22 
Q 2355 26 2556 147 
Q 2758 269 2883 467 
Q 3008 666 3008 966 
Q 3008 1203 2915 1363 
Q 2822 1523 2672 1628 
Q 2522 1734 2326 1798 
Q 2131 1862 1926 1907 
Q 1734 1952 1542 1993 
Q 1350 2035 1196 2096 
Q 1043 2157 944 2249 
Q 845 2342 845 2483 
Q 845 2611 909 2691 
Q 973 2771 1075 2819 
Q 1178 2867 1302 2886 
Q 1427 2906 1549 2906 
Q 1683 2906 1814 2877 
Q 1946 2848 2054 2784 
Q 2163 2720 2233 2614 
Q 2304 2509 2317 2349 
L 2861 2349 
Q 2842 2650 2733 2851 
Q 2624 3053 2441 3171 
Q 2259 3290 2022 3338 
Q 1786 3386 1504 3386 
Q 1286 3386 1065 3331 
Q 845 3277 669 3165 
Q 493 3053 381 2873 
Q 269 2694 269 2445 
Q 269 2125 429 1945 
Q 589 1766 829 1667 
Q 1069 1568 1350 1513 
Q 1632 1459 1872 1392 
Q 2112 1325 2272 1216 
Q 2432 1107 2432 896 
Q 2432 742 2355 643 
Q 2278 544 2160 493 
Q 2042 442 1901 422 
Q 1760 403 1632 403 
Q 1466 403 1309 435 
Q 1152 467 1027 540 
Q 902 614 825 739 
Q 749 864 742 1043 
z
" transform="scale(0.015625)"/>
     <path id="HelveticaNeue-79" d="M 1709 -442 
Q 1613 -685 1520 -851 
Q 1427 -1018 1315 -1123 
Q 1203 -1229 1065 -1277 
Q 928 -1325 749 -1325 
Q 653 -1325 557 -1312 
Q 461 -1299 371 -1267 
L 371 -768 
Q 442 -800 534 -822 
Q 627 -845 691 -845 
Q 858 -845 970 -765 
Q 1082 -685 1139 -538 
L 1363 19 
L 51 3309 
L 666 3309 
L 1632 602 
L 1645 602 
L 2573 3309 
L 3149 3309 
L 1709 -442 
z
" transform="scale(0.015625)"/>
     <path id="HelveticaNeue-70" d="M 429 3309 
L 429 -1261 
L 973 -1261 
L 973 442 
L 986 442 
Q 1075 294 1206 195 
Q 1338 96 1485 38 
Q 1632 -19 1782 -44 
Q 1933 -70 2054 -70 
Q 2432 -70 2717 64 
Q 3002 198 3190 432 
Q 3379 666 3472 979 
Q 3565 1293 3565 1645 
Q 3565 1997 3469 2310 
Q 3373 2624 3184 2864 
Q 2995 3104 2710 3245 
Q 2426 3386 2042 3386 
Q 1696 3386 1408 3261 
Q 1120 3136 986 2861 
L 973 2861 
L 973 3309 
L 429 3309 
z
M 2989 1683 
Q 2989 1440 2937 1209 
Q 2886 979 2771 800 
Q 2656 621 2467 512 
Q 2278 403 1997 403 
Q 1715 403 1516 508 
Q 1318 614 1193 787 
Q 1069 960 1011 1187 
Q 954 1414 954 1658 
Q 954 1888 1008 2112 
Q 1062 2336 1184 2512 
Q 1306 2688 1498 2797 
Q 1690 2906 1965 2906 
Q 2227 2906 2422 2803 
Q 2618 2701 2742 2528 
Q 2867 2355 2928 2134 
Q 2989 1914 2989 1683 
z
" transform="scale(0.015625)"/>
     <path id="HelveticaNeue-2d" d="M 320 2035 
L 320 1523 
L 2170 1523 
L 2170 2035 
L 320 2035 
z
" transform="scale(0.015625)"/>
     <path id="HelveticaNeue-54" d="M 1536 4058 
L 1536 0 
L 2144 0 
L 2144 4058 
L 3667 4058 
L 3667 4570 
L 13 4570 
L 13 4058 
L 1536 4058 
z
" transform="scale(0.015625)"/>
     <path id="HelveticaNeue-46" d="M 499 4570 
L 499 0 
L 1107 0 
L 1107 2093 
L 3206 2093 
L 3206 2605 
L 1107 2605 
L 1107 4058 
L 3501 4058 
L 3501 4570 
L 499 4570 
z
" transform="scale(0.015625)"/>
     <path id="HelveticaNeue-64" d="M 806 1626 
Q 806 1869 857 2099 
Q 909 2330 1024 2509 
Q 1139 2688 1331 2797 
Q 1523 2906 1798 2906 
Q 2080 2906 2278 2800 
Q 2477 2694 2601 2521 
Q 2726 2349 2784 2121 
Q 2842 1894 2842 1651 
Q 2842 1421 2787 1197 
Q 2733 973 2611 797 
Q 2490 621 2298 512 
Q 2106 403 1830 403 
Q 1568 403 1373 505 
Q 1178 608 1053 781 
Q 928 954 867 1174 
Q 806 1395 806 1626 
z
M 3366 0 
L 3366 4570 
L 2822 4570 
L 2822 2867 
L 2810 2867 
Q 2720 3014 2589 3113 
Q 2458 3213 2310 3273 
Q 2163 3334 2016 3360 
Q 1869 3386 1741 3386 
Q 1363 3386 1078 3248 
Q 794 3110 605 2876 
Q 416 2643 323 2329 
Q 230 2016 230 1664 
Q 230 1312 326 998 
Q 422 685 611 448 
Q 800 211 1085 70 
Q 1370 -70 1754 -70 
Q 2099 -70 2387 51 
Q 2675 173 2810 448 
L 2822 448 
L 2822 0 
L 3366 0 
z
" transform="scale(0.015625)"/>
     <path id="HelveticaNeue-62" d="M 429 4570 
L 429 0 
L 973 0 
L 973 442 
L 986 442 
Q 1075 294 1206 195 
Q 1338 96 1485 38 
Q 1632 -19 1782 -44 
Q 1933 -70 2054 -70 
Q 2432 -70 2717 64 
Q 3002 198 3190 432 
Q 3379 666 3472 979 
Q 3565 1293 3565 1645 
Q 3565 1997 3469 2310 
Q 3373 2624 3184 2864 
Q 2995 3104 2710 3245 
Q 2426 3386 2042 3386 
Q 1696 3386 1408 3261 
Q 1120 3136 986 2861 
L 973 2861 
L 973 4570 
L 429 4570 
z
M 2989 1683 
Q 2989 1440 2937 1209 
Q 2886 979 2771 800 
Q 2656 621 2467 512 
Q 2278 403 1997 403 
Q 1715 403 1516 508 
Q 1318 614 1193 787 
Q 1069 960 1011 1187 
Q 954 1414 954 1658 
Q 954 1888 1008 2112 
Q 1062 2336 1184 2512 
Q 1306 2688 1498 2797 
Q 1690 2906 1965 2906 
Q 2227 2906 2422 2803 
Q 2618 2701 2742 2528 
Q 2867 2355 2928 2134 
Q 2989 1914 2989 1683 
z
" transform="scale(0.015625)"/>
    </defs>
    <use xlink:href="#HelveticaNeue-48"/>
    <use xlink:href="#HelveticaNeue-59" transform="translate(72.199982 0)"/>
    <use xlink:href="#HelveticaNeue-50" transform="translate(136.999969 0)"/>
    <use xlink:href="#HelveticaNeue-45" transform="translate(201.799957 0)"/>
    <use xlink:href="#HelveticaNeue-20" transform="translate(262.899948 0)"/>
    <use xlink:href="#HelveticaNeue-73" transform="translate(290.699936 0)"/>
    <use xlink:href="#HelveticaNeue-65" transform="translate(340.699921 0)"/>
    <use xlink:href="#HelveticaNeue-74" transform="translate(394.399918 0)"/>
    <use xlink:href="#HelveticaNeue-20" transform="translate(425.899902 0)"/>
    <use xlink:href="#HelveticaNeue-61" transform="translate(453.69989 0)"/>
    <use xlink:href="#HelveticaNeue-20" transform="translate(507.399887 0)"/>
    <use xlink:href="#HelveticaNeue-63" transform="translate(535.199875 0)"/>
    <use xlink:href="#HelveticaNeue-72" transform="translate(588.899872 0)"/>
    <use xlink:href="#HelveticaNeue-79" transform="translate(622.19986 0)"/>
    <use xlink:href="#HelveticaNeue-70" transform="translate(672.199844 0)"/>
    <use xlink:href="#HelveticaNeue-74" transform="translate(731.499832 0)"/>
    <use xlink:href="#HelveticaNeue-6f" transform="translate(762.999817 0)"/>
    <use xlink:href="#HelveticaNeue-2d" transform="translate(820.399811 0)"/>
    <use xlink:href="#HelveticaNeue-45" transform="translate(859.299805 0)"/>
    <use xlink:href="#HelveticaNeue-54" transform="translate(920.399796 0)"/>
    <use xlink:href="#HelveticaNeue-46" transform="translate(977.799789 0)"/>
    <use xlink:href="#HelveticaNeue-20" transform="translate(1035.199783 0)"/>
    <use xlink:href="#HelveticaNeue-64" transform="translate(1062.999771 0)"/>
    <use xlink:href="#HelveticaNeue-65" transform="translate(1122.299759 0)"/>
    <use xlink:href="#HelveticaNeue-62" transform="translate(1175.999756 0)"/>
    <use xlink:href="#HelveticaNeue-75" transform="translate(1235.299744 0)"/>
    <use xlink:href="#HelveticaNeue-74" transform="translate(1290.899734 0)"/>
    <use xlink:href="#HelveticaNeue-20" transform="translate(1322.399719 0)"/>
    <use xlink:href="#HelveticaNeue-72" transform="translate(1350.199707 0)"/>
    <use xlink:href="#HelveticaNeue-65" transform="translate(1381.749695 0)"/>
    <use xlink:href="#HelveticaNeue-63" transform="translate(1435.449692 0)"/>
    <use xlink:href="#HelveticaNeue-6f" transform="translate(1489.149689 0)"/>
    <use xlink:href="#HelveticaNeue-72" transform="translate(1546.549683 0)"/>
    <use xlink:href="#HelveticaNeue-64" transform="translate(1578.09967 0)"/>
   </g>
  </g>
  <g id="text_18">
   <!-- Net inflows as a share of token market cap at launch (new-issuer cohort) -->
   <g style="fill: #5b6470" transform="translate(72.576 108.3456) scale(0.125 -0.125)">
    <defs>
     <path id="HelveticaNeue-4e" d="M 493 4570 
L 493 0 
L 1069 0 
L 1069 3667 
L 1082 3667 
L 3469 0 
L 4134 0 
L 4134 4570 
L 3558 4570 
L 3558 864 
L 3546 864 
L 1139 4570 
L 493 4570 
z
" transform="scale(0.015625)"/>
     <path id="HelveticaNeue-66" d="M 634 2829 
L 634 0 
L 1178 0 
L 1178 2829 
L 1818 2829 
L 1818 3309 
L 1178 3309 
L 1178 3770 
Q 1178 3987 1286 4064 
Q 1395 4141 1594 4141 
Q 1664 4141 1747 4131 
Q 1830 4122 1901 4096 
L 1901 4570 
Q 1824 4595 1725 4608 
Q 1626 4621 1549 4621 
Q 1101 4621 867 4413 
Q 634 4205 634 3802 
L 634 3309 
L 77 3309 
L 77 2829 
L 634 2829 
z
" transform="scale(0.015625)"/>
     <path id="HelveticaNeue-77" d="M 3686 0 
L 4742 3309 
L 4179 3309 
L 3437 602 
L 3424 602 
L 2733 3309 
L 2138 3309 
L 1472 602 
L 1459 602 
L 710 3309 
L 109 3309 
L 1171 0 
L 1760 0 
L 2426 2630 
L 2438 2630 
L 3110 0 
L 3686 0 
z
" transform="scale(0.015625)"/>
     <path id="HelveticaNeue-6b" d="M 442 4570 
L 442 0 
L 986 0 
L 986 1254 
L 1498 1728 
L 2630 0 
L 3322 0 
L 1914 2106 
L 3226 3309 
L 2496 3309 
L 986 1862 
L 986 4570 
L 442 4570 
z
" transform="scale(0.015625)"/>
     <path id="HelveticaNeue-28" d="M 1306 -1261 
L 1722 -1261 
Q 1267 -525 1072 198 
Q 877 922 877 1728 
Q 877 2515 1069 3232 
Q 1261 3949 1722 4678 
L 1306 4678 
Q 806 4019 553 3251 
Q 301 2483 301 1728 
Q 301 1306 371 922 
Q 442 538 573 173 
Q 704 -192 889 -547 
Q 1075 -902 1306 -1261 
z
" transform="scale(0.015625)"/>
     <path id="HelveticaNeue-29" d="M -58 -1261 
L 352 -1261 
Q 851 -602 1104 163 
Q 1357 928 1357 1683 
Q 1357 2106 1286 2490 
Q 1216 2874 1085 3242 
Q 954 3610 768 3965 
Q 582 4320 352 4678 
L -58 4678 
Q 390 3942 585 3216 
Q 781 2490 781 1683 
Q 781 902 589 182 
Q 397 -538 -58 -1261 
z
" transform="scale(0.015625)"/>
    </defs>
    <use xlink:href="#HelveticaNeue-4e"/>
    <use xlink:href="#HelveticaNeue-65" transform="translate(72.199982 0)"/>
    <use xlink:href="#HelveticaNeue-74" transform="translate(125.899979 0)"/>
    <use xlink:href="#HelveticaNeue-20" transform="translate(157.399963 0)"/>
    <use xlink:href="#HelveticaNeue-69" transform="translate(185.199951 0)"/>
    <use xlink:href="#HelveticaNeue-6e" transform="translate(207.399948 0)"/>
    <use xlink:href="#HelveticaNeue-66" transform="translate(262.999939 0)"/>
    <use xlink:href="#HelveticaNeue-6c" transform="translate(292.59993 0)"/>
    <use xlink:href="#HelveticaNeue-6f" transform="translate(314.799927 0)"/>
    <use xlink:href="#HelveticaNeue-77" transform="translate(372.199921 0)"/>
    <use xlink:href="#HelveticaNeue-73" transform="translate(447.999908 0)"/>
    <use xlink:href="#HelveticaNeue-20" transform="translate(497.999893 0)"/>
    <use xlink:href="#HelveticaNeue-61" transform="translate(525.799881 0)"/>
    <use xlink:href="#HelveticaNeue-73" transform="translate(579.499878 0)"/>
    <use xlink:href="#HelveticaNeue-20" transform="translate(629.499863 0)"/>
    <use xlink:href="#HelveticaNeue-61" transform="translate(657.29985 0)"/>
    <use xlink:href="#HelveticaNeue-20" transform="translate(710.999847 0)"/>
    <use xlink:href="#HelveticaNeue-73" transform="translate(738.799835 0)"/>
    <use xlink:href="#HelveticaNeue-68" transform="translate(788.79982 0)"/>
    <use xlink:href="#HelveticaNeue-61" transform="translate(844.399811 0)"/>
    <use xlink:href="#HelveticaNeue-72" transform="translate(898.099808 0)"/>
    <use xlink:href="#HelveticaNeue-65" transform="translate(929.649796 0)"/>
    <use xlink:href="#HelveticaNeue-20" transform="translate(983.349792 0)"/>
    <use xlink:href="#HelveticaNeue-6f" transform="translate(1011.14978 0)"/>
    <use xlink:href="#HelveticaNeue-66" transform="translate(1068.549774 0)"/>
    <use xlink:href="#HelveticaNeue-20" transform="translate(1098.149765 0)"/>
    <use xlink:href="#HelveticaNeue-74" transform="translate(1125.949753 0)"/>
    <use xlink:href="#HelveticaNeue-6f" transform="translate(1157.449738 0)"/>
    <use xlink:href="#HelveticaNeue-6b" transform="translate(1214.849731 0)"/>
    <use xlink:href="#HelveticaNeue-65" transform="translate(1266.749725 0)"/>
    <use xlink:href="#HelveticaNeue-6e" transform="translate(1320.449722 0)"/>
    <use xlink:href="#HelveticaNeue-20" transform="translate(1376.049713 0)"/>
    <use xlink:href="#HelveticaNeue-6d" transform="translate(1403.849701 0)"/>
    <use xlink:href="#HelveticaNeue-61" transform="translate(1489.149689 0)"/>
    <use xlink:href="#HelveticaNeue-72" transform="translate(1542.849686 0)"/>
    <use xlink:href="#HelveticaNeue-6b" transform="translate(1576.149673 0)"/>
    <use xlink:href="#HelveticaNeue-65" transform="translate(1628.049667 0)"/>
    <use xlink:href="#HelveticaNeue-74" transform="translate(1681.749664 0)"/>
    <use xlink:href="#HelveticaNeue-20" transform="translate(1713.249649 0)"/>
    <use xlink:href="#HelveticaNeue-63" transform="translate(1741.049637 0)"/>
    <use xlink:href="#HelveticaNeue-61" transform="translate(1794.749634 0)"/>
    <use xlink:href="#HelveticaNeue-70" transform="translate(1848.449631 0)"/>
    <use xlink:href="#HelveticaNeue-20" transform="translate(1907.749619 0)"/>
    <use xlink:href="#HelveticaNeue-61" transform="translate(1935.549606 0)"/>
    <use xlink:href="#HelveticaNeue-74" transform="translate(1989.249603 0)"/>
    <use xlink:href="#HelveticaNeue-20" transform="translate(2020.749588 0)"/>
    <use xlink:href="#HelveticaNeue-6c" transform="translate(2048.549576 0)"/>
    <use xlink:href="#HelveticaNeue-61" transform="translate(2070.749573 0)"/>
    <use xlink:href="#HelveticaNeue-75" transform="translate(2124.44957 0)"/>
    <use xlink:href="#HelveticaNeue-6e" transform="translate(2180.049561 0)"/>
    <use xlink:href="#HelveticaNeue-63" transform="translate(2235.649551 0)"/>
    <use xlink:href="#HelveticaNeue-68" transform="translate(2289.349548 0)"/>
    <use xlink:href="#HelveticaNeue-20" transform="translate(2344.949539 0)"/>
    <use xlink:href="#HelveticaNeue-28" transform="translate(2372.749527 0)"/>
    <use xlink:href="#HelveticaNeue-6e" transform="translate(2398.649521 0)"/>
    <use xlink:href="#HelveticaNeue-65" transform="translate(2454.249512 0)"/>
    <use xlink:href="#HelveticaNeue-77" transform="translate(2507.949509 0)"/>
    <use xlink:href="#HelveticaNeue-2d" transform="translate(2583.749496 0)"/>
    <use xlink:href="#HelveticaNeue-69" transform="translate(2622.64949 0)"/>
    <use xlink:href="#HelveticaNeue-73" transform="translate(2644.849487 0)"/>
    <use xlink:href="#HelveticaNeue-73" transform="translate(2694.849472 0)"/>
    <use xlink:href="#HelveticaNeue-75" transform="translate(2744.849457 0)"/>
    <use xlink:href="#HelveticaNeue-65" transform="translate(2800.449448 0)"/>
    <use xlink:href="#HelveticaNeue-72" transform="translate(2854.149445 0)"/>
    <use xlink:href="#HelveticaNeue-20" transform="translate(2887.449432 0)"/>
    <use xlink:href="#HelveticaNeue-63" transform="translate(2915.24942 0)"/>
    <use xlink:href="#HelveticaNeue-6f" transform="translate(2968.949417 0)"/>
    <use xlink:href="#HelveticaNeue-68" transform="translate(3026.349411 0)"/>
    <use xlink:href="#HelveticaNeue-6f" transform="translate(3081.949402 0)"/>
    <use xlink:href="#HelveticaNeue-72" transform="translate(3139.349396 0)"/>
    <use xlink:href="#HelveticaNeue-74" transform="translate(3172.649384 0)"/>
    <use xlink:href="#HelveticaNeue-29" transform="translate(3204.149368 0)"/>
   </g>
  </g>
  <g id="text_19">
   <!-- HYPE ETF RESEARCH -->
   <g style="fill: #98a1ad" transform="translate(72.576 440.9856) scale(0.09 -0.09)">
    <use xlink:href="#Menlo-Regular-48"/>
    <use xlink:href="#Menlo-Regular-59" transform="translate(60.205078 0)"/>
    <use xlink:href="#Menlo-Regular-50" transform="translate(120.410156 0)"/>
    <use xlink:href="#Menlo-Regular-45" transform="translate(180.615234 0)"/>
    <use xlink:href="#Menlo-Regular-20" transform="translate(240.820312 0)"/>
    <use xlink:href="#Menlo-Regular-45" transform="translate(301.025391 0)"/>
    <use xlink:href="#Menlo-Regular-54" transform="translate(361.230469 0)"/>
    <use xlink:href="#Menlo-Regular-46" transform="translate(421.435547 0)"/>
    <use xlink:href="#Menlo-Regular-20" transform="translate(481.640625 0)"/>
    <use xlink:href="#Menlo-Regular-52" transform="translate(541.845703 0)"/>
    <use xlink:href="#Menlo-Regular-45" transform="translate(602.050781 0)"/>
    <use xlink:href="#Menlo-Regular-53" transform="translate(662.255859 0)"/>
    <use xlink:href="#Menlo-Regular-45" transform="translate(722.460938 0)"/>
    <use xlink:href="#Menlo-Regular-41" transform="translate(782.666016 0)"/>
    <use xlink:href="#Menlo-Regular-52" transform="translate(842.871094 0)"/>
    <use xlink:href="#Menlo-Regular-43" transform="translate(903.076172 0)"/>
    <use xlink:href="#Menlo-Regular-48" transform="translate(963.28125 0)"/>
   </g>
  </g>
  <g id="text_20">
   <!-- Source: Kairos Research (@Kairos_Res), May 27 2026 · reproduced -->
   <g style="fill: #98a1ad" transform="translate(394.30875 440.9856) scale(0.084 -0.084)">
    <defs>
     <path id="HelveticaNeue-3a" d="M 1242 2598 
L 1242 3309 
L 531 3309 
L 531 2598 
L 1242 2598 
z
M 531 710 
L 531 0 
L 1242 0 
L 1242 710 
L 531 710 
z
" transform="scale(0.015625)"/>
     <path id="HelveticaNeue-4b" d="M 499 4570 
L 499 0 
L 1107 0 
L 1107 1600 
L 1869 2310 
L 3520 0 
L 4288 0 
L 2285 2726 
L 4211 4570 
L 3424 4570 
L 1107 2291 
L 1107 4570 
L 499 4570 
z
" transform="scale(0.015625)"/>
     <path id="HelveticaNeue-52" d="M 499 4570 
L 499 0 
L 1107 0 
L 1107 1952 
L 2592 1952 
Q 2816 1952 2950 1885 
Q 3085 1818 3168 1706 
Q 3251 1594 3289 1443 
Q 3328 1293 3354 1126 
Q 3386 960 3392 787 
Q 3398 614 3404 464 
Q 3411 314 3433 192 
Q 3456 70 3520 0 
L 4198 0 
Q 4102 115 4054 265 
Q 4006 416 3980 582 
Q 3955 749 3948 921 
Q 3942 1094 3930 1261 
Q 3910 1427 3875 1580 
Q 3840 1734 3766 1859 
Q 3693 1984 3568 2073 
Q 3443 2163 3245 2202 
L 3245 2214 
Q 3661 2330 3849 2643 
Q 4038 2957 4038 3373 
Q 4038 3930 3670 4250 
Q 3302 4570 2650 4570 
L 499 4570 
z
M 2374 2464 
L 1107 2464 
L 1107 4058 
L 2618 4058 
Q 3046 4058 3238 3840 
Q 3430 3622 3430 3277 
Q 3430 3027 3344 2870 
Q 3258 2714 3114 2621 
Q 2970 2528 2778 2496 
Q 2586 2464 2374 2464 
z
" transform="scale(0.015625)"/>
     <path id="HelveticaNeue-40" d="M 3418 1728 
L 3955 3546 
L 3552 3546 
L 3405 3142 
Q 3296 3430 3104 3548 
Q 2912 3667 2688 3667 
Q 2349 3667 2070 3507 
Q 1792 3347 1597 3091 
Q 1402 2835 1293 2508 
Q 1184 2182 1184 1850 
Q 1184 1638 1251 1452 
Q 1318 1267 1436 1132 
Q 1555 998 1724 918 
Q 1894 838 2099 838 
Q 2336 838 2541 969 
Q 2746 1101 2893 1267 
L 2912 1267 
Q 2925 1056 3040 953 
Q 3155 851 3322 851 
Q 3546 851 3808 985 
Q 4070 1120 4294 1363 
Q 4518 1606 4668 1948 
Q 4819 2291 4819 2707 
Q 4819 3142 4646 3504 
Q 4474 3866 4176 4125 
Q 3878 4384 3481 4531 
Q 3085 4678 2643 4678 
Q 2157 4678 1725 4492 
Q 1293 4307 969 3984 
Q 646 3661 457 3229 
Q 269 2797 269 2304 
Q 269 1792 454 1353 
Q 640 915 963 592 
Q 1286 269 1724 83 
Q 2163 -102 2669 -102 
Q 2976 -102 3270 -28 
Q 3565 45 3824 189 
Q 4083 333 4300 541 
Q 4518 749 4672 1018 
L 4269 1018 
Q 3994 666 3568 454 
Q 3142 243 2682 243 
Q 2278 243 1920 400 
Q 1562 557 1290 829 
Q 1018 1101 861 1472 
Q 704 1843 704 2272 
Q 704 2694 854 3065 
Q 1005 3437 1267 3718 
Q 1530 4000 1885 4163 
Q 2240 4326 2650 4326 
Q 2989 4326 3299 4211 
Q 3610 4096 3853 3881 
Q 4096 3667 4240 3360 
Q 4384 3053 4384 2675 
Q 4384 2419 4301 2156 
Q 4218 1894 4090 1683 
Q 3962 1472 3805 1337 
Q 3648 1203 3501 1203 
Q 3347 1203 3347 1402 
Q 3347 1472 3369 1558 
Q 3392 1645 3418 1728 
z
M 2688 3232 
Q 2790 3232 2883 3181 
Q 2976 3130 3049 3050 
Q 3123 2970 3164 2861 
Q 3206 2752 3206 2637 
Q 3206 2438 3129 2201 
Q 3053 1965 2918 1757 
Q 2784 1549 2605 1411 
Q 2426 1274 2214 1274 
Q 1971 1274 1817 1450 
Q 1664 1626 1664 1894 
Q 1664 2106 1741 2339 
Q 1818 2573 1952 2771 
Q 2086 2970 2275 3101 
Q 2464 3232 2688 3232 
z
" transform="scale(0.015625)"/>
     <path id="HelveticaNeue-5f" d="M 0 -474 
L 0 -794 
L 3200 -794 
L 3200 -474 
L 0 -474 
z
" transform="scale(0.015625)"/>
     <path id="HelveticaNeue-2c" d="M 531 710 
L 531 0 
L 909 0 
Q 915 -77 899 -166 
Q 883 -256 838 -342 
Q 794 -429 720 -502 
Q 646 -576 538 -614 
L 538 -934 
Q 909 -826 1075 -563 
Q 1242 -301 1242 64 
L 1242 710 
L 531 710 
z
" transform="scale(0.015625)"/>
     <path id="HelveticaNeue-4d" d="M 512 4570 
L 512 0 
L 1088 0 
L 1088 3802 
L 1101 3802 
L 2528 0 
L 3046 0 
L 4474 3802 
L 4486 3802 
L 4486 0 
L 5062 0 
L 5062 4570 
L 4230 4570 
L 2784 730 
L 1344 4570 
L 512 4570 
z
" transform="scale(0.015625)"/>
     <path id="HelveticaNeue-32" d="M 282 2931 
L 826 2931 
Q 819 3136 867 3337 
Q 915 3539 1024 3699 
Q 1133 3859 1302 3958 
Q 1472 4058 1709 4058 
Q 1888 4058 2048 4000 
Q 2208 3942 2326 3833 
Q 2445 3725 2515 3574 
Q 2586 3424 2586 3238 
Q 2586 3002 2512 2822 
Q 2438 2643 2294 2489 
Q 2150 2336 1932 2185 
Q 1715 2035 1427 1856 
Q 1190 1715 972 1555 
Q 755 1395 582 1184 
Q 410 973 298 688 
Q 186 403 154 0 
L 3117 0 
L 3117 480 
L 787 480 
Q 826 691 950 854 
Q 1075 1018 1251 1158 
Q 1427 1299 1638 1424 
Q 1850 1549 2061 1677 
Q 2272 1811 2470 1958 
Q 2669 2106 2822 2288 
Q 2976 2470 3069 2700 
Q 3162 2931 3162 3232 
Q 3162 3552 3050 3795 
Q 2938 4038 2746 4201 
Q 2554 4365 2294 4451 
Q 2035 4538 1741 4538 
Q 1382 4538 1100 4416 
Q 819 4294 630 4080 
Q 442 3866 352 3571 
Q 262 3277 282 2931 
z
" transform="scale(0.015625)"/>
     <path id="HelveticaNeue-37" d="M 3258 3994 
L 3258 4461 
L 320 4461 
L 320 3949 
L 2701 3949 
Q 2342 3571 2032 3123 
Q 1722 2675 1485 2172 
Q 1248 1670 1097 1123 
Q 947 576 909 0 
L 1517 0 
Q 1549 531 1696 1094 
Q 1843 1658 2076 2189 
Q 2310 2720 2611 3187 
Q 2912 3654 3258 3994 
z
" transform="scale(0.015625)"/>
     <path id="HelveticaNeue-30" d="M 845 2234 
Q 845 2400 848 2601 
Q 851 2803 880 3004 
Q 909 3206 963 3398 
Q 1018 3590 1123 3734 
Q 1229 3878 1389 3968 
Q 1549 4058 1779 4058 
Q 2010 4058 2170 3968 
Q 2330 3878 2435 3734 
Q 2541 3590 2595 3398 
Q 2650 3206 2678 3004 
Q 2707 2803 2710 2601 
Q 2714 2400 2714 2234 
Q 2714 1978 2698 1661 
Q 2682 1344 2595 1065 
Q 2509 787 2317 595 
Q 2125 403 1779 403 
Q 1434 403 1242 595 
Q 1050 787 963 1065 
Q 877 1344 861 1661 
Q 845 1978 845 2234 
z
M 269 2227 
Q 269 1978 281 1709 
Q 294 1440 345 1184 
Q 397 928 493 701 
Q 589 474 755 301 
Q 922 128 1174 29 
Q 1427 -70 1779 -70 
Q 2138 -70 2387 29 
Q 2637 128 2803 301 
Q 2970 474 3066 701 
Q 3162 928 3213 1184 
Q 3264 1440 3277 1709 
Q 3290 1978 3290 2227 
Q 3290 2477 3277 2745 
Q 3264 3014 3213 3270 
Q 3162 3526 3066 3756 
Q 2970 3987 2803 4160 
Q 2637 4333 2384 4435 
Q 2131 4538 1779 4538 
Q 1427 4538 1174 4435 
Q 922 4333 755 4160 
Q 589 3987 493 3756 
Q 397 3526 345 3270 
Q 294 3014 281 2745 
Q 269 2477 269 2227 
z
" transform="scale(0.015625)"/>
     <path id="HelveticaNeue-36" d="M 2650 3379 
L 3194 3379 
Q 3142 3942 2809 4240 
Q 2477 4538 1914 4538 
Q 1427 4538 1107 4333 
Q 787 4128 595 3789 
Q 403 3450 323 3011 
Q 243 2573 243 2106 
Q 243 1747 297 1363 
Q 352 979 518 659 
Q 685 339 992 134 
Q 1299 -70 1805 -70 
Q 2234 -70 2525 74 
Q 2816 218 2992 438 
Q 3168 659 3245 928 
Q 3322 1197 3322 1446 
Q 3322 1760 3226 2029 
Q 3130 2298 2954 2496 
Q 2778 2694 2518 2806 
Q 2259 2918 1933 2918 
Q 1562 2918 1277 2777 
Q 992 2637 800 2323 
L 787 2336 
Q 794 2598 838 2899 
Q 883 3200 1001 3459 
Q 1120 3718 1331 3888 
Q 1542 4058 1888 4058 
Q 2214 4058 2412 3872 
Q 2611 3686 2650 3379 
z
M 1830 2438 
Q 2061 2438 2233 2355 
Q 2406 2272 2521 2134 
Q 2637 1997 2691 1808 
Q 2746 1619 2746 1408 
Q 2746 1210 2685 1027 
Q 2624 845 2509 704 
Q 2394 563 2224 483 
Q 2054 403 1830 403 
Q 1606 403 1430 483 
Q 1254 563 1136 697 
Q 1018 832 954 1017 
Q 890 1203 890 1414 
Q 890 1626 950 1814 
Q 1011 2003 1132 2140 
Q 1254 2278 1427 2358 
Q 1600 2438 1830 2438 
z
" transform="scale(0.015625)"/>
     <path id="HelveticaNeue-b7" d="M 480 1990 
Q 480 1824 605 1702 
Q 730 1581 896 1581 
Q 1056 1581 1177 1709 
Q 1299 1837 1299 1990 
Q 1299 2157 1177 2278 
Q 1056 2400 890 2400 
Q 723 2400 601 2278 
Q 480 2157 480 1990 
z
" transform="scale(0.015625)"/>
    </defs>
    <use xlink:href="#HelveticaNeue-53"/>
    <use xlink:href="#HelveticaNeue-6f" transform="translate(64.799988 0)"/>
    <use xlink:href="#HelveticaNeue-75" transform="translate(122.199982 0)"/>
    <use xlink:href="#HelveticaNeue-72" transform="translate(177.799973 0)"/>
    <use xlink:href="#HelveticaNeue-63" transform="translate(209.34996 0)"/>
    <use xlink:href="#HelveticaNeue-65" transform="translate(263.049957 0)"/>
    <use xlink:href="#HelveticaNeue-3a" transform="translate(316.749954 0)"/>
    <use xlink:href="#HelveticaNeue-20" transform="translate(344.549942 0)"/>
    <use xlink:href="#HelveticaNeue-4b" transform="translate(372.34993 0)"/>
    <use xlink:href="#HelveticaNeue-61" transform="translate(439.049927 0)"/>
    <use xlink:href="#HelveticaNeue-69" transform="translate(492.749924 0)"/>
    <use xlink:href="#HelveticaNeue-72" transform="translate(514.949921 0)"/>
    <use xlink:href="#HelveticaNeue-6f" transform="translate(546.499908 0)"/>
    <use xlink:href="#HelveticaNeue-73" transform="translate(603.899902 0)"/>
    <use xlink:href="#HelveticaNeue-20" transform="translate(653.899887 0)"/>
    <use xlink:href="#HelveticaNeue-52" transform="translate(681.699875 0)"/>
    <use xlink:href="#HelveticaNeue-65" transform="translate(750.19986 0)"/>
    <use xlink:href="#HelveticaNeue-73" transform="translate(803.899857 0)"/>
    <use xlink:href="#HelveticaNeue-65" transform="translate(853.899841 0)"/>
    <use xlink:href="#HelveticaNeue-61" transform="translate(907.599838 0)"/>
    <use xlink:href="#HelveticaNeue-72" transform="translate(961.299835 0)"/>
    <use xlink:href="#HelveticaNeue-63" transform="translate(992.849823 0)"/>
    <use xlink:href="#HelveticaNeue-68" transform="translate(1046.54982 0)"/>
    <use xlink:href="#HelveticaNeue-20" transform="translate(1102.149811 0)"/>
    <use xlink:href="#HelveticaNeue-28" transform="translate(1129.949799 0)"/>
    <use xlink:href="#HelveticaNeue-40" transform="translate(1155.849792 0)"/>
    <use xlink:href="#HelveticaNeue-4b" transform="translate(1235.849777 0)"/>
    <use xlink:href="#HelveticaNeue-61" transform="translate(1302.549774 0)"/>
    <use xlink:href="#HelveticaNeue-69" transform="translate(1356.249771 0)"/>
    <use xlink:href="#HelveticaNeue-72" transform="translate(1378.449768 0)"/>
    <use xlink:href="#HelveticaNeue-6f" transform="translate(1409.999756 0)"/>
    <use xlink:href="#HelveticaNeue-73" transform="translate(1467.39975 0)"/>
    <use xlink:href="#HelveticaNeue-5f" transform="translate(1517.399734 0)"/>
    <use xlink:href="#HelveticaNeue-52" transform="translate(1567.399719 0)"/>
    <use xlink:href="#HelveticaNeue-65" transform="translate(1635.899704 0)"/>
    <use xlink:href="#HelveticaNeue-73" transform="translate(1689.599701 0)"/>
    <use xlink:href="#HelveticaNeue-29" transform="translate(1739.599686 0)"/>
    <use xlink:href="#HelveticaNeue-2c" transform="translate(1765.49968 0)"/>
    <use xlink:href="#HelveticaNeue-20" transform="translate(1793.299667 0)"/>
    <use xlink:href="#HelveticaNeue-4d" transform="translate(1821.099655 0)"/>
    <use xlink:href="#HelveticaNeue-61" transform="translate(1908.199646 0)"/>
    <use xlink:href="#HelveticaNeue-79" transform="translate(1961.899643 0)"/>
    <use xlink:href="#HelveticaNeue-20" transform="translate(2011.899628 0)"/>
    <use xlink:href="#HelveticaNeue-32" transform="translate(2039.699615 0)"/>
    <use xlink:href="#HelveticaNeue-37" transform="translate(2095.299606 0)"/>
    <use xlink:href="#HelveticaNeue-20" transform="translate(2150.899597 0)"/>
    <use xlink:href="#HelveticaNeue-32" transform="translate(2178.699585 0)"/>
    <use xlink:href="#HelveticaNeue-30" transform="translate(2234.299576 0)"/>
    <use xlink:href="#HelveticaNeue-32" transform="translate(2289.899567 0)"/>
    <use xlink:href="#HelveticaNeue-36" transform="translate(2345.499557 0)"/>
    <use xlink:href="#HelveticaNeue-20" transform="translate(2401.099548 0)"/>
    <use xlink:href="#HelveticaNeue-b7" transform="translate(2428.899536 0)"/>
    <use xlink:href="#HelveticaNeue-20" transform="translate(2456.699524 0)"/>
    <use xlink:href="#HelveticaNeue-72" transform="translate(2484.499512 0)"/>
    <use xlink:href="#HelveticaNeue-65" transform="translate(2516.0495 0)"/>
    <use xlink:href="#HelveticaNeue-70" transform="translate(2569.749496 0)"/>
    <use xlink:href="#HelveticaNeue-72" transform="translate(2629.049484 0)"/>
    <use xlink:href="#HelveticaNeue-6f" transform="translate(2660.599472 0)"/>
    <use xlink:href="#HelveticaNeue-64" transform="translate(2717.999466 0)"/>
    <use xlink:href="#HelveticaNeue-75" transform="translate(2777.299454 0)"/>
    <use xlink:href="#HelveticaNeue-63" transform="translate(2832.899445 0)"/>
    <use xlink:href="#HelveticaNeue-65" transform="translate(2886.599442 0)"/>
    <use xlink:href="#HelveticaNeue-64" transform="translate(2940.299438 0)"/>
   </g>
  </g>
 </g>
 <defs>
  <clipPath id="p42550de86c">
   <rect x="72.576" y="130.68" width="573.696" height="266.112"/>
  </clipPath>
 </defs>
</svg>
