<?xml version="1.0" encoding="utf-8" standalone="no"?>
<!DOCTYPE svg PUBLIC "-//W3C//DTD SVG 1.1//EN"
  "http://www.w3.org/Graphics/SVG/1.1/DTD/svg11.dtd">
<svg xmlns:xlink="http://www.w3.org/1999/xlink" width="691.2pt" height="475.2pt" viewBox="0 0 691.2 475.2" xmlns="http://www.w3.org/2000/svg" version="1.1">
 <metadata>
  <rdf:RDF xmlns:dc="http://purl.org/dc/elements/1.1/" xmlns:cc="http://creativecommons.org/ns#" xmlns:rdf="http://www.w3.org/1999/02/22-rdf-syntax-ns#">
   <cc:Work>
    <dc:type rdf:resource="http://purl.org/dc/dcmitype/StillImage"/>
    <dc:date>2026-06-05T17:42:21.062855</dc:date>
    <dc:format>image/svg+xml</dc:format>
    <dc:creator>
     <cc:Agent>
      <dc:title>Matplotlib v3.10.9, https://matplotlib.org/</dc:title>
     </cc:Agent>
    </dc:creator>
   </cc:Work>
  </rdf:RDF>
 </metadata>
 <defs>
  <style type="text/css">*{stroke-linejoin: round; stroke-linecap: butt}</style>
 </defs>
 <g id="figure_1">
  <g id="patch_1">
   <path d="M 0 475.2 
L 691.2 475.2 
L 691.2 0 
L 0 0 
z
" style="fill: #f5f6f8"/>
  </g>
  <g id="patch_2">
   <path d="M 39.3984 453.816 
L 662.1696 453.816 
Q 677.376 453.816 677.376 438.6096 
L 677.376 27.0864 
Q 677.376 11.88 662.1696 11.88 
L 39.3984 11.88 
Q 24.192 11.88 24.192 27.0864 
L 24.192 438.6096 
Q 24.192 453.816 39.3984 453.816 
z
" style="opacity: 0.05"/>
  </g>
  <g id="patch_3">
   <path d="M 35.9424 449.064 
L 658.7136 449.064 
Q 673.92 449.064 673.92 433.8576 
L 673.92 22.3344 
Q 673.92 7.128 658.7136 7.128 
L 35.9424 7.128 
Q 20.736 7.128 20.736 22.3344 
L 20.736 433.8576 
Q 20.736 449.064 35.9424 449.064 
z
" style="fill: #ffffff; stroke: #e9ecf1; stroke-linejoin: miter"/>
  </g>
  <g id="line2d_1">
   <path d="M 72.576 425.304 
L 646.272 425.304 
" style="fill: none; stroke: #e9ecf1; stroke-linecap: square"/>
  </g>
  <g id="axes_1">
   <g id="patch_4">
    <path d="M 72.576 396.792 
L 646.272 396.792 
L 646.272 130.68 
L 72.576 130.68 
L 72.576 396.792 
z
" style="fill: none; opacity: 0"/>
   </g>
   <g id="matplotlib.axis_1">
    <g id="xtick_1">
     <g id="line2d_2"/>
     <g id="text_1">
      <!-- May 12 -->
      <g style="fill: #1a1d21" transform="translate(88.913806 425.823416) rotate(-45) scale(0.09 -0.09)">
       <defs>
        <path id="HelveticaNeue-4d" d="M 512 4570 
L 512 0 
L 1088 0 
L 1088 3802 
L 1101 3802 
L 2528 0 
L 3046 0 
L 4474 3802 
L 4486 3802 
L 4486 0 
L 5062 0 
L 5062 4570 
L 4230 4570 
L 2784 730 
L 1344 4570 
L 512 4570 
z
" transform="scale(0.015625)"/>
        <path id="HelveticaNeue-61" d="M 3341 13 
Q 3200 -70 2950 -70 
Q 2739 -70 2614 48 
Q 2490 166 2490 435 
Q 2266 166 1968 48 
Q 1670 -70 1325 -70 
Q 1101 -70 899 -19 
Q 698 32 550 141 
Q 403 250 316 426 
Q 230 602 230 851 
Q 230 1133 326 1312 
Q 422 1491 579 1603 
Q 736 1715 937 1772 
Q 1139 1830 1350 1869 
Q 1574 1914 1776 1936 
Q 1978 1958 2131 2000 
Q 2285 2042 2374 2122 
Q 2464 2202 2464 2355 
Q 2464 2534 2397 2643 
Q 2330 2752 2224 2809 
Q 2118 2867 1987 2886 
Q 1856 2906 1728 2906 
Q 1382 2906 1152 2774 
Q 922 2643 902 2278 
L 358 2278 
Q 371 2586 486 2797 
Q 602 3008 794 3139 
Q 986 3270 1232 3328 
Q 1478 3386 1760 3386 
Q 1984 3386 2205 3354 
Q 2426 3322 2605 3222 
Q 2784 3123 2893 2944 
Q 3002 2765 3002 2477 
L 3002 774 
Q 3002 582 3024 492 
Q 3046 403 3174 403 
Q 3245 403 3341 435 
L 3341 13 
z
M 2458 1709 
Q 2355 1632 2188 1597 
Q 2022 1562 1840 1539 
Q 1658 1517 1472 1488 
Q 1286 1459 1139 1395 
Q 992 1331 899 1212 
Q 806 1094 806 890 
Q 806 755 860 662 
Q 915 570 1001 512 
Q 1088 454 1203 428 
Q 1318 403 1446 403 
Q 1715 403 1907 476 
Q 2099 550 2220 662 
Q 2342 774 2400 905 
Q 2458 1037 2458 1152 
L 2458 1709 
z
" transform="scale(0.015625)"/>
        <path id="HelveticaNeue-79" d="M 1709 -442 
Q 1613 -685 1520 -851 
Q 1427 -1018 1315 -1123 
Q 1203 -1229 1065 -1277 
Q 928 -1325 749 -1325 
Q 653 -1325 557 -1312 
Q 461 -1299 371 -1267 
L 371 -768 
Q 442 -800 534 -822 
Q 627 -845 691 -845 
Q 858 -845 970 -765 
Q 1082 -685 1139 -538 
L 1363 19 
L 51 3309 
L 666 3309 
L 1632 602 
L 1645 602 
L 2573 3309 
L 3149 3309 
L 1709 -442 
z
" transform="scale(0.015625)"/>
        <path id="HelveticaNeue-20" transform="scale(0.015625)"/>
        <path id="HelveticaNeue-31" d="M 2278 0 
L 2278 4538 
L 1862 4538 
Q 1818 4282 1696 4115 
Q 1574 3949 1398 3853 
Q 1222 3757 1004 3721 
Q 787 3686 557 3686 
L 557 3251 
L 1734 3251 
L 1734 0 
L 2278 0 
z
" transform="scale(0.015625)"/>
        <path id="HelveticaNeue-32" d="M 282 2931 
L 826 2931 
Q 819 3136 867 3337 
Q 915 3539 1024 3699 
Q 1133 3859 1302 3958 
Q 1472 4058 1709 4058 
Q 1888 4058 2048 4000 
Q 2208 3942 2326 3833 
Q 2445 3725 2515 3574 
Q 2586 3424 2586 3238 
Q 2586 3002 2512 2822 
Q 2438 2643 2294 2489 
Q 2150 2336 1932 2185 
Q 1715 2035 1427 1856 
Q 1190 1715 972 1555 
Q 755 1395 582 1184 
Q 410 973 298 688 
Q 186 403 154 0 
L 3117 0 
L 3117 480 
L 787 480 
Q 826 691 950 854 
Q 1075 1018 1251 1158 
Q 1427 1299 1638 1424 
Q 1850 1549 2061 1677 
Q 2272 1811 2470 1958 
Q 2669 2106 2822 2288 
Q 2976 2470 3069 2700 
Q 3162 2931 3162 3232 
Q 3162 3552 3050 3795 
Q 2938 4038 2746 4201 
Q 2554 4365 2294 4451 
Q 2035 4538 1741 4538 
Q 1382 4538 1100 4416 
Q 819 4294 630 4080 
Q 442 3866 352 3571 
Q 262 3277 282 2931 
z
" transform="scale(0.015625)"/>
       </defs>
       <use xlink:href="#HelveticaNeue-4d"/>
       <use xlink:href="#HelveticaNeue-61" transform="translate(87.099991 0)"/>
       <use xlink:href="#HelveticaNeue-79" transform="translate(140.799988 0)"/>
       <use xlink:href="#HelveticaNeue-20" transform="translate(190.799973 0)"/>
       <use xlink:href="#HelveticaNeue-31" transform="translate(218.59996 0)"/>
       <use xlink:href="#HelveticaNeue-32" transform="translate(274.199951 0)"/>
      </g>
     </g>
    </g>
    <g id="xtick_2">
     <g id="line2d_3"/>
     <g id="text_2">
      <!-- May 13 -->
      <g style="fill: #1a1d21" transform="translate(119.939494 425.823416) rotate(-45) scale(0.09 -0.09)">
       <defs>
        <path id="HelveticaNeue-33" d="M 1395 2592 
L 1395 2131 
Q 1549 2150 1722 2150 
Q 1926 2150 2102 2096 
Q 2278 2042 2406 1930 
Q 2534 1818 2611 1654 
Q 2688 1491 2688 1280 
Q 2688 1075 2608 912 
Q 2528 749 2393 637 
Q 2259 525 2080 464 
Q 1901 403 1702 403 
Q 1235 403 992 681 
Q 749 960 736 1402 
L 192 1402 
Q 186 1050 291 774 
Q 397 499 595 310 
Q 794 122 1075 26 
Q 1357 -70 1702 -70 
Q 2022 -70 2307 16 
Q 2592 102 2803 275 
Q 3014 448 3139 707 
Q 3264 966 3264 1306 
Q 3264 1715 3062 2016 
Q 2861 2317 2445 2406 
L 2445 2419 
Q 2714 2541 2893 2777 
Q 3072 3014 3072 3322 
Q 3072 3635 2966 3865 
Q 2861 4096 2675 4243 
Q 2490 4390 2237 4464 
Q 1984 4538 1690 4538 
Q 1350 4538 1091 4429 
Q 832 4320 659 4128 
Q 486 3936 393 3667 
Q 301 3398 288 3072 
L 832 3072 
Q 832 3270 883 3449 
Q 934 3629 1040 3763 
Q 1146 3898 1309 3978 
Q 1472 4058 1690 4058 
Q 2035 4058 2265 3875 
Q 2496 3693 2496 3328 
Q 2496 3149 2425 3008 
Q 2355 2867 2236 2774 
Q 2118 2682 1961 2634 
Q 1805 2586 1632 2586 
L 1517 2586 
Q 1485 2586 1453 2586 
Q 1427 2586 1395 2592 
z
" transform="scale(0.015625)"/>
       </defs>
       <use xlink:href="#HelveticaNeue-4d"/>
       <use xlink:href="#HelveticaNeue-61" transform="translate(87.099991 0)"/>
       <use xlink:href="#HelveticaNeue-79" transform="translate(140.799988 0)"/>
       <use xlink:href="#HelveticaNeue-20" transform="translate(190.799973 0)"/>
       <use xlink:href="#HelveticaNeue-31" transform="translate(218.59996 0)"/>
       <use xlink:href="#HelveticaNeue-33" transform="translate(274.199951 0)"/>
      </g>
     </g>
    </g>
    <g id="xtick_3">
     <g id="line2d_4"/>
     <g id="text_3">
      <!-- May 14 -->
      <g style="fill: #1a1d21" transform="translate(150.965182 425.823416) rotate(-45) scale(0.09 -0.09)">
       <defs>
        <path id="HelveticaNeue-34" d="M 2170 1542 
L 646 1542 
L 2157 3763 
L 2170 3763 
L 2170 1542 
z
M 2682 1542 
L 2682 4538 
L 2246 4538 
L 179 1587 
L 179 1062 
L 2170 1062 
L 2170 0 
L 2682 0 
L 2682 1062 
L 3296 1062 
L 3296 1542 
L 2682 1542 
z
" transform="scale(0.015625)"/>
       </defs>
       <use xlink:href="#HelveticaNeue-4d"/>
       <use xlink:href="#HelveticaNeue-61" transform="translate(87.099991 0)"/>
       <use xlink:href="#HelveticaNeue-79" transform="translate(140.799988 0)"/>
       <use xlink:href="#HelveticaNeue-20" transform="translate(190.799973 0)"/>
       <use xlink:href="#HelveticaNeue-31" transform="translate(218.59996 0)"/>
       <use xlink:href="#HelveticaNeue-34" transform="translate(274.199951 0)"/>
      </g>
     </g>
    </g>
    <g id="xtick_4">
     <g id="line2d_5"/>
     <g id="text_4">
      <!-- May 15 -->
      <g style="fill: #1a1d21" transform="translate(181.99087 425.823416) rotate(-45) scale(0.09 -0.09)">
       <defs>
        <path id="HelveticaNeue-35" d="M 3008 3981 
L 3008 4461 
L 768 4461 
L 346 2106 
L 813 2080 
Q 973 2272 1181 2390 
Q 1389 2509 1658 2509 
Q 1888 2509 2077 2432 
Q 2266 2355 2400 2217 
Q 2534 2080 2608 1891 
Q 2682 1702 2682 1478 
Q 2682 1210 2605 1008 
Q 2528 806 2397 672 
Q 2266 538 2090 470 
Q 1914 403 1722 403 
Q 1517 403 1347 464 
Q 1178 525 1053 637 
Q 928 749 854 899 
Q 781 1050 768 1222 
L 224 1222 
Q 230 915 345 672 
Q 461 429 659 265 
Q 858 102 1117 16 
Q 1376 -70 1670 -70 
Q 2067 -70 2364 54 
Q 2662 179 2860 390 
Q 3059 602 3158 874 
Q 3258 1146 3258 1434 
Q 3258 1824 3142 2115 
Q 3027 2406 2828 2601 
Q 2630 2797 2361 2893 
Q 2093 2989 1792 2989 
Q 1562 2989 1328 2909 
Q 1094 2829 947 2662 
L 934 2675 
L 1178 3981 
L 3008 3981 
z
" transform="scale(0.015625)"/>
       </defs>
       <use xlink:href="#HelveticaNeue-4d"/>
       <use xlink:href="#HelveticaNeue-61" transform="translate(87.099991 0)"/>
       <use xlink:href="#HelveticaNeue-79" transform="translate(140.799988 0)"/>
       <use xlink:href="#HelveticaNeue-20" transform="translate(190.799973 0)"/>
       <use xlink:href="#HelveticaNeue-31" transform="translate(218.59996 0)"/>
       <use xlink:href="#HelveticaNeue-35" transform="translate(274.199951 0)"/>
      </g>
     </g>
    </g>
    <g id="xtick_5">
     <g id="line2d_6"/>
     <g id="text_5">
      <!-- May 18 -->
      <g style="fill: #1a1d21" transform="translate(213.016558 425.823416) rotate(-45) scale(0.09 -0.09)">
       <defs>
        <path id="HelveticaNeue-38" d="M 992 3360 
Q 992 3533 1056 3661 
Q 1120 3789 1225 3878 
Q 1331 3968 1478 4013 
Q 1626 4058 1786 4058 
Q 2118 4058 2332 3882 
Q 2547 3706 2547 3360 
Q 2547 3014 2336 2822 
Q 2125 2630 1798 2630 
Q 1632 2630 1485 2675 
Q 1338 2720 1229 2809 
Q 1120 2899 1056 3036 
Q 992 3174 992 3360 
z
M 416 3379 
Q 416 3072 589 2813 
Q 762 2554 1050 2438 
Q 666 2304 461 2006 
Q 256 1709 256 1306 
Q 256 960 374 701 
Q 493 442 701 269 
Q 909 96 1190 13 
Q 1472 -70 1798 -70 
Q 2112 -70 2387 19 
Q 2662 109 2864 285 
Q 3066 461 3184 717 
Q 3302 973 3302 1306 
Q 3302 1728 3104 2019 
Q 2906 2310 2496 2438 
Q 2784 2566 2953 2819 
Q 3123 3072 3123 3379 
Q 3123 3597 3046 3805 
Q 2970 4013 2806 4176 
Q 2643 4339 2380 4438 
Q 2118 4538 1747 4538 
Q 1485 4538 1245 4461 
Q 1005 4384 819 4237 
Q 634 4090 525 3875 
Q 416 3661 416 3379 
z
M 832 1280 
Q 832 1478 905 1638 
Q 979 1798 1110 1913 
Q 1242 2029 1418 2089 
Q 1594 2150 1792 2150 
Q 1984 2150 2153 2083 
Q 2323 2016 2451 1901 
Q 2579 1786 2652 1629 
Q 2726 1472 2726 1286 
Q 2726 1094 2659 934 
Q 2592 774 2467 656 
Q 2342 538 2172 470 
Q 2003 403 1798 403 
Q 1376 403 1104 636 
Q 832 870 832 1280 
z
" transform="scale(0.015625)"/>
       </defs>
       <use xlink:href="#HelveticaNeue-4d"/>
       <use xlink:href="#HelveticaNeue-61" transform="translate(87.099991 0)"/>
       <use xlink:href="#HelveticaNeue-79" transform="translate(140.799988 0)"/>
       <use xlink:href="#HelveticaNeue-20" transform="translate(190.799973 0)"/>
       <use xlink:href="#HelveticaNeue-31" transform="translate(218.59996 0)"/>
       <use xlink:href="#HelveticaNeue-38" transform="translate(274.199951 0)"/>
      </g>
     </g>
    </g>
    <g id="xtick_6">
     <g id="line2d_7"/>
     <g id="text_6">
      <!-- May 19 -->
      <g style="fill: #1a1d21" transform="translate(244.042246 425.823416) rotate(-45) scale(0.09 -0.09)">
       <defs>
        <path id="HelveticaNeue-39" d="M 858 1094 
L 314 1094 
Q 365 506 742 218 
Q 1120 -70 1690 -70 
Q 2515 -70 2889 560 
Q 3264 1190 3264 2368 
Q 3264 3014 3139 3433 
Q 3014 3853 2803 4096 
Q 2592 4339 2310 4438 
Q 2029 4538 1709 4538 
Q 1382 4538 1107 4429 
Q 832 4320 633 4125 
Q 435 3930 326 3658 
Q 218 3386 218 3059 
Q 218 2726 310 2444 
Q 403 2163 585 1964 
Q 768 1766 1037 1654 
Q 1306 1542 1651 1542 
Q 1984 1542 2265 1712 
Q 2547 1882 2701 2170 
L 2714 2157 
Q 2688 1267 2438 835 
Q 2189 403 1690 403 
Q 1363 403 1126 582 
Q 890 762 858 1094 
z
M 2618 3021 
Q 2618 2822 2554 2640 
Q 2490 2458 2368 2320 
Q 2246 2182 2073 2102 
Q 1901 2022 1690 2022 
Q 1491 2022 1328 2102 
Q 1165 2182 1046 2316 
Q 928 2451 861 2624 
Q 794 2797 794 2982 
Q 794 3194 842 3386 
Q 890 3578 995 3728 
Q 1101 3878 1270 3968 
Q 1440 4058 1683 4058 
Q 1914 4058 2086 3974 
Q 2259 3891 2377 3747 
Q 2496 3603 2557 3417 
Q 2618 3232 2618 3021 
z
" transform="scale(0.015625)"/>
       </defs>
       <use xlink:href="#HelveticaNeue-4d"/>
       <use xlink:href="#HelveticaNeue-61" transform="translate(87.099991 0)"/>
       <use xlink:href="#HelveticaNeue-79" transform="translate(140.799988 0)"/>
       <use xlink:href="#HelveticaNeue-20" transform="translate(190.799973 0)"/>
       <use xlink:href="#HelveticaNeue-31" transform="translate(218.59996 0)"/>
       <use xlink:href="#HelveticaNeue-39" transform="translate(274.199951 0)"/>
      </g>
     </g>
    </g>
    <g id="xtick_7">
     <g id="line2d_8"/>
     <g id="text_7">
      <!-- May 20 -->
      <g style="fill: #1a1d21" transform="translate(275.067935 425.823416) rotate(-45) scale(0.09 -0.09)">
       <defs>
        <path id="HelveticaNeue-30" d="M 845 2234 
Q 845 2400 848 2601 
Q 851 2803 880 3004 
Q 909 3206 963 3398 
Q 1018 3590 1123 3734 
Q 1229 3878 1389 3968 
Q 1549 4058 1779 4058 
Q 2010 4058 2170 3968 
Q 2330 3878 2435 3734 
Q 2541 3590 2595 3398 
Q 2650 3206 2678 3004 
Q 2707 2803 2710 2601 
Q 2714 2400 2714 2234 
Q 2714 1978 2698 1661 
Q 2682 1344 2595 1065 
Q 2509 787 2317 595 
Q 2125 403 1779 403 
Q 1434 403 1242 595 
Q 1050 787 963 1065 
Q 877 1344 861 1661 
Q 845 1978 845 2234 
z
M 269 2227 
Q 269 1978 281 1709 
Q 294 1440 345 1184 
Q 397 928 493 701 
Q 589 474 755 301 
Q 922 128 1174 29 
Q 1427 -70 1779 -70 
Q 2138 -70 2387 29 
Q 2637 128 2803 301 
Q 2970 474 3066 701 
Q 3162 928 3213 1184 
Q 3264 1440 3277 1709 
Q 3290 1978 3290 2227 
Q 3290 2477 3277 2745 
Q 3264 3014 3213 3270 
Q 3162 3526 3066 3756 
Q 2970 3987 2803 4160 
Q 2637 4333 2384 4435 
Q 2131 4538 1779 4538 
Q 1427 4538 1174 4435 
Q 922 4333 755 4160 
Q 589 3987 493 3756 
Q 397 3526 345 3270 
Q 294 3014 281 2745 
Q 269 2477 269 2227 
z
" transform="scale(0.015625)"/>
       </defs>
       <use xlink:href="#HelveticaNeue-4d"/>
       <use xlink:href="#HelveticaNeue-61" transform="translate(87.099991 0)"/>
       <use xlink:href="#HelveticaNeue-79" transform="translate(140.799988 0)"/>
       <use xlink:href="#HelveticaNeue-20" transform="translate(190.799973 0)"/>
       <use xlink:href="#HelveticaNeue-32" transform="translate(218.59996 0)"/>
       <use xlink:href="#HelveticaNeue-30" transform="translate(274.199951 0)"/>
      </g>
     </g>
    </g>
    <g id="xtick_8">
     <g id="line2d_9"/>
     <g id="text_8">
      <!-- May 21 -->
      <g style="fill: #1a1d21" transform="translate(306.093623 425.823416) rotate(-45) scale(0.09 -0.09)">
       <use xlink:href="#HelveticaNeue-4d"/>
       <use xlink:href="#HelveticaNeue-61" transform="translate(87.099991 0)"/>
       <use xlink:href="#HelveticaNeue-79" transform="translate(140.799988 0)"/>
       <use xlink:href="#HelveticaNeue-20" transform="translate(190.799973 0)"/>
       <use xlink:href="#HelveticaNeue-32" transform="translate(218.59996 0)"/>
       <use xlink:href="#HelveticaNeue-31" transform="translate(274.199951 0)"/>
      </g>
     </g>
    </g>
    <g id="xtick_9">
     <g id="line2d_10"/>
     <g id="text_9">
      <!-- May 22 -->
      <g style="fill: #1a1d21" transform="translate(337.119311 425.823416) rotate(-45) scale(0.09 -0.09)">
       <use xlink:href="#HelveticaNeue-4d"/>
       <use xlink:href="#HelveticaNeue-61" transform="translate(87.099991 0)"/>
       <use xlink:href="#HelveticaNeue-79" transform="translate(140.799988 0)"/>
       <use xlink:href="#HelveticaNeue-20" transform="translate(190.799973 0)"/>
       <use xlink:href="#HelveticaNeue-32" transform="translate(218.59996 0)"/>
       <use xlink:href="#HelveticaNeue-32" transform="translate(274.199951 0)"/>
      </g>
     </g>
    </g>
    <g id="xtick_10">
     <g id="line2d_11"/>
     <g id="text_10">
      <!-- May 26 -->
      <g style="fill: #1a1d21" transform="translate(368.144999 425.823416) rotate(-45) scale(0.09 -0.09)">
       <defs>
        <path id="HelveticaNeue-36" d="M 2650 3379 
L 3194 3379 
Q 3142 3942 2809 4240 
Q 2477 4538 1914 4538 
Q 1427 4538 1107 4333 
Q 787 4128 595 3789 
Q 403 3450 323 3011 
Q 243 2573 243 2106 
Q 243 1747 297 1363 
Q 352 979 518 659 
Q 685 339 992 134 
Q 1299 -70 1805 -70 
Q 2234 -70 2525 74 
Q 2816 218 2992 438 
Q 3168 659 3245 928 
Q 3322 1197 3322 1446 
Q 3322 1760 3226 2029 
Q 3130 2298 2954 2496 
Q 2778 2694 2518 2806 
Q 2259 2918 1933 2918 
Q 1562 2918 1277 2777 
Q 992 2637 800 2323 
L 787 2336 
Q 794 2598 838 2899 
Q 883 3200 1001 3459 
Q 1120 3718 1331 3888 
Q 1542 4058 1888 4058 
Q 2214 4058 2412 3872 
Q 2611 3686 2650 3379 
z
M 1830 2438 
Q 2061 2438 2233 2355 
Q 2406 2272 2521 2134 
Q 2637 1997 2691 1808 
Q 2746 1619 2746 1408 
Q 2746 1210 2685 1027 
Q 2624 845 2509 704 
Q 2394 563 2224 483 
Q 2054 403 1830 403 
Q 1606 403 1430 483 
Q 1254 563 1136 697 
Q 1018 832 954 1017 
Q 890 1203 890 1414 
Q 890 1626 950 1814 
Q 1011 2003 1132 2140 
Q 1254 2278 1427 2358 
Q 1600 2438 1830 2438 
z
" transform="scale(0.015625)"/>
       </defs>
       <use xlink:href="#HelveticaNeue-4d"/>
       <use xlink:href="#HelveticaNeue-61" transform="translate(87.099991 0)"/>
       <use xlink:href="#HelveticaNeue-79" transform="translate(140.799988 0)"/>
       <use xlink:href="#HelveticaNeue-20" transform="translate(190.799973 0)"/>
       <use xlink:href="#HelveticaNeue-32" transform="translate(218.59996 0)"/>
       <use xlink:href="#HelveticaNeue-36" transform="translate(274.199951 0)"/>
      </g>
     </g>
    </g>
    <g id="xtick_11">
     <g id="line2d_12"/>
     <g id="text_11">
      <!-- May 27 -->
      <g style="fill: #1a1d21" transform="translate(399.170687 425.823416) rotate(-45) scale(0.09 -0.09)">
       <defs>
        <path id="HelveticaNeue-37" d="M 3258 3994 
L 3258 4461 
L 320 4461 
L 320 3949 
L 2701 3949 
Q 2342 3571 2032 3123 
Q 1722 2675 1485 2172 
Q 1248 1670 1097 1123 
Q 947 576 909 0 
L 1517 0 
Q 1549 531 1696 1094 
Q 1843 1658 2076 2189 
Q 2310 2720 2611 3187 
Q 2912 3654 3258 3994 
z
" transform="scale(0.015625)"/>
       </defs>
       <use xlink:href="#HelveticaNeue-4d"/>
       <use xlink:href="#HelveticaNeue-61" transform="translate(87.099991 0)"/>
       <use xlink:href="#HelveticaNeue-79" transform="translate(140.799988 0)"/>
       <use xlink:href="#HelveticaNeue-20" transform="translate(190.799973 0)"/>
       <use xlink:href="#HelveticaNeue-32" transform="translate(218.59996 0)"/>
       <use xlink:href="#HelveticaNeue-37" transform="translate(274.199951 0)"/>
      </g>
     </g>
    </g>
    <g id="xtick_12">
     <g id="line2d_13"/>
     <g id="text_12">
      <!-- May 28 -->
      <g style="fill: #1a1d21" transform="translate(430.196375 425.823416) rotate(-45) scale(0.09 -0.09)">
       <use xlink:href="#HelveticaNeue-4d"/>
       <use xlink:href="#HelveticaNeue-61" transform="translate(87.099991 0)"/>
       <use xlink:href="#HelveticaNeue-79" transform="translate(140.799988 0)"/>
       <use xlink:href="#HelveticaNeue-20" transform="translate(190.799973 0)"/>
       <use xlink:href="#HelveticaNeue-32" transform="translate(218.59996 0)"/>
       <use xlink:href="#HelveticaNeue-38" transform="translate(274.199951 0)"/>
      </g>
     </g>
    </g>
    <g id="xtick_13">
     <g id="line2d_14"/>
     <g id="text_13">
      <!-- May 29 -->
      <g style="fill: #1a1d21" transform="translate(461.222064 425.823416) rotate(-45) scale(0.09 -0.09)">
       <use xlink:href="#HelveticaNeue-4d"/>
       <use xlink:href="#HelveticaNeue-61" transform="translate(87.099991 0)"/>
       <use xlink:href="#HelveticaNeue-79" transform="translate(140.799988 0)"/>
       <use xlink:href="#HelveticaNeue-20" transform="translate(190.799973 0)"/>
       <use xlink:href="#HelveticaNeue-32" transform="translate(218.59996 0)"/>
       <use xlink:href="#HelveticaNeue-39" transform="translate(274.199951 0)"/>
      </g>
     </g>
    </g>
    <g id="xtick_14">
     <g id="line2d_15"/>
     <g id="text_14">
      <!-- Jun 1 -->
      <g style="fill: #1a1d21" transform="translate(497.612372 420.522435) rotate(-45) scale(0.09 -0.09)">
       <defs>
        <path id="HelveticaNeue-4a" d="M 2822 1139 
L 2822 4570 
L 2214 4570 
L 2214 1229 
Q 2214 851 2057 627 
Q 1901 403 1485 403 
Q 1261 403 1117 470 
Q 973 538 893 659 
Q 813 781 781 947 
Q 749 1114 749 1312 
L 749 1504 
L 141 1504 
L 141 1222 
Q 141 570 486 234 
Q 832 -102 1472 -102 
Q 1856 -102 2115 3 
Q 2374 109 2531 285 
Q 2688 461 2755 685 
Q 2822 909 2822 1139 
z
" transform="scale(0.015625)"/>
        <path id="HelveticaNeue-75" d="M 3149 0 
L 3149 3309 
L 2605 3309 
L 2605 1440 
Q 2605 1216 2544 1027 
Q 2483 838 2361 697 
Q 2240 557 2057 480 
Q 1875 403 1626 403 
Q 1312 403 1133 582 
Q 954 762 954 1069 
L 954 3309 
L 410 3309 
L 410 1133 
Q 410 864 464 643 
Q 518 422 652 262 
Q 787 102 1004 16 
Q 1222 -70 1549 -70 
Q 1914 -70 2182 74 
Q 2451 218 2624 525 
L 2637 525 
L 2637 0 
L 3149 0 
z
" transform="scale(0.015625)"/>
        <path id="HelveticaNeue-6e" d="M 410 3309 
L 410 0 
L 954 0 
L 954 1869 
Q 954 2093 1014 2281 
Q 1075 2470 1196 2611 
Q 1318 2752 1500 2829 
Q 1683 2906 1933 2906 
Q 2246 2906 2425 2726 
Q 2605 2547 2605 2240 
L 2605 0 
L 3149 0 
L 3149 2176 
Q 3149 2445 3094 2665 
Q 3040 2886 2905 3046 
Q 2771 3206 2553 3296 
Q 2336 3386 2010 3386 
Q 1274 3386 934 2784 
L 922 2784 
L 922 3309 
L 410 3309 
z
" transform="scale(0.015625)"/>
       </defs>
       <use xlink:href="#HelveticaNeue-4a"/>
       <use xlink:href="#HelveticaNeue-75" transform="translate(51.899994 0)"/>
       <use xlink:href="#HelveticaNeue-6e" transform="translate(107.499985 0)"/>
       <use xlink:href="#HelveticaNeue-20" transform="translate(163.099976 0)"/>
       <use xlink:href="#HelveticaNeue-31" transform="translate(190.899963 0)"/>
      </g>
     </g>
    </g>
    <g id="xtick_15">
     <g id="line2d_16"/>
     <g id="text_15">
      <!-- Jun 2 -->
      <g style="fill: #1a1d21" transform="translate(528.63806 420.522435) rotate(-45) scale(0.09 -0.09)">
       <use xlink:href="#HelveticaNeue-4a"/>
       <use xlink:href="#HelveticaNeue-75" transform="translate(51.899994 0)"/>
       <use xlink:href="#HelveticaNeue-6e" transform="translate(107.499985 0)"/>
       <use xlink:href="#HelveticaNeue-20" transform="translate(163.099976 0)"/>
       <use xlink:href="#HelveticaNeue-32" transform="translate(190.899963 0)"/>
      </g>
     </g>
    </g>
    <g id="xtick_16">
     <g id="line2d_17"/>
     <g id="text_16">
      <!-- Jun 3 -->
      <g style="fill: #1a1d21" transform="translate(559.663748 420.522435) rotate(-45) scale(0.09 -0.09)">
       <use xlink:href="#HelveticaNeue-4a"/>
       <use xlink:href="#HelveticaNeue-75" transform="translate(51.899994 0)"/>
       <use xlink:href="#HelveticaNeue-6e" transform="translate(107.499985 0)"/>
       <use xlink:href="#HelveticaNeue-20" transform="translate(163.099976 0)"/>
       <use xlink:href="#HelveticaNeue-33" transform="translate(190.899963 0)"/>
      </g>
     </g>
    </g>
    <g id="xtick_17">
     <g id="line2d_18"/>
     <g id="text_17">
      <!-- Jun 4 -->
      <g style="fill: #1a1d21" transform="translate(590.689437 420.522435) rotate(-45) scale(0.09 -0.09)">
       <use xlink:href="#HelveticaNeue-4a"/>
       <use xlink:href="#HelveticaNeue-75" transform="translate(51.899994 0)"/>
       <use xlink:href="#HelveticaNeue-6e" transform="translate(107.499985 0)"/>
       <use xlink:href="#HelveticaNeue-20" transform="translate(163.099976 0)"/>
       <use xlink:href="#HelveticaNeue-34" transform="translate(190.899963 0)"/>
      </g>
     </g>
    </g>
   </g>
   <g id="matplotlib.axis_2">
    <g id="ytick_1">
     <g id="line2d_19">
      <path d="M 72.576 396.792 
L 646.272 396.792 
" clip-path="url(#p14085e1d2e)" style="fill: none; stroke: #e9ecf1; stroke-linecap: square"/>
     </g>
     <g id="line2d_20"/>
     <g id="text_18">
      <!-- $0M -->
      <g style="fill: #5b6470" transform="translate(49.208969 400.986609) scale(0.11 -0.11)">
       <defs>
        <path id="Menlo-Regular-24" d="M 2163 1813 
L 2163 456 
Q 2506 466 2700 647 
Q 2894 828 2894 1141 
Q 2894 1431 2719 1592 
Q 2544 1753 2163 1813 
z
M 1850 2406 
L 1850 3697 
Q 1525 3684 1342 3509 
Q 1159 3334 1159 3041 
Q 1159 2772 1329 2615 
Q 1500 2459 1850 2406 
z
M 2163 -941 
L 1850 -941 
L 1847 0 
Q 1528 16 1214 87 
Q 900 159 594 288 
L 594 850 
Q 906 656 1223 553 
Q 1541 450 1850 444 
L 1850 1875 
Q 1225 1972 909 2256 
Q 594 2541 594 3009 
Q 594 3500 923 3792 
Q 1253 4084 1850 4128 
L 1850 4863 
L 2163 4863 
L 2166 4128 
Q 2413 4113 2666 4066 
Q 2919 4019 3181 3938 
L 3181 3397 
Q 2916 3531 2664 3604 
Q 2413 3678 2163 3691 
L 2163 2344 
Q 2806 2247 3143 1944 
Q 3481 1641 3481 1159 
Q 3481 678 3117 356 
Q 2753 34 2166 6 
L 2163 -941 
z
" transform="scale(0.015625)"/>
        <path id="Menlo-Regular-30" d="M 1925 4734 
Q 2672 4734 3055 4125 
Q 3438 3516 3438 2322 
Q 3438 1128 3055 518 
Q 2672 -91 1925 -91 
Q 1178 -91 797 518 
Q 416 1128 416 2322 
Q 416 3516 797 4125 
Q 1178 4734 1925 4734 
z
M 1925 409 
Q 2369 409 2586 881 
Q 2803 1353 2803 2322 
Q 2803 2838 2741 3253 
L 1253 925 
Q 1488 409 1925 409 
z
M 1925 4234 
Q 1484 4234 1267 3762 
Q 1050 3291 1050 2322 
Q 1050 1881 1109 1497 
L 2566 3819 
Q 2328 4234 1925 4234 
z
" transform="scale(0.015625)"/>
        <path id="Menlo-Regular-4d" d="M 113 4650 
L 956 4650 
L 1763 2281 
L 2575 4650 
L 3422 4650 
L 3422 0 
L 2838 0 
L 2838 4109 
L 2006 1659 
L 1528 1659 
L 694 4109 
L 694 0 
L 113 0 
L 113 4650 
z
" transform="scale(0.015625)"/>
       </defs>
       <use xlink:href="#Menlo-Regular-24"/>
       <use xlink:href="#Menlo-Regular-30" transform="translate(60.205078 0)"/>
       <use xlink:href="#Menlo-Regular-4d" transform="translate(120.410156 0)"/>
      </g>
     </g>
    </g>
    <g id="ytick_2">
     <g id="line2d_21">
      <path d="M 72.576 345.769682 
L 646.272 345.769682 
" clip-path="url(#p14085e1d2e)" style="fill: none; stroke: #e9ecf1; stroke-linecap: square"/>
     </g>
     <g id="line2d_22"/>
     <g id="text_19">
      <!-- $5M -->
      <g style="fill: #5b6470" transform="translate(49.208969 349.964292) scale(0.11 -0.11)">
       <defs>
        <path id="Menlo-Regular-35" d="M 647 4666 
L 3009 4666 
L 3009 4134 
L 1222 4134 
L 1222 2988 
Q 1356 3038 1492 3061 
Q 1628 3084 1766 3084 
Q 2491 3084 2916 2656 
Q 3341 2228 3341 1497 
Q 3341 759 2895 334 
Q 2450 -91 1678 -91 
Q 1306 -91 998 -41 
Q 691 9 447 109 
L 447 750 
Q 734 594 1025 517 
Q 1316 441 1619 441 
Q 2141 441 2423 716 
Q 2706 991 2706 1497 
Q 2706 1997 2414 2275 
Q 2122 2553 1600 2553 
Q 1347 2553 1106 2495 
Q 866 2438 647 2322 
L 647 4666 
z
" transform="scale(0.015625)"/>
       </defs>
       <use xlink:href="#Menlo-Regular-24"/>
       <use xlink:href="#Menlo-Regular-35" transform="translate(60.205078 0)"/>
       <use xlink:href="#Menlo-Regular-4d" transform="translate(120.410156 0)"/>
      </g>
     </g>
    </g>
    <g id="ytick_3">
     <g id="line2d_23">
      <path d="M 72.576 294.747365 
L 646.272 294.747365 
" clip-path="url(#p14085e1d2e)" style="fill: none; stroke: #e9ecf1; stroke-linecap: square"/>
     </g>
     <g id="line2d_24"/>
     <g id="text_20">
      <!-- $10M -->
      <g style="fill: #5b6470" transform="translate(42.586625 298.941974) scale(0.11 -0.11)">
       <defs>
        <path id="Menlo-Regular-31" d="M 844 528 
L 1825 528 
L 1825 4053 
L 650 3488 
L 650 4094 
L 1819 4650 
L 2450 4650 
L 2450 528 
L 3419 528 
L 3419 0 
L 844 0 
L 844 528 
z
" transform="scale(0.015625)"/>
       </defs>
       <use xlink:href="#Menlo-Regular-24"/>
       <use xlink:href="#Menlo-Regular-31" transform="translate(60.205078 0)"/>
       <use xlink:href="#Menlo-Regular-30" transform="translate(120.410156 0)"/>
       <use xlink:href="#Menlo-Regular-4d" transform="translate(180.615234 0)"/>
      </g>
     </g>
    </g>
    <g id="ytick_4">
     <g id="line2d_25">
      <path d="M 72.576 243.725047 
L 646.272 243.725047 
" clip-path="url(#p14085e1d2e)" style="fill: none; stroke: #e9ecf1; stroke-linecap: square"/>
     </g>
     <g id="line2d_26"/>
     <g id="text_21">
      <!-- $15M -->
      <g style="fill: #5b6470" transform="translate(42.586625 247.919656) scale(0.11 -0.11)">
       <use xlink:href="#Menlo-Regular-24"/>
       <use xlink:href="#Menlo-Regular-31" transform="translate(60.205078 0)"/>
       <use xlink:href="#Menlo-Regular-35" transform="translate(120.410156 0)"/>
       <use xlink:href="#Menlo-Regular-4d" transform="translate(180.615234 0)"/>
      </g>
     </g>
    </g>
    <g id="ytick_5">
     <g id="line2d_27">
      <path d="M 72.576 192.702729 
L 646.272 192.702729 
" clip-path="url(#p14085e1d2e)" style="fill: none; stroke: #e9ecf1; stroke-linecap: square"/>
     </g>
     <g id="line2d_28"/>
     <g id="text_22">
      <!-- $20M -->
      <g style="fill: #5b6470" transform="translate(42.586625 196.897339) scale(0.11 -0.11)">
       <defs>
        <path id="Menlo-Regular-32" d="M 1166 531 
L 3309 531 
L 3309 0 
L 475 0 
L 475 531 
Q 1059 1147 1496 1619 
Q 1934 2091 2100 2284 
Q 2413 2666 2522 2902 
Q 2631 3138 2631 3384 
Q 2631 3775 2401 3997 
Q 2172 4219 1772 4219 
Q 1488 4219 1175 4116 
Q 863 4013 513 3803 
L 513 4441 
Q 834 4594 1145 4672 
Q 1456 4750 1759 4750 
Q 2444 4750 2861 4386 
Q 3278 4022 3278 3431 
Q 3278 3131 3139 2831 
Q 3000 2531 2688 2169 
Q 2513 1966 2180 1606 
Q 1847 1247 1166 531 
z
" transform="scale(0.015625)"/>
       </defs>
       <use xlink:href="#Menlo-Regular-24"/>
       <use xlink:href="#Menlo-Regular-32" transform="translate(60.205078 0)"/>
       <use xlink:href="#Menlo-Regular-30" transform="translate(120.410156 0)"/>
       <use xlink:href="#Menlo-Regular-4d" transform="translate(180.615234 0)"/>
      </g>
     </g>
    </g>
    <g id="ytick_6">
     <g id="line2d_29">
      <path d="M 72.576 141.680412 
L 646.272 141.680412 
" clip-path="url(#p14085e1d2e)" style="fill: none; stroke: #e9ecf1; stroke-linecap: square"/>
     </g>
     <g id="line2d_30"/>
     <g id="text_23">
      <!-- $25M -->
      <g style="fill: #5b6470" transform="translate(42.586625 145.875021) scale(0.11 -0.11)">
       <use xlink:href="#Menlo-Regular-24"/>
       <use xlink:href="#Menlo-Regular-32" transform="translate(60.205078 0)"/>
       <use xlink:href="#Menlo-Regular-35" transform="translate(120.410156 0)"/>
       <use xlink:href="#Menlo-Regular-4d" transform="translate(180.615234 0)"/>
      </g>
     </g>
    </g>
   </g>
   <g id="patch_5">
    <path d="M 98.653091 396.792 
L 107.030027 396.792 
L 107.030027 396.792 
L 98.653091 396.792 
z
" clip-path="url(#p14085e1d2e)" style="fill: #11a37f"/>
   </g>
   <g id="patch_6">
    <path d="M 129.678779 396.792 
L 138.055715 396.792 
L 138.055715 396.792 
L 129.678779 396.792 
z
" clip-path="url(#p14085e1d2e)" style="fill: #11a37f"/>
   </g>
   <g id="patch_7">
    <path d="M 160.704467 396.792 
L 169.081403 396.792 
L 169.081403 389.648876 
L 160.704467 389.648876 
z
" clip-path="url(#p14085e1d2e)" style="fill: #11a37f"/>
   </g>
   <g id="patch_8">
    <path d="M 191.730155 396.792 
L 200.107091 396.792 
L 200.107091 383.526197 
L 191.730155 383.526197 
z
" clip-path="url(#p14085e1d2e)" style="fill: #11a37f"/>
   </g>
   <g id="patch_9">
    <path d="M 222.755844 396.792 
L 231.132779 396.792 
L 231.132779 376.383073 
L 222.755844 376.383073 
z
" clip-path="url(#p14085e1d2e)" style="fill: #11a37f"/>
   </g>
   <g id="patch_10">
    <path d="M 253.781532 396.792 
L 262.158468 396.792 
L 262.158468 338.626558 
L 253.781532 338.626558 
z
" clip-path="url(#p14085e1d2e)" style="fill: #11a37f"/>
   </g>
   <g id="patch_11">
    <path d="M 284.80722 396.792 
L 293.184156 396.792 
L 293.184156 306.992721 
L 284.80722 306.992721 
z
" clip-path="url(#p14085e1d2e)" style="fill: #11a37f"/>
   </g>
   <g id="patch_12">
    <path d="M 315.832908 396.792 
L 324.209844 396.792 
L 324.209844 311.074506 
L 315.832908 311.074506 
z
" clip-path="url(#p14085e1d2e)" style="fill: #11a37f"/>
   </g>
   <g id="patch_13">
    <path d="M 346.858596 396.792 
L 355.235532 396.792 
L 355.235532 284.542901 
L 346.858596 284.542901 
z
" clip-path="url(#p14085e1d2e)" style="fill: #11a37f"/>
   </g>
   <g id="patch_14">
    <path d="M 377.884284 396.792 
L 386.26122 396.792 
L 386.26122 202.907193 
L 377.884284 202.907193 
z
" clip-path="url(#p14085e1d2e)" style="fill: #11a37f"/>
   </g>
   <g id="patch_15">
    <path d="M 408.909973 396.792 
L 417.286908 396.792 
L 417.286908 379.444412 
L 408.909973 379.444412 
z
" clip-path="url(#p14085e1d2e)" style="fill: #11a37f"/>
   </g>
   <g id="patch_16">
    <path d="M 439.935661 396.792 
L 448.312597 396.792 
L 448.312597 386.587536 
L 439.935661 386.587536 
z
" clip-path="url(#p14085e1d2e)" style="fill: #11a37f"/>
   </g>
   <g id="patch_17">
    <path d="M 470.961349 396.792 
L 479.338285 396.792 
L 479.338285 171.273356 
L 470.961349 171.273356 
z
" clip-path="url(#p14085e1d2e)" style="fill: #11a37f"/>
   </g>
   <g id="patch_18">
    <path d="M 501.987037 396.792 
L 510.363973 396.792 
L 510.363973 396.792 
L 501.987037 396.792 
z
" clip-path="url(#p14085e1d2e)" style="fill: #11a37f"/>
   </g>
   <g id="patch_19">
    <path d="M 533.012725 396.792 
L 541.389661 396.792 
L 541.389661 365.158163 
L 533.012725 365.158163 
z
" clip-path="url(#p14085e1d2e)" style="fill: #11a37f"/>
   </g>
   <g id="patch_20">
    <path d="M 564.038413 396.792 
L 572.415349 396.792 
L 572.415349 396.792 
L 564.038413 396.792 
z
" clip-path="url(#p14085e1d2e)" style="fill: #11a37f"/>
   </g>
   <g id="patch_21">
    <path d="M 595.064102 396.792 
L 603.441037 396.792 
L 603.441037 320.258524 
L 595.064102 320.258524 
z
" clip-path="url(#p14085e1d2e)" style="fill: #11a37f"/>
   </g>
   <g id="patch_22">
    <path d="M 107.030027 396.792 
L 115.406963 396.792 
L 115.406963 384.546644 
L 107.030027 384.546644 
z
" clip-path="url(#p14085e1d2e)" style="fill: #3b7dd8"/>
   </g>
   <g id="patch_23">
    <path d="M 138.055715 396.792 
L 146.432651 396.792 
L 146.432651 382.505751 
L 138.055715 382.505751 
z
" clip-path="url(#p14085e1d2e)" style="fill: #3b7dd8"/>
   </g>
   <g id="patch_24">
    <path d="M 169.081403 396.792 
L 177.458339 396.792 
L 177.458339 346.790129 
L 169.081403 346.790129 
z
" clip-path="url(#p14085e1d2e)" style="fill: #3b7dd8"/>
   </g>
   <g id="patch_25">
    <path d="M 200.107091 396.792 
L 208.484027 396.792 
L 208.484027 365.158163 
L 200.107091 365.158163 
z
" clip-path="url(#p14085e1d2e)" style="fill: #3b7dd8"/>
   </g>
   <g id="patch_26">
    <path d="M 231.132779 396.792 
L 239.509715 396.792 
L 239.509715 372.301288 
L 231.132779 372.301288 
z
" clip-path="url(#p14085e1d2e)" style="fill: #3b7dd8"/>
   </g>
   <g id="patch_27">
    <path d="M 262.158468 396.792 
L 270.535403 396.792 
L 270.535403 342.708343 
L 262.158468 342.708343 
z
" clip-path="url(#p14085e1d2e)" style="fill: #3b7dd8"/>
   </g>
   <g id="patch_28">
    <path d="M 293.184156 396.792 
L 301.561092 396.792 
L 301.561092 226.377459 
L 293.184156 226.377459 
z
" clip-path="url(#p14085e1d2e)" style="fill: #3b7dd8"/>
   </g>
   <g id="patch_29">
    <path d="M 324.209844 396.792 
L 332.58678 396.792 
L 332.58678 318.217631 
L 324.209844 318.217631 
z
" clip-path="url(#p14085e1d2e)" style="fill: #3b7dd8"/>
   </g>
   <g id="patch_30">
    <path d="M 355.235532 396.792 
L 363.612468 396.792 
L 363.612468 396.792 
L 355.235532 396.792 
z
" clip-path="url(#p14085e1d2e)" style="fill: #3b7dd8"/>
   </g>
   <g id="patch_31">
    <path d="M 386.26122 396.792 
L 394.638156 396.792 
L 394.638156 382.505751 
L 386.26122 382.505751 
z
" clip-path="url(#p14085e1d2e)" style="fill: #3b7dd8"/>
   </g>
   <g id="patch_32">
    <path d="M 417.286908 396.792 
L 425.663844 396.792 
L 425.663844 379.444412 
L 417.286908 379.444412 
z
" clip-path="url(#p14085e1d2e)" style="fill: #3b7dd8"/>
   </g>
   <g id="patch_33">
    <path d="M 448.312597 396.792 
L 456.689532 396.792 
L 456.689532 389.648876 
L 448.312597 389.648876 
z
" clip-path="url(#p14085e1d2e)" style="fill: #3b7dd8"/>
   </g>
   <g id="patch_34">
    <path d="M 479.338285 396.792 
L 487.715221 396.792 
L 487.715221 299.849596 
L 479.338285 299.849596 
z
" clip-path="url(#p14085e1d2e)" style="fill: #3b7dd8"/>
   </g>
   <g id="patch_35">
    <path d="M 510.363973 396.792 
L 518.740909 396.792 
L 518.740909 383.526197 
L 510.363973 383.526197 
z
" clip-path="url(#p14085e1d2e)" style="fill: #3b7dd8"/>
   </g>
   <g id="patch_36">
    <path d="M 541.389661 396.792 
L 549.766597 396.792 
L 549.766597 396.792 
L 541.389661 396.792 
z
" clip-path="url(#p14085e1d2e)" style="fill: #3b7dd8"/>
   </g>
   <g id="patch_37">
    <path d="M 572.415349 396.792 
L 580.792285 396.792 
L 580.792285 366.178609 
L 572.415349 366.178609 
z
" clip-path="url(#p14085e1d2e)" style="fill: #3b7dd8"/>
   </g>
   <g id="patch_38">
    <path d="M 603.441037 396.792 
L 611.817973 396.792 
L 611.817973 396.792 
L 603.441037 396.792 
z
" clip-path="url(#p14085e1d2e)" style="fill: #3b7dd8"/>
   </g>
   <g id="patch_39">
    <path d="M 115.406963 396.792 
L 123.783898 396.792 
L 123.783898 396.792 
L 115.406963 396.792 
z
" clip-path="url(#p14085e1d2e)" style="fill: #d9a441"/>
   </g>
   <g id="patch_40">
    <path d="M 146.432651 396.792 
L 154.809587 396.792 
L 154.809587 396.792 
L 146.432651 396.792 
z
" clip-path="url(#p14085e1d2e)" style="fill: #d9a441"/>
   </g>
   <g id="patch_41">
    <path d="M 177.458339 396.792 
L 185.835275 396.792 
L 185.835275 396.792 
L 177.458339 396.792 
z
" clip-path="url(#p14085e1d2e)" style="fill: #d9a441"/>
   </g>
   <g id="patch_42">
    <path d="M 208.484027 396.792 
L 216.860963 396.792 
L 216.860963 396.792 
L 208.484027 396.792 
z
" clip-path="url(#p14085e1d2e)" style="fill: #d9a441"/>
   </g>
   <g id="patch_43">
    <path d="M 239.509715 396.792 
L 247.886651 396.792 
L 247.886651 396.792 
L 239.509715 396.792 
z
" clip-path="url(#p14085e1d2e)" style="fill: #d9a441"/>
   </g>
   <g id="patch_44">
    <path d="M 270.535403 396.792 
L 278.912339 396.792 
L 278.912339 396.792 
L 270.535403 396.792 
z
" clip-path="url(#p14085e1d2e)" style="fill: #d9a441"/>
   </g>
   <g id="patch_45">
    <path d="M 301.561092 396.792 
L 309.938027 396.792 
L 309.938027 396.792 
L 301.561092 396.792 
z
" clip-path="url(#p14085e1d2e)" style="fill: #d9a441"/>
   </g>
   <g id="patch_46">
    <path d="M 332.58678 396.792 
L 340.963716 396.792 
L 340.963716 396.792 
L 332.58678 396.792 
z
" clip-path="url(#p14085e1d2e)" style="fill: #d9a441"/>
   </g>
   <g id="patch_47">
    <path d="M 363.612468 396.792 
L 371.989404 396.792 
L 371.989404 396.792 
L 363.612468 396.792 
z
" clip-path="url(#p14085e1d2e)" style="fill: #d9a441"/>
   </g>
   <g id="patch_48">
    <path d="M 394.638156 396.792 
L 403.015092 396.792 
L 403.015092 396.792 
L 394.638156 396.792 
z
" clip-path="url(#p14085e1d2e)" style="fill: #d9a441"/>
   </g>
   <g id="patch_49">
    <path d="M 425.663844 396.792 
L 434.04078 396.792 
L 434.04078 396.792 
L 425.663844 396.792 
z
" clip-path="url(#p14085e1d2e)" style="fill: #d9a441"/>
   </g>
   <g id="patch_50">
    <path d="M 456.689532 396.792 
L 465.066468 396.792 
L 465.066468 396.792 
L 456.689532 396.792 
z
" clip-path="url(#p14085e1d2e)" style="fill: #d9a441"/>
   </g>
   <g id="patch_51">
    <path d="M 487.715221 396.792 
L 496.092156 396.792 
L 496.092156 396.792 
L 487.715221 396.792 
z
" clip-path="url(#p14085e1d2e)" style="fill: #d9a441"/>
   </g>
   <g id="patch_52">
    <path d="M 518.740909 396.792 
L 527.117845 396.792 
L 527.117845 396.792 
L 518.740909 396.792 
z
" clip-path="url(#p14085e1d2e)" style="fill: #d9a441"/>
   </g>
   <g id="patch_53">
    <path d="M 549.766597 396.792 
L 558.143533 396.792 
L 558.143533 396.792 
L 549.766597 396.792 
z
" clip-path="url(#p14085e1d2e)" style="fill: #d9a441"/>
   </g>
   <g id="patch_54">
    <path d="M 580.792285 396.792 
L 589.169221 396.792 
L 589.169221 391.689768 
L 580.792285 391.689768 
z
" clip-path="url(#p14085e1d2e)" style="fill: #d9a441"/>
   </g>
   <g id="patch_55">
    <path d="M 611.817973 396.792 
L 620.194909 396.792 
L 620.194909 348.831021 
L 611.817973 348.831021 
z
" clip-path="url(#p14085e1d2e)" style="fill: #d9a441"/>
   </g>
   <g id="legend_1">
    <g id="patch_56">
     <path d="M 84.276 151.882187 
L 110.276 151.882187 
L 110.276 142.782187 
L 84.276 142.782187 
z
" style="fill: #11a37f"/>
    </g>
    <g id="text_24">
     <!-- BHYP (Bitwise) -->
     <g style="fill: #1a1d21" transform="translate(120.676 151.882187) scale(0.13 -0.13)">
      <defs>
       <path id="HelveticaNeue-42" d="M 1107 2605 
L 1107 4058 
L 2323 4058 
Q 2522 4058 2698 4035 
Q 2874 4013 3008 3936 
Q 3142 3859 3219 3718 
Q 3296 3578 3296 3334 
Q 3296 2970 3069 2787 
Q 2842 2605 2323 2605 
L 1107 2605 
z
M 499 4570 
L 499 0 
L 2707 0 
Q 3046 0 3305 112 
Q 3565 224 3741 406 
Q 3917 589 4006 825 
Q 4096 1062 4096 1312 
Q 4096 1734 3872 2028 
Q 3648 2323 3226 2413 
L 3226 2426 
Q 3552 2554 3728 2819 
Q 3904 3085 3904 3450 
Q 3904 3795 3747 4032 
Q 3590 4269 3366 4403 
Q 3264 4467 3120 4499 
Q 2976 4531 2809 4547 
Q 2643 4563 2473 4566 
Q 2304 4570 2157 4570 
L 499 4570 
z
M 1107 512 
L 1107 2093 
L 2496 2093 
Q 2688 2093 2867 2057 
Q 3046 2022 3184 1936 
Q 3322 1850 3405 1702 
Q 3488 1555 3488 1331 
Q 3488 947 3261 729 
Q 3034 512 2630 512 
L 1107 512 
z
" transform="scale(0.015625)"/>
       <path id="HelveticaNeue-48" d="M 499 4570 
L 499 0 
L 1107 0 
L 1107 2093 
L 3514 2093 
L 3514 0 
L 4122 0 
L 4122 4570 
L 3514 4570 
L 3514 2605 
L 1107 2605 
L 1107 4570 
L 499 4570 
z
" transform="scale(0.015625)"/>
       <path id="HelveticaNeue-59" d="M 2387 1869 
L 4134 4570 
L 3443 4570 
L 2106 2394 
L 736 4570 
L 13 4570 
L 1779 1869 
L 1779 0 
L 2387 0 
L 2387 1869 
z
" transform="scale(0.015625)"/>
       <path id="HelveticaNeue-50" d="M 1107 2381 
L 1107 4058 
L 2298 4058 
Q 2816 4058 3056 3843 
Q 3296 3629 3296 3219 
Q 3296 2810 3056 2592 
Q 2816 2374 2298 2381 
L 1107 2381 
z
M 499 4570 
L 499 0 
L 1107 0 
L 1107 1869 
L 2502 1869 
Q 3194 1862 3549 2220 
Q 3904 2579 3904 3219 
Q 3904 3859 3549 4214 
Q 3194 4570 2502 4570 
L 499 4570 
z
" transform="scale(0.015625)"/>
       <path id="HelveticaNeue-28" d="M 1306 -1261 
L 1722 -1261 
Q 1267 -525 1072 198 
Q 877 922 877 1728 
Q 877 2515 1069 3232 
Q 1261 3949 1722 4678 
L 1306 4678 
Q 806 4019 553 3251 
Q 301 2483 301 1728 
Q 301 1306 371 922 
Q 442 538 573 173 
Q 704 -192 889 -547 
Q 1075 -902 1306 -1261 
z
" transform="scale(0.015625)"/>
       <path id="HelveticaNeue-69" d="M 986 3904 
L 986 4570 
L 442 4570 
L 442 3904 
L 986 3904 
z
M 442 3309 
L 442 0 
L 986 0 
L 986 3309 
L 442 3309 
z
" transform="scale(0.015625)"/>
       <path id="HelveticaNeue-74" d="M 1165 3309 
L 1165 4301 
L 621 4301 
L 621 3309 
L 58 3309 
L 58 2829 
L 621 2829 
L 621 723 
Q 621 493 665 352 
Q 710 211 803 134 
Q 896 58 1046 29 
Q 1197 0 1408 0 
L 1824 0 
L 1824 480 
L 1574 480 
Q 1446 480 1366 489 
Q 1286 499 1241 531 
Q 1197 563 1181 620 
Q 1165 678 1165 774 
L 1165 2829 
L 1824 2829 
L 1824 3309 
L 1165 3309 
z
" transform="scale(0.015625)"/>
       <path id="HelveticaNeue-77" d="M 3686 0 
L 4742 3309 
L 4179 3309 
L 3437 602 
L 3424 602 
L 2733 3309 
L 2138 3309 
L 1472 602 
L 1459 602 
L 710 3309 
L 109 3309 
L 1171 0 
L 1760 0 
L 2426 2630 
L 2438 2630 
L 3110 0 
L 3686 0 
z
" transform="scale(0.015625)"/>
       <path id="HelveticaNeue-73" d="M 742 1043 
L 198 1043 
Q 211 736 326 521 
Q 442 307 634 176 
Q 826 45 1075 -12 
Q 1325 -70 1600 -70 
Q 1850 -70 2102 -22 
Q 2355 26 2556 147 
Q 2758 269 2883 467 
Q 3008 666 3008 966 
Q 3008 1203 2915 1363 
Q 2822 1523 2672 1628 
Q 2522 1734 2326 1798 
Q 2131 1862 1926 1907 
Q 1734 1952 1542 1993 
Q 1350 2035 1196 2096 
Q 1043 2157 944 2249 
Q 845 2342 845 2483 
Q 845 2611 909 2691 
Q 973 2771 1075 2819 
Q 1178 2867 1302 2886 
Q 1427 2906 1549 2906 
Q 1683 2906 1814 2877 
Q 1946 2848 2054 2784 
Q 2163 2720 2233 2614 
Q 2304 2509 2317 2349 
L 2861 2349 
Q 2842 2650 2733 2851 
Q 2624 3053 2441 3171 
Q 2259 3290 2022 3338 
Q 1786 3386 1504 3386 
Q 1286 3386 1065 3331 
Q 845 3277 669 3165 
Q 493 3053 381 2873 
Q 269 2694 269 2445 
Q 269 2125 429 1945 
Q 589 1766 829 1667 
Q 1069 1568 1350 1513 
Q 1632 1459 1872 1392 
Q 2112 1325 2272 1216 
Q 2432 1107 2432 896 
Q 2432 742 2355 643 
Q 2278 544 2160 493 
Q 2042 442 1901 422 
Q 1760 403 1632 403 
Q 1466 403 1309 435 
Q 1152 467 1027 540 
Q 902 614 825 739 
Q 749 864 742 1043 
z
" transform="scale(0.015625)"/>
       <path id="HelveticaNeue-65" d="M 2707 1971 
L 806 1971 
Q 819 2163 889 2332 
Q 960 2502 1081 2630 
Q 1203 2758 1372 2832 
Q 1542 2906 1754 2906 
Q 1958 2906 2128 2832 
Q 2298 2758 2422 2633 
Q 2547 2509 2620 2336 
Q 2694 2163 2707 1971 
z
M 3232 1050 
L 2694 1050 
Q 2624 723 2403 563 
Q 2182 403 1837 403 
Q 1568 403 1369 492 
Q 1171 582 1043 732 
Q 915 883 857 1078 
Q 800 1274 806 1491 
L 3283 1491 
Q 3296 1792 3229 2125 
Q 3162 2458 2986 2739 
Q 2810 3021 2518 3203 
Q 2227 3386 1786 3386 
Q 1446 3386 1161 3258 
Q 877 3130 669 2899 
Q 461 2669 345 2355 
Q 230 2042 230 1664 
Q 243 1286 342 966 
Q 442 646 640 416 
Q 838 186 1129 58 
Q 1421 -70 1818 -70 
Q 2381 -70 2752 211 
Q 3123 493 3232 1050 
z
" transform="scale(0.015625)"/>
       <path id="HelveticaNeue-29" d="M -58 -1261 
L 352 -1261 
Q 851 -602 1104 163 
Q 1357 928 1357 1683 
Q 1357 2106 1286 2490 
Q 1216 2874 1085 3242 
Q 954 3610 768 3965 
Q 582 4320 352 4678 
L -58 4678 
Q 390 3942 585 3216 
Q 781 2490 781 1683 
Q 781 902 589 182 
Q 397 -538 -58 -1261 
z
" transform="scale(0.015625)"/>
      </defs>
      <use xlink:href="#HelveticaNeue-42"/>
      <use xlink:href="#HelveticaNeue-48" transform="translate(68.499985 0)"/>
      <use xlink:href="#HelveticaNeue-59" transform="translate(140.699966 0)"/>
      <use xlink:href="#HelveticaNeue-50" transform="translate(205.499954 0)"/>
      <use xlink:href="#HelveticaNeue-20" transform="translate(270.299942 0)"/>
      <use xlink:href="#HelveticaNeue-28" transform="translate(298.09993 0)"/>
      <use xlink:href="#HelveticaNeue-42" transform="translate(323.999924 0)"/>
      <use xlink:href="#HelveticaNeue-69" transform="translate(392.499908 0)"/>
      <use xlink:href="#HelveticaNeue-74" transform="translate(414.699905 0)"/>
      <use xlink:href="#HelveticaNeue-77" transform="translate(446.19989 0)"/>
      <use xlink:href="#HelveticaNeue-69" transform="translate(521.999878 0)"/>
      <use xlink:href="#HelveticaNeue-73" transform="translate(544.199875 0)"/>
      <use xlink:href="#HelveticaNeue-65" transform="translate(594.19986 0)"/>
      <use xlink:href="#HelveticaNeue-29" transform="translate(647.899857 0)"/>
     </g>
    </g>
    <g id="patch_57">
     <path d="M 84.276 170.445781 
L 110.276 170.445781 
L 110.276 161.345781 
L 84.276 161.345781 
z
" style="fill: #3b7dd8"/>
    </g>
    <g id="text_25">
     <!-- THYP (21Shares) -->
     <g style="fill: #1a1d21" transform="translate(120.676 170.445781) scale(0.13 -0.13)">
      <defs>
       <path id="HelveticaNeue-54" d="M 1536 4058 
L 1536 0 
L 2144 0 
L 2144 4058 
L 3667 4058 
L 3667 4570 
L 13 4570 
L 13 4058 
L 1536 4058 
z
" transform="scale(0.015625)"/>
       <path id="HelveticaNeue-53" d="M 3142 3232 
L 3718 3232 
Q 3706 3610 3574 3882 
Q 3443 4154 3216 4333 
Q 2989 4512 2688 4595 
Q 2387 4678 2035 4678 
Q 1722 4678 1424 4598 
Q 1126 4518 892 4355 
Q 659 4192 518 3939 
Q 378 3686 378 3341 
Q 378 3027 502 2819 
Q 627 2611 835 2480 
Q 1043 2349 1305 2269 
Q 1568 2189 1840 2128 
Q 2112 2067 2374 2009 
Q 2637 1952 2845 1859 
Q 3053 1766 3177 1619 
Q 3302 1472 3302 1235 
Q 3302 986 3200 826 
Q 3098 666 2931 573 
Q 2765 480 2557 441 
Q 2349 403 2144 403 
Q 1888 403 1645 467 
Q 1402 531 1219 665 
Q 1037 800 925 1008 
Q 813 1216 813 1504 
L 237 1504 
Q 237 1088 387 784 
Q 538 480 797 285 
Q 1056 90 1398 -6 
Q 1741 -102 2125 -102 
Q 2438 -102 2755 -28 
Q 3072 45 3328 208 
Q 3584 371 3747 630 
Q 3910 890 3910 1254 
Q 3910 1594 3785 1818 
Q 3661 2042 3453 2189 
Q 3245 2336 2982 2422 
Q 2720 2509 2448 2573 
Q 2176 2637 1913 2691 
Q 1651 2746 1443 2829 
Q 1235 2912 1110 3043 
Q 986 3174 986 3386 
Q 986 3610 1072 3760 
Q 1158 3910 1302 4000 
Q 1446 4090 1632 4128 
Q 1818 4166 2010 4166 
Q 2483 4166 2787 3945 
Q 3091 3725 3142 3232 
z
" transform="scale(0.015625)"/>
       <path id="HelveticaNeue-68" d="M 410 4570 
L 410 0 
L 954 0 
L 954 1869 
Q 954 2093 1014 2281 
Q 1075 2470 1196 2611 
Q 1318 2752 1500 2829 
Q 1683 2906 1933 2906 
Q 2246 2906 2425 2726 
Q 2605 2547 2605 2240 
L 2605 0 
L 3149 0 
L 3149 2176 
Q 3149 2445 3094 2665 
Q 3040 2886 2905 3046 
Q 2771 3206 2553 3296 
Q 2336 3386 2010 3386 
Q 1862 3386 1705 3354 
Q 1549 3322 1405 3254 
Q 1261 3187 1145 3081 
Q 1030 2976 966 2822 
L 954 2822 
L 954 4570 
L 410 4570 
z
" transform="scale(0.015625)"/>
       <path id="HelveticaNeue-72" d="M 390 3309 
L 390 0 
L 934 0 
L 934 1472 
Q 934 1792 998 2038 
Q 1062 2285 1203 2457 
Q 1344 2630 1574 2720 
Q 1805 2810 2131 2810 
L 2131 3386 
Q 1690 3398 1402 3206 
Q 1114 3014 915 2611 
L 902 2611 
L 902 3309 
L 390 3309 
z
" transform="scale(0.015625)"/>
      </defs>
      <use xlink:href="#HelveticaNeue-54"/>
      <use xlink:href="#HelveticaNeue-48" transform="translate(57.399994 0)"/>
      <use xlink:href="#HelveticaNeue-59" transform="translate(129.599976 0)"/>
      <use xlink:href="#HelveticaNeue-50" transform="translate(194.399963 0)"/>
      <use xlink:href="#HelveticaNeue-20" transform="translate(259.199951 0)"/>
      <use xlink:href="#HelveticaNeue-28" transform="translate(286.999939 0)"/>
      <use xlink:href="#HelveticaNeue-32" transform="translate(312.899933 0)"/>
      <use xlink:href="#HelveticaNeue-31" transform="translate(368.499924 0)"/>
      <use xlink:href="#HelveticaNeue-53" transform="translate(424.099915 0)"/>
      <use xlink:href="#HelveticaNeue-68" transform="translate(488.899902 0)"/>
      <use xlink:href="#HelveticaNeue-61" transform="translate(544.499893 0)"/>
      <use xlink:href="#HelveticaNeue-72" transform="translate(598.19989 0)"/>
      <use xlink:href="#HelveticaNeue-65" transform="translate(629.749878 0)"/>
      <use xlink:href="#HelveticaNeue-73" transform="translate(683.449875 0)"/>
      <use xlink:href="#HelveticaNeue-29" transform="translate(733.44986 0)"/>
     </g>
    </g>
    <g id="patch_58">
     <path d="M 84.276 189.009375 
L 110.276 189.009375 
L 110.276 179.909375 
L 84.276 179.909375 
z
" style="fill: #d9a441"/>
    </g>
    <g id="text_26">
     <!-- HYPG (Grayscale) -->
     <g style="fill: #1a1d21" transform="translate(120.676 189.009375) scale(0.13 -0.13)">
      <defs>
       <path id="HelveticaNeue-47" d="M 3917 570 
L 4077 0 
L 4461 0 
L 4461 2406 
L 2458 2406 
L 2458 1894 
L 3917 1894 
Q 3930 1581 3834 1309 
Q 3738 1037 3549 835 
Q 3360 634 3085 518 
Q 2810 403 2451 403 
Q 2067 403 1776 553 
Q 1485 704 1286 957 
Q 1088 1210 985 1539 
Q 883 1869 883 2227 
Q 883 2592 972 2941 
Q 1062 3290 1251 3562 
Q 1440 3834 1737 4000 
Q 2035 4166 2451 4166 
Q 2707 4166 2934 4105 
Q 3162 4045 3341 3923 
Q 3520 3802 3641 3613 
Q 3763 3424 3808 3162 
L 4416 3162 
Q 4352 3565 4176 3849 
Q 4000 4134 3741 4320 
Q 3482 4506 3152 4592 
Q 2822 4678 2451 4678 
Q 1907 4678 1500 4476 
Q 1094 4275 822 3936 
Q 550 3597 412 3145 
Q 275 2694 275 2195 
Q 275 1747 422 1331 
Q 570 915 851 595 
Q 1133 275 1536 86 
Q 1939 -102 2451 -102 
Q 2854 -102 3251 54 
Q 3648 211 3917 570 
z
" transform="scale(0.015625)"/>
       <path id="HelveticaNeue-63" d="M 2656 2246 
L 3219 2246 
Q 3187 2541 3065 2755 
Q 2944 2970 2755 3110 
Q 2566 3251 2320 3318 
Q 2074 3386 1792 3386 
Q 1402 3386 1107 3248 
Q 813 3110 617 2870 
Q 422 2630 326 2307 
Q 230 1984 230 1613 
Q 230 1242 329 931 
Q 429 621 624 397 
Q 819 173 1110 51 
Q 1402 -70 1779 -70 
Q 2413 -70 2781 262 
Q 3149 595 3238 1210 
L 2682 1210 
Q 2630 826 2403 614 
Q 2176 403 1773 403 
Q 1517 403 1331 505 
Q 1146 608 1030 777 
Q 915 947 860 1164 
Q 806 1382 806 1613 
Q 806 1862 857 2096 
Q 909 2330 1027 2509 
Q 1146 2688 1344 2797 
Q 1542 2906 1837 2906 
Q 2182 2906 2387 2733 
Q 2592 2560 2656 2246 
z
" transform="scale(0.015625)"/>
       <path id="HelveticaNeue-6c" d="M 442 4570 
L 442 0 
L 986 0 
L 986 4570 
L 442 4570 
z
" transform="scale(0.015625)"/>
      </defs>
      <use xlink:href="#HelveticaNeue-48"/>
      <use xlink:href="#HelveticaNeue-59" transform="translate(72.199982 0)"/>
      <use xlink:href="#HelveticaNeue-50" transform="translate(136.999969 0)"/>
      <use xlink:href="#HelveticaNeue-47" transform="translate(201.799957 0)"/>
      <use xlink:href="#HelveticaNeue-20" transform="translate(277.699951 0)"/>
      <use xlink:href="#HelveticaNeue-28" transform="translate(305.499939 0)"/>
      <use xlink:href="#HelveticaNeue-47" transform="translate(331.399933 0)"/>
      <use xlink:href="#HelveticaNeue-72" transform="translate(407.299927 0)"/>
      <use xlink:href="#HelveticaNeue-61" transform="translate(440.599915 0)"/>
      <use xlink:href="#HelveticaNeue-79" transform="translate(494.299911 0)"/>
      <use xlink:href="#HelveticaNeue-73" transform="translate(544.299896 0)"/>
      <use xlink:href="#HelveticaNeue-63" transform="translate(594.299881 0)"/>
      <use xlink:href="#HelveticaNeue-61" transform="translate(647.999878 0)"/>
      <use xlink:href="#HelveticaNeue-6c" transform="translate(701.699875 0)"/>
      <use xlink:href="#HelveticaNeue-65" transform="translate(723.899872 0)"/>
      <use xlink:href="#HelveticaNeue-29" transform="translate(777.599869 0)"/>
     </g>
    </g>
   </g>
  </g>
  <g id="text_27">
   <!-- P E R - F U N D   D A I L Y   N E T   I N F L O W S   ·   F A R S I D E -->
   <g style="fill: #11a37f" transform="translate(72.576 49.896) scale(0.105 -0.105)">
    <defs>
     <path id="Menlo-Regular-50" d="M 1247 4147 
L 1247 2394 
L 1978 2394 
Q 2416 2394 2661 2625 
Q 2906 2856 2906 3272 
Q 2906 3688 2662 3917 
Q 2419 4147 1978 4147 
L 1247 4147 
z
M 616 4666 
L 1978 4666 
Q 2759 4666 3162 4311 
Q 3566 3956 3566 3272 
Q 3566 2581 3164 2228 
Q 2763 1875 1978 1875 
L 1247 1875 
L 1247 0 
L 616 0 
L 616 4666 
z
" transform="scale(0.015625)"/>
     <path id="Menlo-Regular-2009" transform="scale(0.015625)"/>
     <path id="Menlo-Regular-45" d="M 616 4666 
L 3384 4666 
L 3384 4134 
L 1247 4134 
L 1247 2878 
L 3291 2878 
L 3291 2347 
L 1247 2347 
L 1247 531 
L 3444 531 
L 3444 0 
L 616 0 
L 616 4666 
z
" transform="scale(0.015625)"/>
     <path id="Menlo-Regular-52" d="M 2375 2203 
Q 2619 2141 2791 1967 
Q 2963 1794 3219 1275 
L 3853 0 
L 3175 0 
L 2619 1178 
Q 2378 1681 2186 1826 
Q 1994 1972 1684 1972 
L 1081 1972 
L 1081 0 
L 447 0 
L 447 4666 
L 1747 4666 
Q 2516 4666 2925 4319 
Q 3334 3972 3334 3316 
Q 3334 2853 3082 2561 
Q 2831 2269 2375 2203 
z
M 1081 4147 
L 1081 2491 
L 1772 2491 
Q 2225 2491 2447 2694 
Q 2669 2897 2669 3316 
Q 2669 3719 2433 3933 
Q 2197 4147 1747 4147 
L 1081 4147 
z
" transform="scale(0.015625)"/>
     <path id="Menlo-Regular-2d" d="M 319 2263 
L 3631 2263 
L 3631 1734 
L 319 1734 
L 319 2263 
z
" transform="scale(0.015625)"/>
     <path id="Menlo-Regular-46" d="M 728 4666 
L 3475 4666 
L 3475 4134 
L 1363 4134 
L 1363 2884 
L 3278 2884 
L 3278 2353 
L 1363 2353 
L 1363 0 
L 728 0 
L 728 4666 
z
" transform="scale(0.015625)"/>
     <path id="Menlo-Regular-55" d="M 459 1791 
L 459 4666 
L 1094 4666 
L 1094 1503 
Q 1094 1163 1112 1017 
Q 1131 872 1178 794 
Q 1278 609 1467 515 
Q 1656 422 1925 422 
Q 2197 422 2384 515 
Q 2572 609 2675 794 
Q 2722 872 2740 1015 
Q 2759 1159 2759 1497 
L 2759 4666 
L 3391 4666 
L 3391 1791 
Q 3391 1075 3302 773 
Q 3213 472 2994 275 
Q 2788 91 2522 0 
Q 2256 -91 1925 -91 
Q 1597 -91 1331 0 
Q 1066 91 856 275 
Q 641 469 550 776 
Q 459 1084 459 1791 
z
" transform="scale(0.015625)"/>
     <path id="Menlo-Regular-4e" d="M 59 4650 
L 922 4650 
L 2747 822 
L 2747 4650 
L 3419 4650 
L 3419 0 
L 2556 0 
L 731 3828 
L 731 0 
L 59 0 
L 59 4650 
z
" transform="scale(0.015625)"/>
     <path id="Menlo-Regular-44" d="M 1363 519 
Q 2159 519 2475 911 
Q 2791 1303 2791 2328 
Q 2791 3363 2477 3755 
Q 2163 4147 1363 4147 
L 1063 4147 
L 1063 519 
L 1363 519 
z
M 1375 4666 
Q 2444 4666 2950 4097 
Q 3456 3528 3456 2328 
Q 3456 1134 2950 567 
Q 2444 0 1375 0 
L 428 0 
L 428 4666 
L 1375 4666 
z
" transform="scale(0.015625)"/>
     <path id="Menlo-Regular-20" transform="scale(0.015625)"/>
     <path id="Menlo-Regular-41" d="M 1925 4109 
L 1259 1722 
L 2591 1722 
L 1925 4109 
z
M 1544 4666 
L 2309 4666 
L 3738 0 
L 3084 0 
L 2741 1216 
L 1106 1216 
L 769 0 
L 116 0 
L 1544 4666 
z
" transform="scale(0.015625)"/>
     <path id="Menlo-Regular-49" d="M 628 4666 
L 3219 4666 
L 3219 4134 
L 2241 4134 
L 2241 531 
L 3219 531 
L 3219 0 
L 628 0 
L 628 531 
L 1606 531 
L 1606 4134 
L 628 4134 
L 628 4666 
z
" transform="scale(0.015625)"/>
     <path id="Menlo-Regular-4c" d="M 672 4666 
L 1306 4666 
L 1306 531 
L 3559 531 
L 3559 0 
L 672 0 
L 672 4666 
z
" transform="scale(0.015625)"/>
     <path id="Menlo-Regular-59" d="M 116 4666 
L 788 4666 
L 1925 2606 
L 3059 4666 
L 3738 4666 
L 2241 2094 
L 2241 0 
L 1606 0 
L 1606 2094 
L 116 4666 
z
" transform="scale(0.015625)"/>
     <path id="Menlo-Regular-54" d="M 147 4666 
L 3706 4666 
L 3706 4134 
L 2247 4134 
L 2247 0 
L 1613 0 
L 1613 4134 
L 147 4134 
L 147 4666 
z
" transform="scale(0.015625)"/>
     <path id="Menlo-Regular-4f" d="M 2828 2328 
Q 2828 3356 2617 3797 
Q 2406 4238 1925 4238 
Q 1447 4238 1236 3797 
Q 1025 3356 1025 2328 
Q 1025 1303 1236 862 
Q 1447 422 1925 422 
Q 2406 422 2617 861 
Q 2828 1300 2828 2328 
z
M 3488 2328 
Q 3488 1109 3102 509 
Q 2716 -91 1925 -91 
Q 1134 -91 750 506 
Q 366 1103 366 2328 
Q 366 3550 752 4150 
Q 1138 4750 1925 4750 
Q 2716 4750 3102 4150 
Q 3488 3550 3488 2328 
z
" transform="scale(0.015625)"/>
     <path id="Menlo-Regular-57" d="M 0 4666 
L 616 4666 
L 1063 878 
L 1594 3384 
L 2253 3384 
L 2791 872 
L 3238 4666 
L 3853 4666 
L 3156 0 
L 2559 0 
L 1925 2772 
L 1294 0 
L 697 0 
L 0 4666 
z
" transform="scale(0.015625)"/>
     <path id="Menlo-Regular-53" d="M 3163 4506 
L 3163 3866 
Q 2875 4050 2586 4144 
Q 2297 4238 2003 4238 
Q 1556 4238 1297 4030 
Q 1038 3822 1038 3469 
Q 1038 3159 1208 2996 
Q 1378 2834 1844 2725 
L 2175 2650 
Q 2831 2497 3131 2169 
Q 3431 1841 3431 1275 
Q 3431 609 3018 259 
Q 2606 -91 1819 -91 
Q 1491 -91 1159 -20 
Q 828 50 494 191 
L 494 863 
Q 853 634 1173 528 
Q 1494 422 1819 422 
Q 2297 422 2562 636 
Q 2828 850 2828 1234 
Q 2828 1584 2645 1768 
Q 2463 1953 2009 2053 
L 1672 2131 
Q 1022 2278 728 2575 
Q 434 2872 434 3372 
Q 434 3997 854 4373 
Q 1275 4750 1972 4750 
Q 2241 4750 2537 4689 
Q 2834 4628 3163 4506 
z
" transform="scale(0.015625)"/>
     <path id="Menlo-Regular-b7" d="M 1528 2700 
L 2316 2700 
L 2316 1747 
L 1528 1747 
L 1528 2700 
z
" transform="scale(0.015625)"/>
    </defs>
    <use xlink:href="#Menlo-Regular-50"/>
    <use xlink:href="#Menlo-Regular-2009" transform="translate(60.205078 0)"/>
    <use xlink:href="#Menlo-Regular-45" transform="translate(120.410156 0)"/>
    <use xlink:href="#Menlo-Regular-2009" transform="translate(180.615234 0)"/>
    <use xlink:href="#Menlo-Regular-52" transform="translate(240.820312 0)"/>
    <use xlink:href="#Menlo-Regular-2009" transform="translate(301.025391 0)"/>
    <use xlink:href="#Menlo-Regular-2d" transform="translate(361.230469 0)"/>
    <use xlink:href="#Menlo-Regular-2009" transform="translate(421.435547 0)"/>
    <use xlink:href="#Menlo-Regular-46" transform="translate(481.640625 0)"/>
    <use xlink:href="#Menlo-Regular-2009" transform="translate(541.845703 0)"/>
    <use xlink:href="#Menlo-Regular-55" transform="translate(602.050781 0)"/>
    <use xlink:href="#Menlo-Regular-2009" transform="translate(662.255859 0)"/>
    <use xlink:href="#Menlo-Regular-4e" transform="translate(722.460938 0)"/>
    <use xlink:href="#Menlo-Regular-2009" transform="translate(782.666016 0)"/>
    <use xlink:href="#Menlo-Regular-44" transform="translate(842.871094 0)"/>
    <use xlink:href="#Menlo-Regular-2009" transform="translate(903.076172 0)"/>
    <use xlink:href="#Menlo-Regular-20" transform="translate(963.28125 0)"/>
    <use xlink:href="#Menlo-Regular-2009" transform="translate(1023.486328 0)"/>
    <use xlink:href="#Menlo-Regular-44" transform="translate(1083.691406 0)"/>
    <use xlink:href="#Menlo-Regular-2009" transform="translate(1143.896484 0)"/>
    <use xlink:href="#Menlo-Regular-41" transform="translate(1204.101562 0)"/>
    <use xlink:href="#Menlo-Regular-2009" transform="translate(1264.306641 0)"/>
    <use xlink:href="#Menlo-Regular-49" transform="translate(1324.511719 0)"/>
    <use xlink:href="#Menlo-Regular-2009" transform="translate(1384.716797 0)"/>
    <use xlink:href="#Menlo-Regular-4c" transform="translate(1444.921875 0)"/>
    <use xlink:href="#Menlo-Regular-2009" transform="translate(1505.126953 0)"/>
    <use xlink:href="#Menlo-Regular-59" transform="translate(1565.332031 0)"/>
    <use xlink:href="#Menlo-Regular-2009" transform="translate(1625.537109 0)"/>
    <use xlink:href="#Menlo-Regular-20" transform="translate(1685.742188 0)"/>
    <use xlink:href="#Menlo-Regular-2009" transform="translate(1745.947266 0)"/>
    <use xlink:href="#Menlo-Regular-4e" transform="translate(1806.152344 0)"/>
    <use xlink:href="#Menlo-Regular-2009" transform="translate(1866.357422 0)"/>
    <use xlink:href="#Menlo-Regular-45" transform="translate(1926.5625 0)"/>
    <use xlink:href="#Menlo-Regular-2009" transform="translate(1986.767578 0)"/>
    <use xlink:href="#Menlo-Regular-54" transform="translate(2046.972656 0)"/>
    <use xlink:href="#Menlo-Regular-2009" transform="translate(2107.177734 0)"/>
    <use xlink:href="#Menlo-Regular-20" transform="translate(2167.382812 0)"/>
    <use xlink:href="#Menlo-Regular-2009" transform="translate(2227.587891 0)"/>
    <use xlink:href="#Menlo-Regular-49" transform="translate(2287.792969 0)"/>
    <use xlink:href="#Menlo-Regular-2009" transform="translate(2347.998047 0)"/>
    <use xlink:href="#Menlo-Regular-4e" transform="translate(2408.203125 0)"/>
    <use xlink:href="#Menlo-Regular-2009" transform="translate(2468.408203 0)"/>
    <use xlink:href="#Menlo-Regular-46" transform="translate(2528.613281 0)"/>
    <use xlink:href="#Menlo-Regular-2009" transform="translate(2588.818359 0)"/>
    <use xlink:href="#Menlo-Regular-4c" transform="translate(2649.023438 0)"/>
    <use xlink:href="#Menlo-Regular-2009" transform="translate(2709.228516 0)"/>
    <use xlink:href="#Menlo-Regular-4f" transform="translate(2769.433594 0)"/>
    <use xlink:href="#Menlo-Regular-2009" transform="translate(2829.638672 0)"/>
    <use xlink:href="#Menlo-Regular-57" transform="translate(2889.84375 0)"/>
    <use xlink:href="#Menlo-Regular-2009" transform="translate(2950.048828 0)"/>
    <use xlink:href="#Menlo-Regular-53" transform="translate(3010.253906 0)"/>
    <use xlink:href="#Menlo-Regular-2009" transform="translate(3070.458984 0)"/>
    <use xlink:href="#Menlo-Regular-20" transform="translate(3130.664062 0)"/>
    <use xlink:href="#Menlo-Regular-2009" transform="translate(3190.869141 0)"/>
    <use xlink:href="#Menlo-Regular-b7" transform="translate(3251.074219 0)"/>
    <use xlink:href="#Menlo-Regular-2009" transform="translate(3311.279297 0)"/>
    <use xlink:href="#Menlo-Regular-20" transform="translate(3371.484375 0)"/>
    <use xlink:href="#Menlo-Regular-2009" transform="translate(3431.689453 0)"/>
    <use xlink:href="#Menlo-Regular-46" transform="translate(3491.894531 0)"/>
    <use xlink:href="#Menlo-Regular-2009" transform="translate(3552.099609 0)"/>
    <use xlink:href="#Menlo-Regular-41" transform="translate(3612.304688 0)"/>
    <use xlink:href="#Menlo-Regular-2009" transform="translate(3672.509766 0)"/>
    <use xlink:href="#Menlo-Regular-52" transform="translate(3732.714844 0)"/>
    <use xlink:href="#Menlo-Regular-2009" transform="translate(3792.919922 0)"/>
    <use xlink:href="#Menlo-Regular-53" transform="translate(3853.125 0)"/>
    <use xlink:href="#Menlo-Regular-2009" transform="translate(3913.330078 0)"/>
    <use xlink:href="#Menlo-Regular-49" transform="translate(3973.535156 0)"/>
    <use xlink:href="#Menlo-Regular-2009" transform="translate(4033.740234 0)"/>
    <use xlink:href="#Menlo-Regular-44" transform="translate(4093.945312 0)"/>
    <use xlink:href="#Menlo-Regular-2009" transform="translate(4154.150391 0)"/>
    <use xlink:href="#Menlo-Regular-45" transform="translate(4214.355469 0)"/>
   </g>
  </g>
  <g id="text_28">
   <!-- Day by day, BHYP and THYP traded the lead -->
   <g style="fill: #1a1d21" transform="translate(72.576 83.16) scale(0.22 -0.22)">
    <defs>
     <path id="HelveticaNeue-44" d="M 1107 512 
L 1107 4058 
L 2131 4058 
Q 2554 4058 2842 3939 
Q 3130 3821 3312 3593 
Q 3494 3366 3574 3043 
Q 3654 2720 3654 2310 
Q 3654 1888 3568 1590 
Q 3482 1293 3347 1094 
Q 3213 896 3043 781 
Q 2874 666 2701 605 
Q 2528 544 2374 528 
Q 2221 512 2118 512 
L 1107 512 
z
M 499 4570 
L 499 0 
L 2067 0 
Q 2637 0 3053 160 
Q 3469 320 3737 624 
Q 4006 928 4134 1373 
Q 4262 1818 4262 2394 
Q 4262 3494 3692 4032 
Q 3123 4570 2067 4570 
L 499 4570 
z
" transform="scale(0.015625)"/>
     <path id="HelveticaNeue-62" d="M 429 4570 
L 429 0 
L 973 0 
L 973 442 
L 986 442 
Q 1075 294 1206 195 
Q 1338 96 1485 38 
Q 1632 -19 1782 -44 
Q 1933 -70 2054 -70 
Q 2432 -70 2717 64 
Q 3002 198 3190 432 
Q 3379 666 3472 979 
Q 3565 1293 3565 1645 
Q 3565 1997 3469 2310 
Q 3373 2624 3184 2864 
Q 2995 3104 2710 3245 
Q 2426 3386 2042 3386 
Q 1696 3386 1408 3261 
Q 1120 3136 986 2861 
L 973 2861 
L 973 4570 
L 429 4570 
z
M 2989 1683 
Q 2989 1440 2937 1209 
Q 2886 979 2771 800 
Q 2656 621 2467 512 
Q 2278 403 1997 403 
Q 1715 403 1516 508 
Q 1318 614 1193 787 
Q 1069 960 1011 1187 
Q 954 1414 954 1658 
Q 954 1888 1008 2112 
Q 1062 2336 1184 2512 
Q 1306 2688 1498 2797 
Q 1690 2906 1965 2906 
Q 2227 2906 2422 2803 
Q 2618 2701 2742 2528 
Q 2867 2355 2928 2134 
Q 2989 1914 2989 1683 
z
" transform="scale(0.015625)"/>
     <path id="HelveticaNeue-64" d="M 806 1626 
Q 806 1869 857 2099 
Q 909 2330 1024 2509 
Q 1139 2688 1331 2797 
Q 1523 2906 1798 2906 
Q 2080 2906 2278 2800 
Q 2477 2694 2601 2521 
Q 2726 2349 2784 2121 
Q 2842 1894 2842 1651 
Q 2842 1421 2787 1197 
Q 2733 973 2611 797 
Q 2490 621 2298 512 
Q 2106 403 1830 403 
Q 1568 403 1373 505 
Q 1178 608 1053 781 
Q 928 954 867 1174 
Q 806 1395 806 1626 
z
M 3366 0 
L 3366 4570 
L 2822 4570 
L 2822 2867 
L 2810 2867 
Q 2720 3014 2589 3113 
Q 2458 3213 2310 3273 
Q 2163 3334 2016 3360 
Q 1869 3386 1741 3386 
Q 1363 3386 1078 3248 
Q 794 3110 605 2876 
Q 416 2643 323 2329 
Q 230 2016 230 1664 
Q 230 1312 326 998 
Q 422 685 611 448 
Q 800 211 1085 70 
Q 1370 -70 1754 -70 
Q 2099 -70 2387 51 
Q 2675 173 2810 448 
L 2822 448 
L 2822 0 
L 3366 0 
z
" transform="scale(0.015625)"/>
     <path id="HelveticaNeue-2c" d="M 531 710 
L 531 0 
L 909 0 
Q 915 -77 899 -166 
Q 883 -256 838 -342 
Q 794 -429 720 -502 
Q 646 -576 538 -614 
L 538 -934 
Q 909 -826 1075 -563 
Q 1242 -301 1242 64 
L 1242 710 
L 531 710 
z
" transform="scale(0.015625)"/>
    </defs>
    <use xlink:href="#HelveticaNeue-44"/>
    <use xlink:href="#HelveticaNeue-61" transform="translate(70.399994 0)"/>
    <use xlink:href="#HelveticaNeue-79" transform="translate(124.099991 0)"/>
    <use xlink:href="#HelveticaNeue-20" transform="translate(174.099976 0)"/>
    <use xlink:href="#HelveticaNeue-62" transform="translate(201.899963 0)"/>
    <use xlink:href="#HelveticaNeue-79" transform="translate(261.199951 0)"/>
    <use xlink:href="#HelveticaNeue-20" transform="translate(311.199936 0)"/>
    <use xlink:href="#HelveticaNeue-64" transform="translate(338.999924 0)"/>
    <use xlink:href="#HelveticaNeue-61" transform="translate(398.299911 0)"/>
    <use xlink:href="#HelveticaNeue-79" transform="translate(451.999908 0)"/>
    <use xlink:href="#HelveticaNeue-2c" transform="translate(494.624893 0)"/>
    <use xlink:href="#HelveticaNeue-20" transform="translate(522.424881 0)"/>
    <use xlink:href="#HelveticaNeue-42" transform="translate(550.224869 0)"/>
    <use xlink:href="#HelveticaNeue-48" transform="translate(618.724854 0)"/>
    <use xlink:href="#HelveticaNeue-59" transform="translate(690.924835 0)"/>
    <use xlink:href="#HelveticaNeue-50" transform="translate(755.724823 0)"/>
    <use xlink:href="#HelveticaNeue-20" transform="translate(820.524811 0)"/>
    <use xlink:href="#HelveticaNeue-61" transform="translate(848.324799 0)"/>
    <use xlink:href="#HelveticaNeue-6e" transform="translate(902.024796 0)"/>
    <use xlink:href="#HelveticaNeue-64" transform="translate(957.624786 0)"/>
    <use xlink:href="#HelveticaNeue-20" transform="translate(1016.924774 0)"/>
    <use xlink:href="#HelveticaNeue-54" transform="translate(1044.724762 0)"/>
    <use xlink:href="#HelveticaNeue-48" transform="translate(1102.124756 0)"/>
    <use xlink:href="#HelveticaNeue-59" transform="translate(1174.324738 0)"/>
    <use xlink:href="#HelveticaNeue-50" transform="translate(1239.124725 0)"/>
    <use xlink:href="#HelveticaNeue-20" transform="translate(1303.924713 0)"/>
    <use xlink:href="#HelveticaNeue-74" transform="translate(1331.724701 0)"/>
    <use xlink:href="#HelveticaNeue-72" transform="translate(1363.224686 0)"/>
    <use xlink:href="#HelveticaNeue-61" transform="translate(1396.524673 0)"/>
    <use xlink:href="#HelveticaNeue-64" transform="translate(1450.22467 0)"/>
    <use xlink:href="#HelveticaNeue-65" transform="translate(1509.524658 0)"/>
    <use xlink:href="#HelveticaNeue-64" transform="translate(1563.224655 0)"/>
    <use xlink:href="#HelveticaNeue-20" transform="translate(1622.524643 0)"/>
    <use xlink:href="#HelveticaNeue-74" transform="translate(1650.324631 0)"/>
    <use xlink:href="#HelveticaNeue-68" transform="translate(1681.824615 0)"/>
    <use xlink:href="#HelveticaNeue-65" transform="translate(1737.424606 0)"/>
    <use xlink:href="#HelveticaNeue-20" transform="translate(1791.124603 0)"/>
    <use xlink:href="#HelveticaNeue-6c" transform="translate(1818.924591 0)"/>
    <use xlink:href="#HelveticaNeue-65" transform="translate(1841.124588 0)"/>
    <use xlink:href="#HelveticaNeue-61" transform="translate(1894.824585 0)"/>
    <use xlink:href="#HelveticaNeue-64" transform="translate(1948.524582 0)"/>
   </g>
  </g>
  <g id="text_29">
   <!-- Daily flows by fund, May 12 – Jun 4 (HYPG listed Jun 3) -->
   <g style="fill: #5b6470" transform="translate(72.576 108.3456) scale(0.125 -0.125)">
    <defs>
     <path id="HelveticaNeue-66" d="M 634 2829 
L 634 0 
L 1178 0 
L 1178 2829 
L 1818 2829 
L 1818 3309 
L 1178 3309 
L 1178 3770 
Q 1178 3987 1286 4064 
Q 1395 4141 1594 4141 
Q 1664 4141 1747 4131 
Q 1830 4122 1901 4096 
L 1901 4570 
Q 1824 4595 1725 4608 
Q 1626 4621 1549 4621 
Q 1101 4621 867 4413 
Q 634 4205 634 3802 
L 634 3309 
L 77 3309 
L 77 2829 
L 634 2829 
z
" transform="scale(0.015625)"/>
     <path id="HelveticaNeue-6f" d="M 806 1651 
Q 806 1952 886 2185 
Q 966 2419 1107 2579 
Q 1248 2739 1437 2822 
Q 1626 2906 1837 2906 
Q 2048 2906 2237 2822 
Q 2426 2739 2566 2579 
Q 2707 2419 2787 2185 
Q 2867 1952 2867 1651 
Q 2867 1350 2787 1116 
Q 2707 883 2566 726 
Q 2426 570 2237 486 
Q 2048 403 1837 403 
Q 1626 403 1437 486 
Q 1248 570 1107 726 
Q 966 883 886 1116 
Q 806 1350 806 1651 
z
M 230 1651 
Q 230 1286 332 972 
Q 435 659 640 425 
Q 845 192 1145 61 
Q 1446 -70 1837 -70 
Q 2234 -70 2531 61 
Q 2829 192 3033 425 
Q 3238 659 3340 972 
Q 3443 1286 3443 1651 
Q 3443 2016 3340 2333 
Q 3238 2650 3033 2883 
Q 2829 3117 2531 3251 
Q 2234 3386 1837 3386 
Q 1446 3386 1145 3251 
Q 845 3117 640 2883 
Q 435 2650 332 2333 
Q 230 2016 230 1651 
z
" transform="scale(0.015625)"/>
     <path id="HelveticaNeue-2013" d="M 0 2035 
L 0 1523 
L 3200 1523 
L 3200 2035 
L 0 2035 
z
" transform="scale(0.015625)"/>
    </defs>
    <use xlink:href="#HelveticaNeue-44"/>
    <use xlink:href="#HelveticaNeue-61" transform="translate(70.399994 0)"/>
    <use xlink:href="#HelveticaNeue-69" transform="translate(124.099991 0)"/>
    <use xlink:href="#HelveticaNeue-6c" transform="translate(146.299988 0)"/>
    <use xlink:href="#HelveticaNeue-79" transform="translate(168.499985 0)"/>
    <use xlink:href="#HelveticaNeue-20" transform="translate(218.499969 0)"/>
    <use xlink:href="#HelveticaNeue-66" transform="translate(246.299957 0)"/>
    <use xlink:href="#HelveticaNeue-6c" transform="translate(275.899948 0)"/>
    <use xlink:href="#HelveticaNeue-6f" transform="translate(298.099945 0)"/>
    <use xlink:href="#HelveticaNeue-77" transform="translate(355.499939 0)"/>
    <use xlink:href="#HelveticaNeue-73" transform="translate(431.299927 0)"/>
    <use xlink:href="#HelveticaNeue-20" transform="translate(481.299911 0)"/>
    <use xlink:href="#HelveticaNeue-62" transform="translate(509.099899 0)"/>
    <use xlink:href="#HelveticaNeue-79" transform="translate(568.399887 0)"/>
    <use xlink:href="#HelveticaNeue-20" transform="translate(618.399872 0)"/>
    <use xlink:href="#HelveticaNeue-66" transform="translate(646.19986 0)"/>
    <use xlink:href="#HelveticaNeue-75" transform="translate(675.79985 0)"/>
    <use xlink:href="#HelveticaNeue-6e" transform="translate(731.399841 0)"/>
    <use xlink:href="#HelveticaNeue-64" transform="translate(786.999832 0)"/>
    <use xlink:href="#HelveticaNeue-2c" transform="translate(846.29982 0)"/>
    <use xlink:href="#HelveticaNeue-20" transform="translate(874.099808 0)"/>
    <use xlink:href="#HelveticaNeue-4d" transform="translate(901.899796 0)"/>
    <use xlink:href="#HelveticaNeue-61" transform="translate(988.999786 0)"/>
    <use xlink:href="#HelveticaNeue-79" transform="translate(1042.699783 0)"/>
    <use xlink:href="#HelveticaNeue-20" transform="translate(1092.699768 0)"/>
    <use xlink:href="#HelveticaNeue-31" transform="translate(1120.499756 0)"/>
    <use xlink:href="#HelveticaNeue-32" transform="translate(1176.099747 0)"/>
    <use xlink:href="#HelveticaNeue-20" transform="translate(1231.699738 0)"/>
    <use xlink:href="#HelveticaNeue-2013" transform="translate(1259.499725 0)"/>
    <use xlink:href="#HelveticaNeue-20" transform="translate(1309.49971 0)"/>
    <use xlink:href="#HelveticaNeue-4a" transform="translate(1337.299698 0)"/>
    <use xlink:href="#HelveticaNeue-75" transform="translate(1389.199692 0)"/>
    <use xlink:href="#HelveticaNeue-6e" transform="translate(1444.799683 0)"/>
    <use xlink:href="#HelveticaNeue-20" transform="translate(1500.399673 0)"/>
    <use xlink:href="#HelveticaNeue-34" transform="translate(1528.199661 0)"/>
    <use xlink:href="#HelveticaNeue-20" transform="translate(1583.799652 0)"/>
    <use xlink:href="#HelveticaNeue-28" transform="translate(1611.59964 0)"/>
    <use xlink:href="#HelveticaNeue-48" transform="translate(1637.499634 0)"/>
    <use xlink:href="#HelveticaNeue-59" transform="translate(1709.699615 0)"/>
    <use xlink:href="#HelveticaNeue-50" transform="translate(1774.499603 0)"/>
    <use xlink:href="#HelveticaNeue-47" transform="translate(1839.299591 0)"/>
    <use xlink:href="#HelveticaNeue-20" transform="translate(1915.199585 0)"/>
    <use xlink:href="#HelveticaNeue-6c" transform="translate(1942.999573 0)"/>
    <use xlink:href="#HelveticaNeue-69" transform="translate(1965.19957 0)"/>
    <use xlink:href="#HelveticaNeue-73" transform="translate(1987.399567 0)"/>
    <use xlink:href="#HelveticaNeue-74" transform="translate(2037.399551 0)"/>
    <use xlink:href="#HelveticaNeue-65" transform="translate(2068.899536 0)"/>
    <use xlink:href="#HelveticaNeue-64" transform="translate(2122.599533 0)"/>
    <use xlink:href="#HelveticaNeue-20" transform="translate(2181.899521 0)"/>
    <use xlink:href="#HelveticaNeue-4a" transform="translate(2209.699509 0)"/>
    <use xlink:href="#HelveticaNeue-75" transform="translate(2261.599503 0)"/>
    <use xlink:href="#HelveticaNeue-6e" transform="translate(2317.199493 0)"/>
    <use xlink:href="#HelveticaNeue-20" transform="translate(2372.799484 0)"/>
    <use xlink:href="#HelveticaNeue-33" transform="translate(2400.599472 0)"/>
    <use xlink:href="#HelveticaNeue-29" transform="translate(2456.199463 0)"/>
   </g>
  </g>
  <g id="text_30">
   <!-- HYPE ETF RESEARCH -->
   <g style="fill: #98a1ad" transform="translate(72.576 440.9856) scale(0.09 -0.09)">
    <defs>
     <path id="Menlo-Regular-48" d="M 428 4666 
L 1063 4666 
L 1063 2878 
L 2791 2878 
L 2791 4666 
L 3425 4666 
L 3425 0 
L 2791 0 
L 2791 2347 
L 1063 2347 
L 1063 0 
L 428 0 
L 428 4666 
z
" transform="scale(0.015625)"/>
     <path id="Menlo-Regular-43" d="M 3353 166 
Q 3113 38 2859 -26 
Q 2606 -91 2322 -91 
Q 1425 -91 929 543 
Q 434 1178 434 2328 
Q 434 3472 932 4111 
Q 1431 4750 2322 4750 
Q 2606 4750 2859 4686 
Q 3113 4622 3353 4494 
L 3353 3847 
Q 3122 4038 2856 4138 
Q 2591 4238 2322 4238 
Q 1706 4238 1400 3763 
Q 1094 3288 1094 2328 
Q 1094 1372 1400 897 
Q 1706 422 2322 422 
Q 2597 422 2861 522 
Q 3125 622 3353 813 
L 3353 166 
z
" transform="scale(0.015625)"/>
    </defs>
    <use xlink:href="#Menlo-Regular-48"/>
    <use xlink:href="#Menlo-Regular-59" transform="translate(60.205078 0)"/>
    <use xlink:href="#Menlo-Regular-50" transform="translate(120.410156 0)"/>
    <use xlink:href="#Menlo-Regular-45" transform="translate(180.615234 0)"/>
    <use xlink:href="#Menlo-Regular-20" transform="translate(240.820312 0)"/>
    <use xlink:href="#Menlo-Regular-45" transform="translate(301.025391 0)"/>
    <use xlink:href="#Menlo-Regular-54" transform="translate(361.230469 0)"/>
    <use xlink:href="#Menlo-Regular-46" transform="translate(421.435547 0)"/>
    <use xlink:href="#Menlo-Regular-20" transform="translate(481.640625 0)"/>
    <use xlink:href="#Menlo-Regular-52" transform="translate(541.845703 0)"/>
    <use xlink:href="#Menlo-Regular-45" transform="translate(602.050781 0)"/>
    <use xlink:href="#Menlo-Regular-53" transform="translate(662.255859 0)"/>
    <use xlink:href="#Menlo-Regular-45" transform="translate(722.460938 0)"/>
    <use xlink:href="#Menlo-Regular-41" transform="translate(782.666016 0)"/>
    <use xlink:href="#Menlo-Regular-52" transform="translate(842.871094 0)"/>
    <use xlink:href="#Menlo-Regular-43" transform="translate(903.076172 0)"/>
    <use xlink:href="#Menlo-Regular-48" transform="translate(963.28125 0)"/>
   </g>
  </g>
  <g id="text_31">
   <!-- Source: Farside Investors (farside.co.uk/hyp), recorded Jun 5 2026 -->
   <g style="fill: #98a1ad" transform="translate(396.690937 440.9856) scale(0.084 -0.084)">
    <defs>
     <path id="HelveticaNeue-3a" d="M 1242 2598 
L 1242 3309 
L 531 3309 
L 531 2598 
L 1242 2598 
z
M 531 710 
L 531 0 
L 1242 0 
L 1242 710 
L 531 710 
z
" transform="scale(0.015625)"/>
     <path id="HelveticaNeue-46" d="M 499 4570 
L 499 0 
L 1107 0 
L 1107 2093 
L 3206 2093 
L 3206 2605 
L 1107 2605 
L 1107 4058 
L 3501 4058 
L 3501 4570 
L 499 4570 
z
" transform="scale(0.015625)"/>
     <path id="HelveticaNeue-49" d="M 525 4570 
L 525 0 
L 1133 0 
L 1133 4570 
L 525 4570 
z
" transform="scale(0.015625)"/>
     <path id="HelveticaNeue-76" d="M 1901 0 
L 3110 3309 
L 2541 3309 
L 1638 550 
L 1626 550 
L 698 3309 
L 90 3309 
L 1318 0 
L 1901 0 
z
" transform="scale(0.015625)"/>
     <path id="HelveticaNeue-2e" d="M 531 710 
L 531 0 
L 1242 0 
L 1242 710 
L 531 710 
z
" transform="scale(0.015625)"/>
     <path id="HelveticaNeue-6b" d="M 442 4570 
L 442 0 
L 986 0 
L 986 1254 
L 1498 1728 
L 2630 0 
L 3322 0 
L 1914 2106 
L 3226 3309 
L 2496 3309 
L 986 1862 
L 986 4570 
L 442 4570 
z
" transform="scale(0.015625)"/>
     <path id="HelveticaNeue-2f" d="M 1779 4678 
L -109 -102 
L 352 -102 
L 2246 4678 
L 1779 4678 
z
" transform="scale(0.015625)"/>
     <path id="HelveticaNeue-70" d="M 429 3309 
L 429 -1261 
L 973 -1261 
L 973 442 
L 986 442 
Q 1075 294 1206 195 
Q 1338 96 1485 38 
Q 1632 -19 1782 -44 
Q 1933 -70 2054 -70 
Q 2432 -70 2717 64 
Q 3002 198 3190 432 
Q 3379 666 3472 979 
Q 3565 1293 3565 1645 
Q 3565 1997 3469 2310 
Q 3373 2624 3184 2864 
Q 2995 3104 2710 3245 
Q 2426 3386 2042 3386 
Q 1696 3386 1408 3261 
Q 1120 3136 986 2861 
L 973 2861 
L 973 3309 
L 429 3309 
z
M 2989 1683 
Q 2989 1440 2937 1209 
Q 2886 979 2771 800 
Q 2656 621 2467 512 
Q 2278 403 1997 403 
Q 1715 403 1516 508 
Q 1318 614 1193 787 
Q 1069 960 1011 1187 
Q 954 1414 954 1658 
Q 954 1888 1008 2112 
Q 1062 2336 1184 2512 
Q 1306 2688 1498 2797 
Q 1690 2906 1965 2906 
Q 2227 2906 2422 2803 
Q 2618 2701 2742 2528 
Q 2867 2355 2928 2134 
Q 2989 1914 2989 1683 
z
" transform="scale(0.015625)"/>
    </defs>
    <use xlink:href="#HelveticaNeue-53"/>
    <use xlink:href="#HelveticaNeue-6f" transform="translate(64.799988 0)"/>
    <use xlink:href="#HelveticaNeue-75" transform="translate(122.199982 0)"/>
    <use xlink:href="#HelveticaNeue-72" transform="translate(177.799973 0)"/>
    <use xlink:href="#HelveticaNeue-63" transform="translate(209.34996 0)"/>
    <use xlink:href="#HelveticaNeue-65" transform="translate(263.049957 0)"/>
    <use xlink:href="#HelveticaNeue-3a" transform="translate(316.749954 0)"/>
    <use xlink:href="#HelveticaNeue-20" transform="translate(344.549942 0)"/>
    <use xlink:href="#HelveticaNeue-46" transform="translate(372.34993 0)"/>
    <use xlink:href="#HelveticaNeue-61" transform="translate(429.749924 0)"/>
    <use xlink:href="#HelveticaNeue-72" transform="translate(483.449921 0)"/>
    <use xlink:href="#HelveticaNeue-73" transform="translate(516.749908 0)"/>
    <use xlink:href="#HelveticaNeue-69" transform="translate(566.749893 0)"/>
    <use xlink:href="#HelveticaNeue-64" transform="translate(588.94989 0)"/>
    <use xlink:href="#HelveticaNeue-65" transform="translate(648.249878 0)"/>
    <use xlink:href="#HelveticaNeue-20" transform="translate(701.949875 0)"/>
    <use xlink:href="#HelveticaNeue-49" transform="translate(729.749863 0)"/>
    <use xlink:href="#HelveticaNeue-6e" transform="translate(755.649857 0)"/>
    <use xlink:href="#HelveticaNeue-76" transform="translate(811.249847 0)"/>
    <use xlink:href="#HelveticaNeue-65" transform="translate(861.249832 0)"/>
    <use xlink:href="#HelveticaNeue-73" transform="translate(914.949829 0)"/>
    <use xlink:href="#HelveticaNeue-74" transform="translate(964.949814 0)"/>
    <use xlink:href="#HelveticaNeue-6f" transform="translate(996.449799 0)"/>
    <use xlink:href="#HelveticaNeue-72" transform="translate(1053.849792 0)"/>
    <use xlink:href="#HelveticaNeue-73" transform="translate(1087.14978 0)"/>
    <use xlink:href="#HelveticaNeue-20" transform="translate(1137.149765 0)"/>
    <use xlink:href="#HelveticaNeue-28" transform="translate(1164.949753 0)"/>
    <use xlink:href="#HelveticaNeue-66" transform="translate(1190.849747 0)"/>
    <use xlink:href="#HelveticaNeue-61" transform="translate(1220.449738 0)"/>
    <use xlink:href="#HelveticaNeue-72" transform="translate(1274.149734 0)"/>
    <use xlink:href="#HelveticaNeue-73" transform="translate(1307.449722 0)"/>
    <use xlink:href="#HelveticaNeue-69" transform="translate(1357.449707 0)"/>
    <use xlink:href="#HelveticaNeue-64" transform="translate(1379.649704 0)"/>
    <use xlink:href="#HelveticaNeue-65" transform="translate(1438.949692 0)"/>
    <use xlink:href="#HelveticaNeue-2e" transform="translate(1492.649689 0)"/>
    <use xlink:href="#HelveticaNeue-63" transform="translate(1520.449677 0)"/>
    <use xlink:href="#HelveticaNeue-6f" transform="translate(1574.149673 0)"/>
    <use xlink:href="#HelveticaNeue-2e" transform="translate(1631.549667 0)"/>
    <use xlink:href="#HelveticaNeue-75" transform="translate(1659.349655 0)"/>
    <use xlink:href="#HelveticaNeue-6b" transform="translate(1714.949646 0)"/>
    <use xlink:href="#HelveticaNeue-2f" transform="translate(1766.84964 0)"/>
    <use xlink:href="#HelveticaNeue-68" transform="translate(1800.149628 0)"/>
    <use xlink:href="#HelveticaNeue-79" transform="translate(1855.749619 0)"/>
    <use xlink:href="#HelveticaNeue-70" transform="translate(1905.749603 0)"/>
    <use xlink:href="#HelveticaNeue-29" transform="translate(1965.049591 0)"/>
    <use xlink:href="#HelveticaNeue-2c" transform="translate(1990.949585 0)"/>
    <use xlink:href="#HelveticaNeue-20" transform="translate(2018.749573 0)"/>
    <use xlink:href="#HelveticaNeue-72" transform="translate(2046.549561 0)"/>
    <use xlink:href="#HelveticaNeue-65" transform="translate(2078.099548 0)"/>
    <use xlink:href="#HelveticaNeue-63" transform="translate(2131.799545 0)"/>
    <use xlink:href="#HelveticaNeue-6f" transform="translate(2185.499542 0)"/>
    <use xlink:href="#HelveticaNeue-72" transform="translate(2242.899536 0)"/>
    <use xlink:href="#HelveticaNeue-64" transform="translate(2274.449524 0)"/>
    <use xlink:href="#HelveticaNeue-65" transform="translate(2333.749512 0)"/>
    <use xlink:href="#HelveticaNeue-64" transform="translate(2387.449509 0)"/>
    <use xlink:href="#HelveticaNeue-20" transform="translate(2446.749496 0)"/>
    <use xlink:href="#HelveticaNeue-4a" transform="translate(2474.549484 0)"/>
    <use xlink:href="#HelveticaNeue-75" transform="translate(2526.449478 0)"/>
    <use xlink:href="#HelveticaNeue-6e" transform="translate(2582.049469 0)"/>
    <use xlink:href="#HelveticaNeue-20" transform="translate(2637.64946 0)"/>
    <use xlink:href="#HelveticaNeue-35" transform="translate(2665.449448 0)"/>
    <use xlink:href="#HelveticaNeue-20" transform="translate(2721.049438 0)"/>
    <use xlink:href="#HelveticaNeue-32" transform="translate(2748.849426 0)"/>
    <use xlink:href="#HelveticaNeue-30" transform="translate(2804.449417 0)"/>
    <use xlink:href="#HelveticaNeue-32" transform="translate(2860.049408 0)"/>
    <use xlink:href="#HelveticaNeue-36" transform="translate(2915.649399 0)"/>
   </g>
  </g>
 </g>
 <defs>
  <clipPath id="p14085e1d2e">
   <rect x="72.576" y="130.68" width="573.696" height="266.112"/>
  </clipPath>
 </defs>
</svg>
