<?xml version="1.0" encoding="utf-8" standalone="no"?>
<!DOCTYPE svg PUBLIC "-//W3C//DTD SVG 1.1//EN"
  "http://www.w3.org/Graphics/SVG/1.1/DTD/svg11.dtd">
<svg xmlns:xlink="http://www.w3.org/1999/xlink" width="835.2pt" height="619.2pt" viewBox="0 0 835.2 619.2" xmlns="http://www.w3.org/2000/svg" version="1.1">
 <metadata>
  <rdf:RDF xmlns:dc="http://purl.org/dc/elements/1.1/" xmlns:cc="http://creativecommons.org/ns#" xmlns:rdf="http://www.w3.org/1999/02/22-rdf-syntax-ns#">
   <cc:Work>
    <dc:type rdf:resource="http://purl.org/dc/dcmitype/StillImage"/>
    <dc:date>2026-06-06T00:09:57.710668</dc:date>
    <dc:format>image/svg+xml</dc:format>
    <dc:creator>
     <cc:Agent>
      <dc:title>Matplotlib v3.10.9, https://matplotlib.org/</dc:title>
     </cc:Agent>
    </dc:creator>
   </cc:Work>
  </rdf:RDF>
 </metadata>
 <defs>
  <style type="text/css">*{stroke-linejoin: round; stroke-linecap: butt}</style>
 </defs>
 <g id="figure_1">
  <g id="patch_1">
   <path d="M 0 619.2 
L 835.2 619.2 
L 835.2 0 
L 0 0 
z
" style="fill: #f5f6f8"/>
  </g>
  <g id="axes_1">
   <g id="patch_2">
    <path d="M 87.696 331.322106 
L 780.912 331.322106 
L 780.912 123.84 
L 87.696 123.84 
z
" style="fill: #ffffff"/>
   </g>
   <g id="matplotlib.axis_1">
    <g id="xtick_1">
     <g id="line2d_1"/>
    </g>
    <g id="xtick_2">
     <g id="line2d_2"/>
    </g>
    <g id="xtick_3">
     <g id="line2d_3"/>
    </g>
    <g id="xtick_4">
     <g id="line2d_4"/>
    </g>
    <g id="xtick_5">
     <g id="line2d_5"/>
    </g>
   </g>
   <g id="matplotlib.axis_2">
    <g id="ytick_1">
     <g id="line2d_6">
      <path d="M 87.696 321.153306 
L 780.912 321.153306 
" clip-path="url(#p480691b5e9)" style="fill: none; stroke: #e9ecf1; stroke-width: 0.8; stroke-linecap: square"/>
     </g>
     <g id="line2d_7"/>
     <g id="text_1">
      <!-- 80 -->
      <g style="fill: #5b6470" transform="translate(72.155375 324.966587) scale(0.1 -0.1)">
       <defs>
        <path id="Menlo-Regular-38" d="M 1925 2216 
Q 1503 2216 1273 1980 
Q 1044 1744 1044 1313 
Q 1044 881 1276 642 
Q 1509 403 1925 403 
Q 2350 403 2579 639 
Q 2809 875 2809 1313 
Q 2809 1741 2576 1978 
Q 2344 2216 1925 2216 
z
M 1375 2478 
Q 972 2581 745 2862 
Q 519 3144 519 3541 
Q 519 4097 897 4423 
Q 1275 4750 1925 4750 
Q 2578 4750 2956 4423 
Q 3334 4097 3334 3541 
Q 3334 3144 3107 2862 
Q 2881 2581 2478 2478 
Q 2947 2375 3195 2062 
Q 3444 1750 3444 1253 
Q 3444 622 3041 265 
Q 2638 -91 1925 -91 
Q 1213 -91 811 264 
Q 409 619 409 1247 
Q 409 1747 657 2061 
Q 906 2375 1375 2478 
z
M 1147 3481 
Q 1147 3106 1347 2909 
Q 1547 2713 1925 2713 
Q 2306 2713 2506 2909 
Q 2706 3106 2706 3481 
Q 2706 3863 2507 4063 
Q 2309 4263 1925 4263 
Q 1547 4263 1347 4061 
Q 1147 3859 1147 3481 
z
" transform="scale(0.015625)"/>
        <path id="Menlo-Regular-30" d="M 1925 4734 
Q 2672 4734 3055 4125 
Q 3438 3516 3438 2322 
Q 3438 1128 3055 518 
Q 2672 -91 1925 -91 
Q 1178 -91 797 518 
Q 416 1128 416 2322 
Q 416 3516 797 4125 
Q 1178 4734 1925 4734 
z
M 1925 409 
Q 2369 409 2586 881 
Q 2803 1353 2803 2322 
Q 2803 2838 2741 3253 
L 1253 925 
Q 1488 409 1925 409 
z
M 1925 4234 
Q 1484 4234 1267 3762 
Q 1050 3291 1050 2322 
Q 1050 1881 1109 1497 
L 2566 3819 
Q 2328 4234 1925 4234 
z
" transform="scale(0.015625)"/>
       </defs>
       <use xlink:href="#Menlo-Regular-38"/>
       <use xlink:href="#Menlo-Regular-30" transform="translate(60.205078 0)"/>
      </g>
     </g>
    </g>
    <g id="ytick_2">
     <g id="line2d_8">
      <path d="M 87.696 286.20949 
L 780.912 286.20949 
" clip-path="url(#p480691b5e9)" style="fill: none; stroke: #e9ecf1; stroke-width: 0.8; stroke-linecap: square"/>
     </g>
     <g id="line2d_9"/>
     <g id="text_2">
      <!-- 100 -->
      <g style="fill: #5b6470" transform="translate(66.135062 290.022771) scale(0.1 -0.1)">
       <defs>
        <path id="Menlo-Regular-31" d="M 844 528 
L 1825 528 
L 1825 4053 
L 650 3488 
L 650 4094 
L 1819 4650 
L 2450 4650 
L 2450 528 
L 3419 528 
L 3419 0 
L 844 0 
L 844 528 
z
" transform="scale(0.015625)"/>
       </defs>
       <use xlink:href="#Menlo-Regular-31"/>
       <use xlink:href="#Menlo-Regular-30" transform="translate(60.205078 0)"/>
       <use xlink:href="#Menlo-Regular-30" transform="translate(120.410156 0)"/>
      </g>
     </g>
    </g>
    <g id="ytick_3">
     <g id="line2d_10">
      <path d="M 87.696 251.265674 
L 780.912 251.265674 
" clip-path="url(#p480691b5e9)" style="fill: none; stroke: #e9ecf1; stroke-width: 0.8; stroke-linecap: square"/>
     </g>
     <g id="line2d_11"/>
     <g id="text_3">
      <!-- 120 -->
      <g style="fill: #5b6470" transform="translate(66.135062 255.078955) scale(0.1 -0.1)">
       <defs>
        <path id="Menlo-Regular-32" d="M 1166 531 
L 3309 531 
L 3309 0 
L 475 0 
L 475 531 
Q 1059 1147 1496 1619 
Q 1934 2091 2100 2284 
Q 2413 2666 2522 2902 
Q 2631 3138 2631 3384 
Q 2631 3775 2401 3997 
Q 2172 4219 1772 4219 
Q 1488 4219 1175 4116 
Q 863 4013 513 3803 
L 513 4441 
Q 834 4594 1145 4672 
Q 1456 4750 1759 4750 
Q 2444 4750 2861 4386 
Q 3278 4022 3278 3431 
Q 3278 3131 3139 2831 
Q 3000 2531 2688 2169 
Q 2513 1966 2180 1606 
Q 1847 1247 1166 531 
z
" transform="scale(0.015625)"/>
       </defs>
       <use xlink:href="#Menlo-Regular-31"/>
       <use xlink:href="#Menlo-Regular-32" transform="translate(60.205078 0)"/>
       <use xlink:href="#Menlo-Regular-30" transform="translate(120.410156 0)"/>
      </g>
     </g>
    </g>
    <g id="ytick_4">
     <g id="line2d_12">
      <path d="M 87.696 216.321858 
L 780.912 216.321858 
" clip-path="url(#p480691b5e9)" style="fill: none; stroke: #e9ecf1; stroke-width: 0.8; stroke-linecap: square"/>
     </g>
     <g id="line2d_13"/>
     <g id="text_4">
      <!-- 140 -->
      <g style="fill: #5b6470" transform="translate(66.135062 220.135139) scale(0.1 -0.1)">
       <defs>
        <path id="Menlo-Regular-34" d="M 2297 4091 
L 825 1625 
L 2297 1625 
L 2297 4091 
z
M 2194 4666 
L 2925 4666 
L 2925 1625 
L 3547 1625 
L 3547 1113 
L 2925 1113 
L 2925 0 
L 2297 0 
L 2297 1113 
L 319 1113 
L 319 1709 
L 2194 4666 
z
" transform="scale(0.015625)"/>
       </defs>
       <use xlink:href="#Menlo-Regular-31"/>
       <use xlink:href="#Menlo-Regular-34" transform="translate(60.205078 0)"/>
       <use xlink:href="#Menlo-Regular-30" transform="translate(120.410156 0)"/>
      </g>
     </g>
    </g>
    <g id="ytick_5">
     <g id="line2d_14">
      <path d="M 87.696 181.378042 
L 780.912 181.378042 
" clip-path="url(#p480691b5e9)" style="fill: none; stroke: #e9ecf1; stroke-width: 0.8; stroke-linecap: square"/>
     </g>
     <g id="line2d_15"/>
     <g id="text_5">
      <!-- 160 -->
      <g style="fill: #5b6470" transform="translate(66.135062 185.191323) scale(0.1 -0.1)">
       <defs>
        <path id="Menlo-Regular-36" d="M 3097 4563 
L 3097 3981 
Q 2900 4097 2678 4158 
Q 2456 4219 2216 4219 
Q 1616 4219 1306 3767 
Q 997 3316 997 2438 
Q 1147 2750 1412 2917 
Q 1678 3084 2022 3084 
Q 2697 3084 3067 2670 
Q 3438 2256 3438 1497 
Q 3438 741 3056 325 
Q 2675 -91 1984 -91 
Q 1172 -91 794 492 
Q 416 1075 416 2328 
Q 416 3509 870 4129 
Q 1325 4750 2188 4750 
Q 2419 4750 2650 4701 
Q 2881 4653 3097 4563 
z
M 1972 2591 
Q 1569 2591 1337 2300 
Q 1106 2009 1106 1497 
Q 1106 984 1337 693 
Q 1569 403 1972 403 
Q 2391 403 2603 679 
Q 2816 956 2816 1497 
Q 2816 2041 2603 2316 
Q 2391 2591 1972 2591 
z
" transform="scale(0.015625)"/>
       </defs>
       <use xlink:href="#Menlo-Regular-31"/>
       <use xlink:href="#Menlo-Regular-36" transform="translate(60.205078 0)"/>
       <use xlink:href="#Menlo-Regular-30" transform="translate(120.410156 0)"/>
      </g>
     </g>
    </g>
    <g id="ytick_6">
     <g id="line2d_16">
      <path d="M 87.696 146.434226 
L 780.912 146.434226 
" clip-path="url(#p480691b5e9)" style="fill: none; stroke: #e9ecf1; stroke-width: 0.8; stroke-linecap: square"/>
     </g>
     <g id="line2d_17"/>
     <g id="text_6">
      <!-- 180 -->
      <g style="fill: #5b6470" transform="translate(66.135062 150.247507) scale(0.1 -0.1)">
       <use xlink:href="#Menlo-Regular-31"/>
       <use xlink:href="#Menlo-Regular-38" transform="translate(60.205078 0)"/>
       <use xlink:href="#Menlo-Regular-30" transform="translate(120.410156 0)"/>
      </g>
     </g>
    </g>
    <g id="text_7">
     <!-- Price, indexed to 100 (May 1) -->
     <g style="fill: #5b6470" transform="translate(60.168266 289.519569) rotate(-90) scale(0.095 -0.095)">
      <defs>
       <path id="HelveticaNeue-50" d="M 1107 2381 
L 1107 4058 
L 2298 4058 
Q 2816 4058 3056 3843 
Q 3296 3629 3296 3219 
Q 3296 2810 3056 2592 
Q 2816 2374 2298 2381 
L 1107 2381 
z
M 499 4570 
L 499 0 
L 1107 0 
L 1107 1869 
L 2502 1869 
Q 3194 1862 3549 2220 
Q 3904 2579 3904 3219 
Q 3904 3859 3549 4214 
Q 3194 4570 2502 4570 
L 499 4570 
z
" transform="scale(0.015625)"/>
       <path id="HelveticaNeue-72" d="M 390 3309 
L 390 0 
L 934 0 
L 934 1472 
Q 934 1792 998 2038 
Q 1062 2285 1203 2457 
Q 1344 2630 1574 2720 
Q 1805 2810 2131 2810 
L 2131 3386 
Q 1690 3398 1402 3206 
Q 1114 3014 915 2611 
L 902 2611 
L 902 3309 
L 390 3309 
z
" transform="scale(0.015625)"/>
       <path id="HelveticaNeue-69" d="M 986 3904 
L 986 4570 
L 442 4570 
L 442 3904 
L 986 3904 
z
M 442 3309 
L 442 0 
L 986 0 
L 986 3309 
L 442 3309 
z
" transform="scale(0.015625)"/>
       <path id="HelveticaNeue-63" d="M 2656 2246 
L 3219 2246 
Q 3187 2541 3065 2755 
Q 2944 2970 2755 3110 
Q 2566 3251 2320 3318 
Q 2074 3386 1792 3386 
Q 1402 3386 1107 3248 
Q 813 3110 617 2870 
Q 422 2630 326 2307 
Q 230 1984 230 1613 
Q 230 1242 329 931 
Q 429 621 624 397 
Q 819 173 1110 51 
Q 1402 -70 1779 -70 
Q 2413 -70 2781 262 
Q 3149 595 3238 1210 
L 2682 1210 
Q 2630 826 2403 614 
Q 2176 403 1773 403 
Q 1517 403 1331 505 
Q 1146 608 1030 777 
Q 915 947 860 1164 
Q 806 1382 806 1613 
Q 806 1862 857 2096 
Q 909 2330 1027 2509 
Q 1146 2688 1344 2797 
Q 1542 2906 1837 2906 
Q 2182 2906 2387 2733 
Q 2592 2560 2656 2246 
z
" transform="scale(0.015625)"/>
       <path id="HelveticaNeue-65" d="M 2707 1971 
L 806 1971 
Q 819 2163 889 2332 
Q 960 2502 1081 2630 
Q 1203 2758 1372 2832 
Q 1542 2906 1754 2906 
Q 1958 2906 2128 2832 
Q 2298 2758 2422 2633 
Q 2547 2509 2620 2336 
Q 2694 2163 2707 1971 
z
M 3232 1050 
L 2694 1050 
Q 2624 723 2403 563 
Q 2182 403 1837 403 
Q 1568 403 1369 492 
Q 1171 582 1043 732 
Q 915 883 857 1078 
Q 800 1274 806 1491 
L 3283 1491 
Q 3296 1792 3229 2125 
Q 3162 2458 2986 2739 
Q 2810 3021 2518 3203 
Q 2227 3386 1786 3386 
Q 1446 3386 1161 3258 
Q 877 3130 669 2899 
Q 461 2669 345 2355 
Q 230 2042 230 1664 
Q 243 1286 342 966 
Q 442 646 640 416 
Q 838 186 1129 58 
Q 1421 -70 1818 -70 
Q 2381 -70 2752 211 
Q 3123 493 3232 1050 
z
" transform="scale(0.015625)"/>
       <path id="HelveticaNeue-2c" d="M 531 710 
L 531 0 
L 909 0 
Q 915 -77 899 -166 
Q 883 -256 838 -342 
Q 794 -429 720 -502 
Q 646 -576 538 -614 
L 538 -934 
Q 909 -826 1075 -563 
Q 1242 -301 1242 64 
L 1242 710 
L 531 710 
z
" transform="scale(0.015625)"/>
       <path id="HelveticaNeue-20" transform="scale(0.015625)"/>
       <path id="HelveticaNeue-6e" d="M 410 3309 
L 410 0 
L 954 0 
L 954 1869 
Q 954 2093 1014 2281 
Q 1075 2470 1196 2611 
Q 1318 2752 1500 2829 
Q 1683 2906 1933 2906 
Q 2246 2906 2425 2726 
Q 2605 2547 2605 2240 
L 2605 0 
L 3149 0 
L 3149 2176 
Q 3149 2445 3094 2665 
Q 3040 2886 2905 3046 
Q 2771 3206 2553 3296 
Q 2336 3386 2010 3386 
Q 1274 3386 934 2784 
L 922 2784 
L 922 3309 
L 410 3309 
z
" transform="scale(0.015625)"/>
       <path id="HelveticaNeue-64" d="M 806 1626 
Q 806 1869 857 2099 
Q 909 2330 1024 2509 
Q 1139 2688 1331 2797 
Q 1523 2906 1798 2906 
Q 2080 2906 2278 2800 
Q 2477 2694 2601 2521 
Q 2726 2349 2784 2121 
Q 2842 1894 2842 1651 
Q 2842 1421 2787 1197 
Q 2733 973 2611 797 
Q 2490 621 2298 512 
Q 2106 403 1830 403 
Q 1568 403 1373 505 
Q 1178 608 1053 781 
Q 928 954 867 1174 
Q 806 1395 806 1626 
z
M 3366 0 
L 3366 4570 
L 2822 4570 
L 2822 2867 
L 2810 2867 
Q 2720 3014 2589 3113 
Q 2458 3213 2310 3273 
Q 2163 3334 2016 3360 
Q 1869 3386 1741 3386 
Q 1363 3386 1078 3248 
Q 794 3110 605 2876 
Q 416 2643 323 2329 
Q 230 2016 230 1664 
Q 230 1312 326 998 
Q 422 685 611 448 
Q 800 211 1085 70 
Q 1370 -70 1754 -70 
Q 2099 -70 2387 51 
Q 2675 173 2810 448 
L 2822 448 
L 2822 0 
L 3366 0 
z
" transform="scale(0.015625)"/>
       <path id="HelveticaNeue-78" d="M 1299 1741 
L 58 0 
L 717 0 
L 1638 1370 
L 2560 0 
L 3258 0 
L 1978 1786 
L 3117 3309 
L 2464 3309 
L 1638 2150 
L 845 3309 
L 147 3309 
L 1299 1741 
z
" transform="scale(0.015625)"/>
       <path id="HelveticaNeue-74" d="M 1165 3309 
L 1165 4301 
L 621 4301 
L 621 3309 
L 58 3309 
L 58 2829 
L 621 2829 
L 621 723 
Q 621 493 665 352 
Q 710 211 803 134 
Q 896 58 1046 29 
Q 1197 0 1408 0 
L 1824 0 
L 1824 480 
L 1574 480 
Q 1446 480 1366 489 
Q 1286 499 1241 531 
Q 1197 563 1181 620 
Q 1165 678 1165 774 
L 1165 2829 
L 1824 2829 
L 1824 3309 
L 1165 3309 
z
" transform="scale(0.015625)"/>
       <path id="HelveticaNeue-6f" d="M 806 1651 
Q 806 1952 886 2185 
Q 966 2419 1107 2579 
Q 1248 2739 1437 2822 
Q 1626 2906 1837 2906 
Q 2048 2906 2237 2822 
Q 2426 2739 2566 2579 
Q 2707 2419 2787 2185 
Q 2867 1952 2867 1651 
Q 2867 1350 2787 1116 
Q 2707 883 2566 726 
Q 2426 570 2237 486 
Q 2048 403 1837 403 
Q 1626 403 1437 486 
Q 1248 570 1107 726 
Q 966 883 886 1116 
Q 806 1350 806 1651 
z
M 230 1651 
Q 230 1286 332 972 
Q 435 659 640 425 
Q 845 192 1145 61 
Q 1446 -70 1837 -70 
Q 2234 -70 2531 61 
Q 2829 192 3033 425 
Q 3238 659 3340 972 
Q 3443 1286 3443 1651 
Q 3443 2016 3340 2333 
Q 3238 2650 3033 2883 
Q 2829 3117 2531 3251 
Q 2234 3386 1837 3386 
Q 1446 3386 1145 3251 
Q 845 3117 640 2883 
Q 435 2650 332 2333 
Q 230 2016 230 1651 
z
" transform="scale(0.015625)"/>
       <path id="HelveticaNeue-31" d="M 2278 0 
L 2278 4538 
L 1862 4538 
Q 1818 4282 1696 4115 
Q 1574 3949 1398 3853 
Q 1222 3757 1004 3721 
Q 787 3686 557 3686 
L 557 3251 
L 1734 3251 
L 1734 0 
L 2278 0 
z
" transform="scale(0.015625)"/>
       <path id="HelveticaNeue-30" d="M 845 2234 
Q 845 2400 848 2601 
Q 851 2803 880 3004 
Q 909 3206 963 3398 
Q 1018 3590 1123 3734 
Q 1229 3878 1389 3968 
Q 1549 4058 1779 4058 
Q 2010 4058 2170 3968 
Q 2330 3878 2435 3734 
Q 2541 3590 2595 3398 
Q 2650 3206 2678 3004 
Q 2707 2803 2710 2601 
Q 2714 2400 2714 2234 
Q 2714 1978 2698 1661 
Q 2682 1344 2595 1065 
Q 2509 787 2317 595 
Q 2125 403 1779 403 
Q 1434 403 1242 595 
Q 1050 787 963 1065 
Q 877 1344 861 1661 
Q 845 1978 845 2234 
z
M 269 2227 
Q 269 1978 281 1709 
Q 294 1440 345 1184 
Q 397 928 493 701 
Q 589 474 755 301 
Q 922 128 1174 29 
Q 1427 -70 1779 -70 
Q 2138 -70 2387 29 
Q 2637 128 2803 301 
Q 2970 474 3066 701 
Q 3162 928 3213 1184 
Q 3264 1440 3277 1709 
Q 3290 1978 3290 2227 
Q 3290 2477 3277 2745 
Q 3264 3014 3213 3270 
Q 3162 3526 3066 3756 
Q 2970 3987 2803 4160 
Q 2637 4333 2384 4435 
Q 2131 4538 1779 4538 
Q 1427 4538 1174 4435 
Q 922 4333 755 4160 
Q 589 3987 493 3756 
Q 397 3526 345 3270 
Q 294 3014 281 2745 
Q 269 2477 269 2227 
z
" transform="scale(0.015625)"/>
       <path id="HelveticaNeue-28" d="M 1306 -1261 
L 1722 -1261 
Q 1267 -525 1072 198 
Q 877 922 877 1728 
Q 877 2515 1069 3232 
Q 1261 3949 1722 4678 
L 1306 4678 
Q 806 4019 553 3251 
Q 301 2483 301 1728 
Q 301 1306 371 922 
Q 442 538 573 173 
Q 704 -192 889 -547 
Q 1075 -902 1306 -1261 
z
" transform="scale(0.015625)"/>
       <path id="HelveticaNeue-4d" d="M 512 4570 
L 512 0 
L 1088 0 
L 1088 3802 
L 1101 3802 
L 2528 0 
L 3046 0 
L 4474 3802 
L 4486 3802 
L 4486 0 
L 5062 0 
L 5062 4570 
L 4230 4570 
L 2784 730 
L 1344 4570 
L 512 4570 
z
" transform="scale(0.015625)"/>
       <path id="HelveticaNeue-61" d="M 3341 13 
Q 3200 -70 2950 -70 
Q 2739 -70 2614 48 
Q 2490 166 2490 435 
Q 2266 166 1968 48 
Q 1670 -70 1325 -70 
Q 1101 -70 899 -19 
Q 698 32 550 141 
Q 403 250 316 426 
Q 230 602 230 851 
Q 230 1133 326 1312 
Q 422 1491 579 1603 
Q 736 1715 937 1772 
Q 1139 1830 1350 1869 
Q 1574 1914 1776 1936 
Q 1978 1958 2131 2000 
Q 2285 2042 2374 2122 
Q 2464 2202 2464 2355 
Q 2464 2534 2397 2643 
Q 2330 2752 2224 2809 
Q 2118 2867 1987 2886 
Q 1856 2906 1728 2906 
Q 1382 2906 1152 2774 
Q 922 2643 902 2278 
L 358 2278 
Q 371 2586 486 2797 
Q 602 3008 794 3139 
Q 986 3270 1232 3328 
Q 1478 3386 1760 3386 
Q 1984 3386 2205 3354 
Q 2426 3322 2605 3222 
Q 2784 3123 2893 2944 
Q 3002 2765 3002 2477 
L 3002 774 
Q 3002 582 3024 492 
Q 3046 403 3174 403 
Q 3245 403 3341 435 
L 3341 13 
z
M 2458 1709 
Q 2355 1632 2188 1597 
Q 2022 1562 1840 1539 
Q 1658 1517 1472 1488 
Q 1286 1459 1139 1395 
Q 992 1331 899 1212 
Q 806 1094 806 890 
Q 806 755 860 662 
Q 915 570 1001 512 
Q 1088 454 1203 428 
Q 1318 403 1446 403 
Q 1715 403 1907 476 
Q 2099 550 2220 662 
Q 2342 774 2400 905 
Q 2458 1037 2458 1152 
L 2458 1709 
z
" transform="scale(0.015625)"/>
       <path id="HelveticaNeue-79" d="M 1709 -442 
Q 1613 -685 1520 -851 
Q 1427 -1018 1315 -1123 
Q 1203 -1229 1065 -1277 
Q 928 -1325 749 -1325 
Q 653 -1325 557 -1312 
Q 461 -1299 371 -1267 
L 371 -768 
Q 442 -800 534 -822 
Q 627 -845 691 -845 
Q 858 -845 970 -765 
Q 1082 -685 1139 -538 
L 1363 19 
L 51 3309 
L 666 3309 
L 1632 602 
L 1645 602 
L 2573 3309 
L 3149 3309 
L 1709 -442 
z
" transform="scale(0.015625)"/>
       <path id="HelveticaNeue-29" d="M -58 -1261 
L 352 -1261 
Q 851 -602 1104 163 
Q 1357 928 1357 1683 
Q 1357 2106 1286 2490 
Q 1216 2874 1085 3242 
Q 954 3610 768 3965 
Q 582 4320 352 4678 
L -58 4678 
Q 390 3942 585 3216 
Q 781 2490 781 1683 
Q 781 902 589 182 
Q 397 -538 -58 -1261 
z
" transform="scale(0.015625)"/>
      </defs>
      <use xlink:href="#HelveticaNeue-50"/>
      <use xlink:href="#HelveticaNeue-72" transform="translate(64.799988 0)"/>
      <use xlink:href="#HelveticaNeue-69" transform="translate(98.099976 0)"/>
      <use xlink:href="#HelveticaNeue-63" transform="translate(120.299973 0)"/>
      <use xlink:href="#HelveticaNeue-65" transform="translate(173.999969 0)"/>
      <use xlink:href="#HelveticaNeue-2c" transform="translate(227.699966 0)"/>
      <use xlink:href="#HelveticaNeue-20" transform="translate(255.499954 0)"/>
      <use xlink:href="#HelveticaNeue-69" transform="translate(283.299942 0)"/>
      <use xlink:href="#HelveticaNeue-6e" transform="translate(305.499939 0)"/>
      <use xlink:href="#HelveticaNeue-64" transform="translate(361.09993 0)"/>
      <use xlink:href="#HelveticaNeue-65" transform="translate(420.399918 0)"/>
      <use xlink:href="#HelveticaNeue-78" transform="translate(474.099915 0)"/>
      <use xlink:href="#HelveticaNeue-65" transform="translate(525.899902 0)"/>
      <use xlink:href="#HelveticaNeue-64" transform="translate(579.599899 0)"/>
      <use xlink:href="#HelveticaNeue-20" transform="translate(638.899887 0)"/>
      <use xlink:href="#HelveticaNeue-74" transform="translate(666.699875 0)"/>
      <use xlink:href="#HelveticaNeue-6f" transform="translate(698.19986 0)"/>
      <use xlink:href="#HelveticaNeue-20" transform="translate(755.599854 0)"/>
      <use xlink:href="#HelveticaNeue-31" transform="translate(783.399841 0)"/>
      <use xlink:href="#HelveticaNeue-30" transform="translate(838.999832 0)"/>
      <use xlink:href="#HelveticaNeue-30" transform="translate(894.599823 0)"/>
      <use xlink:href="#HelveticaNeue-20" transform="translate(950.199814 0)"/>
      <use xlink:href="#HelveticaNeue-28" transform="translate(977.999802 0)"/>
      <use xlink:href="#HelveticaNeue-4d" transform="translate(1003.899796 0)"/>
      <use xlink:href="#HelveticaNeue-61" transform="translate(1090.999786 0)"/>
      <use xlink:href="#HelveticaNeue-79" transform="translate(1144.699783 0)"/>
      <use xlink:href="#HelveticaNeue-20" transform="translate(1194.699768 0)"/>
      <use xlink:href="#HelveticaNeue-31" transform="translate(1222.499756 0)"/>
      <use xlink:href="#HelveticaNeue-29" transform="translate(1278.099747 0)"/>
     </g>
    </g>
   </g>
   <g id="line2d_18">
    <path d="M 87.696 286.20949 
L 780.912 286.20949 
" clip-path="url(#p480691b5e9)" style="fill: none; stroke: #98a1ad; stroke-linecap: square"/>
   </g>
   <g id="line2d_19">
    <path d="M 317.267532 331.322106 
L 317.267532 123.84 
" clip-path="url(#p480691b5e9)" style="fill: none; stroke-dasharray: 3,3; stroke-dashoffset: 0; stroke: #3b7dd8; stroke-opacity: 0.5"/>
   </g>
   <g id="line2d_20">
    <path d="M 353.278753 331.322106 
L 353.278753 123.84 
" clip-path="url(#p480691b5e9)" style="fill: none; stroke-dasharray: 3,3; stroke-dashoffset: 0; stroke: #11a37f; stroke-opacity: 0.5"/>
   </g>
   <g id="patch_3">
    <path d="M 87.696 331.322106 
L 87.696 123.84 
" style="fill: none; stroke: #e9ecf1; stroke-width: 0.8; stroke-linejoin: miter; stroke-linecap: square"/>
   </g>
   <g id="patch_4">
    <path d="M 87.696 331.322106 
L 780.912 331.322106 
" style="fill: none; stroke: #e9ecf1; stroke-width: 0.8; stroke-linejoin: miter; stroke-linecap: square"/>
   </g>
   <g id="text_8">
    <!--   146 · $58 -->
    <g style="fill: #11a37f" transform="translate(749.402182 208.409526) scale(0.105 -0.105)">
     <defs>
      <path id="Menlo-Regular-20" transform="scale(0.015625)"/>
      <path id="Menlo-Regular-b7" d="M 1528 2700 
L 2316 2700 
L 2316 1747 
L 1528 1747 
L 1528 2700 
z
" transform="scale(0.015625)"/>
      <path id="Menlo-Regular-24" d="M 2163 1813 
L 2163 456 
Q 2506 466 2700 647 
Q 2894 828 2894 1141 
Q 2894 1431 2719 1592 
Q 2544 1753 2163 1813 
z
M 1850 2406 
L 1850 3697 
Q 1525 3684 1342 3509 
Q 1159 3334 1159 3041 
Q 1159 2772 1329 2615 
Q 1500 2459 1850 2406 
z
M 2163 -941 
L 1850 -941 
L 1847 0 
Q 1528 16 1214 87 
Q 900 159 594 288 
L 594 850 
Q 906 656 1223 553 
Q 1541 450 1850 444 
L 1850 1875 
Q 1225 1972 909 2256 
Q 594 2541 594 3009 
Q 594 3500 923 3792 
Q 1253 4084 1850 4128 
L 1850 4863 
L 2163 4863 
L 2166 4128 
Q 2413 4113 2666 4066 
Q 2919 4019 3181 3938 
L 3181 3397 
Q 2916 3531 2664 3604 
Q 2413 3678 2163 3691 
L 2163 2344 
Q 2806 2247 3143 1944 
Q 3481 1641 3481 1159 
Q 3481 678 3117 356 
Q 2753 34 2166 6 
L 2163 -941 
z
" transform="scale(0.015625)"/>
      <path id="Menlo-Regular-35" d="M 647 4666 
L 3009 4666 
L 3009 4134 
L 1222 4134 
L 1222 2988 
Q 1356 3038 1492 3061 
Q 1628 3084 1766 3084 
Q 2491 3084 2916 2656 
Q 3341 2228 3341 1497 
Q 3341 759 2895 334 
Q 2450 -91 1678 -91 
Q 1306 -91 998 -41 
Q 691 9 447 109 
L 447 750 
Q 734 594 1025 517 
Q 1316 441 1619 441 
Q 2141 441 2423 716 
Q 2706 991 2706 1497 
Q 2706 1997 2414 2275 
Q 2122 2553 1600 2553 
Q 1347 2553 1106 2495 
Q 866 2438 647 2322 
L 647 4666 
z
" transform="scale(0.015625)"/>
     </defs>
     <use xlink:href="#Menlo-Regular-20"/>
     <use xlink:href="#Menlo-Regular-20" transform="translate(60.205078 0)"/>
     <use xlink:href="#Menlo-Regular-31" transform="translate(120.410156 0)"/>
     <use xlink:href="#Menlo-Regular-34" transform="translate(180.615234 0)"/>
     <use xlink:href="#Menlo-Regular-36" transform="translate(240.820312 0)"/>
     <use xlink:href="#Menlo-Regular-20" transform="translate(301.025391 0)"/>
     <use xlink:href="#Menlo-Regular-b7" transform="translate(361.230469 0)"/>
     <use xlink:href="#Menlo-Regular-20" transform="translate(421.435547 0)"/>
     <use xlink:href="#Menlo-Regular-24" transform="translate(481.640625 0)"/>
     <use xlink:href="#Menlo-Regular-35" transform="translate(541.845703 0)"/>
     <use xlink:href="#Menlo-Regular-38" transform="translate(602.050781 0)"/>
    </g>
   </g>
   <g id="text_9">
    <!--   80 · $60.7k -->
    <g style="fill: #3b7dd8" transform="translate(749.402182 324.803211) scale(0.105 -0.105)">
     <defs>
      <path id="Menlo-Regular-2e" d="M 1216 1263 
L 2316 1263 
L 2316 0 
L 1216 0 
L 1216 1263 
z
" transform="scale(0.015625)"/>
      <path id="Menlo-Regular-37" d="M 434 4666 
L 3372 4666 
L 3372 4397 
L 1703 0 
L 1044 0 
L 2669 4134 
L 434 4134 
L 434 4666 
z
" transform="scale(0.015625)"/>
      <path id="Menlo-Regular-6b" d="M 738 4863 
L 1331 4863 
L 1331 2047 
L 2841 3500 
L 3541 3500 
L 2163 2181 
L 3756 0 
L 3053 0 
L 1759 1806 
L 1331 1403 
L 1331 0 
L 738 0 
L 738 4863 
z
" transform="scale(0.015625)"/>
     </defs>
     <use xlink:href="#Menlo-Regular-20"/>
     <use xlink:href="#Menlo-Regular-20" transform="translate(60.205078 0)"/>
     <use xlink:href="#Menlo-Regular-38" transform="translate(120.410156 0)"/>
     <use xlink:href="#Menlo-Regular-30" transform="translate(180.615234 0)"/>
     <use xlink:href="#Menlo-Regular-20" transform="translate(240.820312 0)"/>
     <use xlink:href="#Menlo-Regular-b7" transform="translate(301.025391 0)"/>
     <use xlink:href="#Menlo-Regular-20" transform="translate(361.230469 0)"/>
     <use xlink:href="#Menlo-Regular-24" transform="translate(421.435547 0)"/>
     <use xlink:href="#Menlo-Regular-36" transform="translate(481.640625 0)"/>
     <use xlink:href="#Menlo-Regular-30" transform="translate(541.845703 0)"/>
     <use xlink:href="#Menlo-Regular-2e" transform="translate(602.050781 0)"/>
     <use xlink:href="#Menlo-Regular-37" transform="translate(662.255859 0)"/>
     <use xlink:href="#Menlo-Regular-6b" transform="translate(722.460938 0)"/>
    </g>
   </g>
   <g id="text_10">
    <!-- HYPE $39.67 -->
    <g style="fill: #5b6470" transform="translate(129.205818 257.701615) scale(0.084 -0.084)">
     <defs>
      <path id="HelveticaNeue-48" d="M 499 4570 
L 499 0 
L 1107 0 
L 1107 2093 
L 3514 2093 
L 3514 0 
L 4122 0 
L 4122 4570 
L 3514 4570 
L 3514 2605 
L 1107 2605 
L 1107 4570 
L 499 4570 
z
" transform="scale(0.015625)"/>
      <path id="HelveticaNeue-59" d="M 2387 1869 
L 4134 4570 
L 3443 4570 
L 2106 2394 
L 736 4570 
L 13 4570 
L 1779 1869 
L 1779 0 
L 2387 0 
L 2387 1869 
z
" transform="scale(0.015625)"/>
      <path id="HelveticaNeue-45" d="M 499 4570 
L 499 0 
L 3674 0 
L 3674 512 
L 1107 512 
L 1107 2093 
L 3482 2093 
L 3482 2605 
L 1107 2605 
L 1107 4058 
L 3654 4058 
L 3654 4570 
L 499 4570 
z
" transform="scale(0.015625)"/>
      <path id="HelveticaNeue-24" d="M 704 1395 
L 160 1395 
Q 211 723 588 342 
Q 966 -38 1606 -102 
L 1606 -627 
L 1958 -627 
L 1958 -102 
Q 2266 -77 2522 25 
Q 2778 128 2963 304 
Q 3149 480 3254 723 
Q 3360 966 3360 1280 
Q 3360 1574 3248 1785 
Q 3136 1997 2976 2137 
Q 2816 2278 2643 2358 
Q 2470 2438 2342 2470 
L 1958 2573 
L 1958 4147 
Q 2547 4038 2675 3405 
L 3219 3405 
Q 3091 3968 2784 4288 
Q 2477 4608 1958 4672 
L 1958 5101 
L 1606 5101 
L 1606 4678 
Q 1331 4659 1091 4556 
Q 851 4454 675 4278 
Q 499 4102 396 3862 
Q 294 3622 294 3334 
Q 294 3053 371 2854 
Q 448 2656 611 2518 
Q 774 2381 1020 2281 
Q 1267 2182 1606 2099 
L 1606 403 
Q 1222 467 969 716 
Q 717 966 704 1395 
z
M 1958 403 
L 1958 2010 
Q 2131 1958 2284 1897 
Q 2438 1837 2547 1747 
Q 2656 1658 2720 1533 
Q 2784 1408 2784 1222 
Q 2784 1018 2723 867 
Q 2662 717 2550 617 
Q 2438 518 2288 467 
Q 2138 416 1958 403 
z
M 1606 4166 
L 1606 2669 
Q 1446 2714 1312 2771 
Q 1178 2829 1078 2909 
Q 979 2989 924 3107 
Q 870 3226 870 3392 
Q 870 3757 1084 3945 
Q 1299 4134 1606 4166 
z
" transform="scale(0.015625)"/>
      <path id="HelveticaNeue-33" d="M 1395 2592 
L 1395 2131 
Q 1549 2150 1722 2150 
Q 1926 2150 2102 2096 
Q 2278 2042 2406 1930 
Q 2534 1818 2611 1654 
Q 2688 1491 2688 1280 
Q 2688 1075 2608 912 
Q 2528 749 2393 637 
Q 2259 525 2080 464 
Q 1901 403 1702 403 
Q 1235 403 992 681 
Q 749 960 736 1402 
L 192 1402 
Q 186 1050 291 774 
Q 397 499 595 310 
Q 794 122 1075 26 
Q 1357 -70 1702 -70 
Q 2022 -70 2307 16 
Q 2592 102 2803 275 
Q 3014 448 3139 707 
Q 3264 966 3264 1306 
Q 3264 1715 3062 2016 
Q 2861 2317 2445 2406 
L 2445 2419 
Q 2714 2541 2893 2777 
Q 3072 3014 3072 3322 
Q 3072 3635 2966 3865 
Q 2861 4096 2675 4243 
Q 2490 4390 2237 4464 
Q 1984 4538 1690 4538 
Q 1350 4538 1091 4429 
Q 832 4320 659 4128 
Q 486 3936 393 3667 
Q 301 3398 288 3072 
L 832 3072 
Q 832 3270 883 3449 
Q 934 3629 1040 3763 
Q 1146 3898 1309 3978 
Q 1472 4058 1690 4058 
Q 2035 4058 2265 3875 
Q 2496 3693 2496 3328 
Q 2496 3149 2425 3008 
Q 2355 2867 2236 2774 
Q 2118 2682 1961 2634 
Q 1805 2586 1632 2586 
L 1517 2586 
Q 1485 2586 1453 2586 
Q 1427 2586 1395 2592 
z
" transform="scale(0.015625)"/>
      <path id="HelveticaNeue-39" d="M 858 1094 
L 314 1094 
Q 365 506 742 218 
Q 1120 -70 1690 -70 
Q 2515 -70 2889 560 
Q 3264 1190 3264 2368 
Q 3264 3014 3139 3433 
Q 3014 3853 2803 4096 
Q 2592 4339 2310 4438 
Q 2029 4538 1709 4538 
Q 1382 4538 1107 4429 
Q 832 4320 633 4125 
Q 435 3930 326 3658 
Q 218 3386 218 3059 
Q 218 2726 310 2444 
Q 403 2163 585 1964 
Q 768 1766 1037 1654 
Q 1306 1542 1651 1542 
Q 1984 1542 2265 1712 
Q 2547 1882 2701 2170 
L 2714 2157 
Q 2688 1267 2438 835 
Q 2189 403 1690 403 
Q 1363 403 1126 582 
Q 890 762 858 1094 
z
M 2618 3021 
Q 2618 2822 2554 2640 
Q 2490 2458 2368 2320 
Q 2246 2182 2073 2102 
Q 1901 2022 1690 2022 
Q 1491 2022 1328 2102 
Q 1165 2182 1046 2316 
Q 928 2451 861 2624 
Q 794 2797 794 2982 
Q 794 3194 842 3386 
Q 890 3578 995 3728 
Q 1101 3878 1270 3968 
Q 1440 4058 1683 4058 
Q 1914 4058 2086 3974 
Q 2259 3891 2377 3747 
Q 2496 3603 2557 3417 
Q 2618 3232 2618 3021 
z
" transform="scale(0.015625)"/>
      <path id="HelveticaNeue-2e" d="M 531 710 
L 531 0 
L 1242 0 
L 1242 710 
L 531 710 
z
" transform="scale(0.015625)"/>
      <path id="HelveticaNeue-36" d="M 2650 3379 
L 3194 3379 
Q 3142 3942 2809 4240 
Q 2477 4538 1914 4538 
Q 1427 4538 1107 4333 
Q 787 4128 595 3789 
Q 403 3450 323 3011 
Q 243 2573 243 2106 
Q 243 1747 297 1363 
Q 352 979 518 659 
Q 685 339 992 134 
Q 1299 -70 1805 -70 
Q 2234 -70 2525 74 
Q 2816 218 2992 438 
Q 3168 659 3245 928 
Q 3322 1197 3322 1446 
Q 3322 1760 3226 2029 
Q 3130 2298 2954 2496 
Q 2778 2694 2518 2806 
Q 2259 2918 1933 2918 
Q 1562 2918 1277 2777 
Q 992 2637 800 2323 
L 787 2336 
Q 794 2598 838 2899 
Q 883 3200 1001 3459 
Q 1120 3718 1331 3888 
Q 1542 4058 1888 4058 
Q 2214 4058 2412 3872 
Q 2611 3686 2650 3379 
z
M 1830 2438 
Q 2061 2438 2233 2355 
Q 2406 2272 2521 2134 
Q 2637 1997 2691 1808 
Q 2746 1619 2746 1408 
Q 2746 1210 2685 1027 
Q 2624 845 2509 704 
Q 2394 563 2224 483 
Q 2054 403 1830 403 
Q 1606 403 1430 483 
Q 1254 563 1136 697 
Q 1018 832 954 1017 
Q 890 1203 890 1414 
Q 890 1626 950 1814 
Q 1011 2003 1132 2140 
Q 1254 2278 1427 2358 
Q 1600 2438 1830 2438 
z
" transform="scale(0.015625)"/>
      <path id="HelveticaNeue-37" d="M 3258 3994 
L 3258 4461 
L 320 4461 
L 320 3949 
L 2701 3949 
Q 2342 3571 2032 3123 
Q 1722 2675 1485 2172 
Q 1248 1670 1097 1123 
Q 947 576 909 0 
L 1517 0 
Q 1549 531 1696 1094 
Q 1843 1658 2076 2189 
Q 2310 2720 2611 3187 
Q 2912 3654 3258 3994 
z
" transform="scale(0.015625)"/>
     </defs>
     <use xlink:href="#HelveticaNeue-48"/>
     <use xlink:href="#HelveticaNeue-59" transform="translate(72.199982 0)"/>
     <use xlink:href="#HelveticaNeue-50" transform="translate(136.999969 0)"/>
     <use xlink:href="#HelveticaNeue-45" transform="translate(201.799957 0)"/>
     <use xlink:href="#HelveticaNeue-20" transform="translate(262.899948 0)"/>
     <use xlink:href="#HelveticaNeue-24" transform="translate(290.699936 0)"/>
     <use xlink:href="#HelveticaNeue-33" transform="translate(346.299927 0)"/>
     <use xlink:href="#HelveticaNeue-39" transform="translate(401.899918 0)"/>
     <use xlink:href="#HelveticaNeue-2e" transform="translate(457.499908 0)"/>
     <use xlink:href="#HelveticaNeue-36" transform="translate(485.299896 0)"/>
     <use xlink:href="#HelveticaNeue-37" transform="translate(540.899887 0)"/>
    </g>
    <!-- BTC $76.3k -->
    <g style="fill: #5b6470" transform="translate(129.205818 266.554427) scale(0.084 -0.084)">
     <defs>
      <path id="HelveticaNeue-42" d="M 1107 2605 
L 1107 4058 
L 2323 4058 
Q 2522 4058 2698 4035 
Q 2874 4013 3008 3936 
Q 3142 3859 3219 3718 
Q 3296 3578 3296 3334 
Q 3296 2970 3069 2787 
Q 2842 2605 2323 2605 
L 1107 2605 
z
M 499 4570 
L 499 0 
L 2707 0 
Q 3046 0 3305 112 
Q 3565 224 3741 406 
Q 3917 589 4006 825 
Q 4096 1062 4096 1312 
Q 4096 1734 3872 2028 
Q 3648 2323 3226 2413 
L 3226 2426 
Q 3552 2554 3728 2819 
Q 3904 3085 3904 3450 
Q 3904 3795 3747 4032 
Q 3590 4269 3366 4403 
Q 3264 4467 3120 4499 
Q 2976 4531 2809 4547 
Q 2643 4563 2473 4566 
Q 2304 4570 2157 4570 
L 499 4570 
z
M 1107 512 
L 1107 2093 
L 2496 2093 
Q 2688 2093 2867 2057 
Q 3046 2022 3184 1936 
Q 3322 1850 3405 1702 
Q 3488 1555 3488 1331 
Q 3488 947 3261 729 
Q 3034 512 2630 512 
L 1107 512 
z
" transform="scale(0.015625)"/>
      <path id="HelveticaNeue-54" d="M 1536 4058 
L 1536 0 
L 2144 0 
L 2144 4058 
L 3667 4058 
L 3667 4570 
L 13 4570 
L 13 4058 
L 1536 4058 
z
" transform="scale(0.015625)"/>
      <path id="HelveticaNeue-43" d="M 3712 3194 
L 4320 3194 
Q 4269 3558 4102 3836 
Q 3936 4115 3686 4300 
Q 3437 4486 3117 4582 
Q 2797 4678 2438 4678 
Q 1914 4678 1507 4489 
Q 1101 4301 829 3974 
Q 557 3648 416 3209 
Q 275 2771 275 2272 
Q 275 1773 406 1337 
Q 538 902 800 582 
Q 1062 262 1459 80 
Q 1856 -102 2387 -102 
Q 3264 -102 3769 378 
Q 4275 858 4365 1722 
L 3757 1722 
Q 3738 1440 3642 1197 
Q 3546 954 3376 778 
Q 3206 602 2972 502 
Q 2739 403 2438 403 
Q 2029 403 1734 556 
Q 1440 710 1251 969 
Q 1062 1229 972 1577 
Q 883 1926 883 2317 
Q 883 2675 972 3008 
Q 1062 3341 1251 3600 
Q 1440 3859 1731 4012 
Q 2022 4166 2432 4166 
Q 2912 4166 3261 3923 
Q 3610 3680 3712 3194 
z
" transform="scale(0.015625)"/>
      <path id="HelveticaNeue-6b" d="M 442 4570 
L 442 0 
L 986 0 
L 986 1254 
L 1498 1728 
L 2630 0 
L 3322 0 
L 1914 2106 
L 3226 3309 
L 2496 3309 
L 986 1862 
L 986 4570 
L 442 4570 
z
" transform="scale(0.015625)"/>
     </defs>
     <use xlink:href="#HelveticaNeue-42"/>
     <use xlink:href="#HelveticaNeue-54" transform="translate(68.499985 0)"/>
     <use xlink:href="#HelveticaNeue-43" transform="translate(125.899979 0)"/>
     <use xlink:href="#HelveticaNeue-20" transform="translate(198.09996 0)"/>
     <use xlink:href="#HelveticaNeue-24" transform="translate(225.899948 0)"/>
     <use xlink:href="#HelveticaNeue-37" transform="translate(281.499939 0)"/>
     <use xlink:href="#HelveticaNeue-36" transform="translate(337.09993 0)"/>
     <use xlink:href="#HelveticaNeue-2e" transform="translate(392.699921 0)"/>
     <use xlink:href="#HelveticaNeue-33" transform="translate(420.499908 0)"/>
     <use xlink:href="#HelveticaNeue-6b" transform="translate(476.099899 0)"/>
    </g>
   </g>
   <g id="text_11">
    <!-- peak $74.39 -->
    <g style="fill: #5b6470" transform="translate(679.014134 121.675232) scale(0.084 -0.084)">
     <defs>
      <path id="HelveticaNeue-70" d="M 429 3309 
L 429 -1261 
L 973 -1261 
L 973 442 
L 986 442 
Q 1075 294 1206 195 
Q 1338 96 1485 38 
Q 1632 -19 1782 -44 
Q 1933 -70 2054 -70 
Q 2432 -70 2717 64 
Q 3002 198 3190 432 
Q 3379 666 3472 979 
Q 3565 1293 3565 1645 
Q 3565 1997 3469 2310 
Q 3373 2624 3184 2864 
Q 2995 3104 2710 3245 
Q 2426 3386 2042 3386 
Q 1696 3386 1408 3261 
Q 1120 3136 986 2861 
L 973 2861 
L 973 3309 
L 429 3309 
z
M 2989 1683 
Q 2989 1440 2937 1209 
Q 2886 979 2771 800 
Q 2656 621 2467 512 
Q 2278 403 1997 403 
Q 1715 403 1516 508 
Q 1318 614 1193 787 
Q 1069 960 1011 1187 
Q 954 1414 954 1658 
Q 954 1888 1008 2112 
Q 1062 2336 1184 2512 
Q 1306 2688 1498 2797 
Q 1690 2906 1965 2906 
Q 2227 2906 2422 2803 
Q 2618 2701 2742 2528 
Q 2867 2355 2928 2134 
Q 2989 1914 2989 1683 
z
" transform="scale(0.015625)"/>
      <path id="HelveticaNeue-34" d="M 2170 1542 
L 646 1542 
L 2157 3763 
L 2170 3763 
L 2170 1542 
z
M 2682 1542 
L 2682 4538 
L 2246 4538 
L 179 1587 
L 179 1062 
L 2170 1062 
L 2170 0 
L 2682 0 
L 2682 1062 
L 3296 1062 
L 3296 1542 
L 2682 1542 
z
" transform="scale(0.015625)"/>
     </defs>
     <use xlink:href="#HelveticaNeue-70"/>
     <use xlink:href="#HelveticaNeue-65" transform="translate(59.299988 0)"/>
     <use xlink:href="#HelveticaNeue-61" transform="translate(112.999985 0)"/>
     <use xlink:href="#HelveticaNeue-6b" transform="translate(166.699982 0)"/>
     <use xlink:href="#HelveticaNeue-20" transform="translate(218.599976 0)"/>
     <use xlink:href="#HelveticaNeue-24" transform="translate(246.399963 0)"/>
     <use xlink:href="#HelveticaNeue-37" transform="translate(301.999954 0)"/>
     <use xlink:href="#HelveticaNeue-34" transform="translate(357.599945 0)"/>
     <use xlink:href="#HelveticaNeue-2e" transform="translate(413.199936 0)"/>
     <use xlink:href="#HelveticaNeue-33" transform="translate(440.999924 0)"/>
     <use xlink:href="#HelveticaNeue-39" transform="translate(496.599915 0)"/>
    </g>
   </g>
   <g id="line2d_21">
    <path d="M 119.205818 286.20949 
L 137.211429 279.779448 
L 155.217039 279.051744 
L 173.222649 278.19545 
L 191.22826 276.782943 
L 209.23387 268.491816 
L 227.239481 271.444774 
L 245.245091 273.71915 
L 263.250701 270.783355 
L 281.256312 271.767338 
L 299.261922 271.120739 
L 317.267532 275.981046 
L 335.273143 283.975639 
L 353.278753 289.683711 
L 371.284364 266.600286 
L 389.289974 266.313361 
L 407.295584 276.355302 
L 425.301195 261.345909 
L 443.306805 251.78172 
L 461.312416 248.801931 
L 479.318026 220.920696 
L 497.323636 202.481643 
L 515.329247 218.328394 
L 533.334857 203.134376 
L 551.340468 183.468183 
L 569.346078 191.16389 
L 587.351688 199.228365 
L 605.357299 206.672857 
L 623.362909 189.912917 
L 641.368519 177.522939 
L 659.37413 160.776655 
L 677.37974 143.862982 
L 695.385351 137.134312 
L 713.390961 154.975835 
L 731.396571 133.271005 
L 749.402182 205.497416 
" clip-path="url(#p480691b5e9)" style="fill: none; stroke: #11a37f; stroke-width: 2.4; stroke-linecap: square"/>
   </g>
   <g id="line2d_22">
    <path d="M 119.205818 286.20949 
L 137.211429 281.891138 
L 155.217039 280.784302 
L 173.222649 280.99683 
L 191.22826 278.107996 
L 209.23387 275.5859 
L 227.239481 274.440976 
L 245.245091 277.65416 
L 263.250701 277.271625 
L 281.256312 276.15174 
L 299.261922 272.790447 
L 317.267532 273.753399 
L 335.273143 276.603268 
L 353.278753 279.358684 
L 371.284364 275.295285 
L 389.289974 279.837321 
L 407.295584 281.976026 
L 425.301195 283.600523 
L 443.306805 284.68498 
L 461.312416 285.013419 
L 479.318026 283.522128 
L 497.323636 283.324262 
L 515.329247 288.051013 
L 533.334857 285.32494 
L 551.340468 284.602652 
L 569.346078 283.947077 
L 587.351688 287.268785 
L 605.357299 290.638649 
L 623.362909 292.500335 
L 641.368519 292.860195 
L 659.37413 292.016565 
L 677.37974 292.377737 
L 695.385351 297.49208 
L 713.390961 308.280465 
L 731.396571 314.299294 
L 749.402182 321.891101 
" clip-path="url(#p480691b5e9)" style="fill: none; stroke: #3b7dd8; stroke-width: 2.4; stroke-linecap: square"/>
   </g>
   <g id="legend_1">
    <g id="line2d_23">
     <path d="M 96.696 136.480625 
L 106.696 136.480625 
L 116.696 136.480625 
" style="fill: none; stroke: #11a37f; stroke-width: 2.4; stroke-linecap: square"/>
    </g>
    <g id="text_12">
     <!-- HYPE -->
     <g transform="translate(124.696 139.980625) scale(0.1 -0.1)">
      <use xlink:href="#HelveticaNeue-48"/>
      <use xlink:href="#HelveticaNeue-59" transform="translate(72.199982 0)"/>
      <use xlink:href="#HelveticaNeue-50" transform="translate(136.999969 0)"/>
      <use xlink:href="#HelveticaNeue-45" transform="translate(201.799957 0)"/>
     </g>
    </g>
    <g id="line2d_24">
     <path d="M 96.696 150.591562 
L 106.696 150.591562 
L 116.696 150.591562 
" style="fill: none; stroke: #3b7dd8; stroke-width: 2.4; stroke-linecap: square"/>
    </g>
    <g id="text_13">
     <!-- BTC -->
     <g transform="translate(124.696 154.091562) scale(0.1 -0.1)">
      <use xlink:href="#HelveticaNeue-42"/>
      <use xlink:href="#HelveticaNeue-54" transform="translate(68.499985 0)"/>
      <use xlink:href="#HelveticaNeue-43" transform="translate(125.899979 0)"/>
     </g>
    </g>
   </g>
  </g>
  <g id="axes_2">
   <g id="patch_5">
    <path d="M 87.696 557.28 
L 780.912 557.28 
L 780.912 359.677994 
L 87.696 359.677994 
z
" style="fill: #ffffff"/>
   </g>
   <g id="matplotlib.axis_3">
    <g id="xtick_6">
     <g id="line2d_25"/>
     <g id="text_14">
      <!-- May 4 -->
      <g style="fill: #1a1d21" transform="translate(156.604056 569.138281) scale(0.11 -0.11)">
       <defs>
        <path id="DejaVuSans-4d" d="M 628 4666 
L 1569 4666 
L 2759 1491 
L 3956 4666 
L 4897 4666 
L 4897 0 
L 4281 0 
L 4281 4097 
L 3078 897 
L 2444 897 
L 1241 4097 
L 1241 0 
L 628 0 
L 628 4666 
z
" transform="scale(0.015625)"/>
        <path id="DejaVuSans-61" d="M 2194 1759 
Q 1497 1759 1228 1600 
Q 959 1441 959 1056 
Q 959 750 1161 570 
Q 1363 391 1709 391 
Q 2188 391 2477 730 
Q 2766 1069 2766 1631 
L 2766 1759 
L 2194 1759 
z
M 3341 1997 
L 3341 0 
L 2766 0 
L 2766 531 
Q 2569 213 2275 61 
Q 1981 -91 1556 -91 
Q 1019 -91 701 211 
Q 384 513 384 1019 
Q 384 1609 779 1909 
Q 1175 2209 1959 2209 
L 2766 2209 
L 2766 2266 
Q 2766 2663 2505 2880 
Q 2244 3097 1772 3097 
Q 1472 3097 1187 3025 
Q 903 2953 641 2809 
L 641 3341 
Q 956 3463 1253 3523 
Q 1550 3584 1831 3584 
Q 2591 3584 2966 3190 
Q 3341 2797 3341 1997 
z
" transform="scale(0.015625)"/>
        <path id="DejaVuSans-79" d="M 2059 -325 
Q 1816 -950 1584 -1140 
Q 1353 -1331 966 -1331 
L 506 -1331 
L 506 -850 
L 844 -850 
Q 1081 -850 1212 -737 
Q 1344 -625 1503 -206 
L 1606 56 
L 191 3500 
L 800 3500 
L 1894 763 
L 2988 3500 
L 3597 3500 
L 2059 -325 
z
" transform="scale(0.015625)"/>
        <path id="DejaVuSans-20" transform="scale(0.015625)"/>
        <path id="DejaVuSans-34" d="M 2419 4116 
L 825 1625 
L 2419 1625 
L 2419 4116 
z
M 2253 4666 
L 3047 4666 
L 3047 1625 
L 3713 1625 
L 3713 1100 
L 3047 1100 
L 3047 0 
L 2419 0 
L 2419 1100 
L 313 1100 
L 313 1709 
L 2253 4666 
z
" transform="scale(0.015625)"/>
       </defs>
       <use xlink:href="#DejaVuSans-4d"/>
       <use xlink:href="#DejaVuSans-61" transform="translate(86.279297 0)"/>
       <use xlink:href="#DejaVuSans-79" transform="translate(147.558594 0)"/>
       <use xlink:href="#DejaVuSans-20" transform="translate(206.738281 0)"/>
       <use xlink:href="#DejaVuSans-34" transform="translate(238.525391 0)"/>
      </g>
     </g>
    </g>
    <g id="xtick_7">
     <g id="line2d_26"/>
     <g id="text_15">
      <!-- May 11 -->
      <g style="fill: #1a1d21" transform="translate(279.143953 569.138281) scale(0.11 -0.11)">
       <defs>
        <path id="DejaVuSans-31" d="M 794 531 
L 1825 531 
L 1825 4091 
L 703 3866 
L 703 4441 
L 1819 4666 
L 2450 4666 
L 2450 531 
L 3481 531 
L 3481 0 
L 794 0 
L 794 531 
z
" transform="scale(0.015625)"/>
       </defs>
       <use xlink:href="#DejaVuSans-4d"/>
       <use xlink:href="#DejaVuSans-61" transform="translate(86.279297 0)"/>
       <use xlink:href="#DejaVuSans-79" transform="translate(147.558594 0)"/>
       <use xlink:href="#DejaVuSans-20" transform="translate(206.738281 0)"/>
       <use xlink:href="#DejaVuSans-31" transform="translate(238.525391 0)"/>
       <use xlink:href="#DejaVuSans-31" transform="translate(302.148438 0)"/>
      </g>
     </g>
    </g>
    <g id="xtick_8">
     <g id="line2d_27"/>
     <g id="text_16">
      <!-- May 18 -->
      <g style="fill: #1a1d21" transform="translate(405.183226 569.138281) scale(0.11 -0.11)">
       <defs>
        <path id="DejaVuSans-38" d="M 2034 2216 
Q 1584 2216 1326 1975 
Q 1069 1734 1069 1313 
Q 1069 891 1326 650 
Q 1584 409 2034 409 
Q 2484 409 2743 651 
Q 3003 894 3003 1313 
Q 3003 1734 2745 1975 
Q 2488 2216 2034 2216 
z
M 1403 2484 
Q 997 2584 770 2862 
Q 544 3141 544 3541 
Q 544 4100 942 4425 
Q 1341 4750 2034 4750 
Q 2731 4750 3128 4425 
Q 3525 4100 3525 3541 
Q 3525 3141 3298 2862 
Q 3072 2584 2669 2484 
Q 3125 2378 3379 2068 
Q 3634 1759 3634 1313 
Q 3634 634 3220 271 
Q 2806 -91 2034 -91 
Q 1263 -91 848 271 
Q 434 634 434 1313 
Q 434 1759 690 2068 
Q 947 2378 1403 2484 
z
M 1172 3481 
Q 1172 3119 1398 2916 
Q 1625 2713 2034 2713 
Q 2441 2713 2670 2916 
Q 2900 3119 2900 3481 
Q 2900 3844 2670 4047 
Q 2441 4250 2034 4250 
Q 1625 4250 1398 4047 
Q 1172 3844 1172 3481 
z
" transform="scale(0.015625)"/>
       </defs>
       <use xlink:href="#DejaVuSans-4d"/>
       <use xlink:href="#DejaVuSans-61" transform="translate(86.279297 0)"/>
       <use xlink:href="#DejaVuSans-79" transform="translate(147.558594 0)"/>
       <use xlink:href="#DejaVuSans-20" transform="translate(206.738281 0)"/>
       <use xlink:href="#DejaVuSans-31" transform="translate(238.525391 0)"/>
       <use xlink:href="#DejaVuSans-38" transform="translate(302.148438 0)"/>
      </g>
     </g>
    </g>
    <g id="xtick_9">
     <g id="line2d_28"/>
     <g id="text_17">
      <!-- May 25 -->
      <g style="fill: #1a1d21" transform="translate(531.222499 569.138281) scale(0.11 -0.11)">
       <defs>
        <path id="DejaVuSans-32" d="M 1228 531 
L 3431 531 
L 3431 0 
L 469 0 
L 469 531 
Q 828 903 1448 1529 
Q 2069 2156 2228 2338 
Q 2531 2678 2651 2914 
Q 2772 3150 2772 3378 
Q 2772 3750 2511 3984 
Q 2250 4219 1831 4219 
Q 1534 4219 1204 4116 
Q 875 4013 500 3803 
L 500 4441 
Q 881 4594 1212 4672 
Q 1544 4750 1819 4750 
Q 2544 4750 2975 4387 
Q 3406 4025 3406 3419 
Q 3406 3131 3298 2873 
Q 3191 2616 2906 2266 
Q 2828 2175 2409 1742 
Q 1991 1309 1228 531 
z
" transform="scale(0.015625)"/>
        <path id="DejaVuSans-35" d="M 691 4666 
L 3169 4666 
L 3169 4134 
L 1269 4134 
L 1269 2991 
Q 1406 3038 1543 3061 
Q 1681 3084 1819 3084 
Q 2600 3084 3056 2656 
Q 3513 2228 3513 1497 
Q 3513 744 3044 326 
Q 2575 -91 1722 -91 
Q 1428 -91 1123 -41 
Q 819 9 494 109 
L 494 744 
Q 775 591 1075 516 
Q 1375 441 1709 441 
Q 2250 441 2565 725 
Q 2881 1009 2881 1497 
Q 2881 1984 2565 2268 
Q 2250 2553 1709 2553 
Q 1456 2553 1204 2497 
Q 953 2441 691 2322 
L 691 4666 
z
" transform="scale(0.015625)"/>
       </defs>
       <use xlink:href="#DejaVuSans-4d"/>
       <use xlink:href="#DejaVuSans-61" transform="translate(86.279297 0)"/>
       <use xlink:href="#DejaVuSans-79" transform="translate(147.558594 0)"/>
       <use xlink:href="#DejaVuSans-20" transform="translate(206.738281 0)"/>
       <use xlink:href="#DejaVuSans-32" transform="translate(238.525391 0)"/>
       <use xlink:href="#DejaVuSans-35" transform="translate(302.148438 0)"/>
      </g>
     </g>
    </g>
    <g id="xtick_10">
     <g id="line2d_29"/>
     <g id="text_18">
      <!-- Jun 1 -->
      <g style="fill: #1a1d21" transform="translate(663.538647 569.138281) scale(0.11 -0.11)">
       <defs>
        <path id="DejaVuSans-4a" d="M 628 4666 
L 1259 4666 
L 1259 325 
Q 1259 -519 939 -900 
Q 619 -1281 -91 -1281 
L -331 -1281 
L -331 -750 
L -134 -750 
Q 284 -750 456 -515 
Q 628 -281 628 325 
L 628 4666 
z
" transform="scale(0.015625)"/>
        <path id="DejaVuSans-75" d="M 544 1381 
L 544 3500 
L 1119 3500 
L 1119 1403 
Q 1119 906 1312 657 
Q 1506 409 1894 409 
Q 2359 409 2629 706 
Q 2900 1003 2900 1516 
L 2900 3500 
L 3475 3500 
L 3475 0 
L 2900 0 
L 2900 538 
Q 2691 219 2414 64 
Q 2138 -91 1772 -91 
Q 1169 -91 856 284 
Q 544 659 544 1381 
z
M 1991 3584 
L 1991 3584 
z
" transform="scale(0.015625)"/>
        <path id="DejaVuSans-6e" d="M 3513 2113 
L 3513 0 
L 2938 0 
L 2938 2094 
Q 2938 2591 2744 2837 
Q 2550 3084 2163 3084 
Q 1697 3084 1428 2787 
Q 1159 2491 1159 1978 
L 1159 0 
L 581 0 
L 581 3500 
L 1159 3500 
L 1159 2956 
Q 1366 3272 1645 3428 
Q 1925 3584 2291 3584 
Q 2894 3584 3203 3211 
Q 3513 2838 3513 2113 
z
" transform="scale(0.015625)"/>
       </defs>
       <use xlink:href="#DejaVuSans-4a"/>
       <use xlink:href="#DejaVuSans-75" transform="translate(29.492188 0)"/>
       <use xlink:href="#DejaVuSans-6e" transform="translate(92.871094 0)"/>
       <use xlink:href="#DejaVuSans-20" transform="translate(156.25 0)"/>
       <use xlink:href="#DejaVuSans-31" transform="translate(188.037109 0)"/>
      </g>
     </g>
    </g>
   </g>
   <g id="matplotlib.axis_4">
    <g id="ytick_7">
     <g id="line2d_30">
      <path d="M 87.696 539.378086 
L 780.912 539.378086 
" clip-path="url(#pc6f069e721)" style="fill: none; stroke: #e9ecf1; stroke-width: 0.8; stroke-linecap: square"/>
     </g>
     <g id="line2d_31"/>
     <g id="text_19">
      <!-- -5% -->
      <g style="fill: #5b6470" transform="translate(66.135062 543.191367) scale(0.1 -0.1)">
       <defs>
        <path id="Menlo-Regular-2d" d="M 319 2263 
L 3631 2263 
L 3631 1734 
L 319 1734 
L 319 2263 
z
" transform="scale(0.015625)"/>
        <path id="Menlo-Regular-25" d="M 2175 997 
Q 2175 753 2339 587 
Q 2503 422 2747 422 
Q 2988 422 3155 589 
Q 3322 756 3322 997 
Q 3322 1238 3153 1406 
Q 2984 1575 2747 1575 
Q 2503 1575 2339 1409 
Q 2175 1244 2175 997 
z
M 1753 997 
Q 1753 1419 2040 1708 
Q 2328 1997 2747 1997 
Q 2947 1997 3126 1922 
Q 3306 1847 3450 1703 
Q 3594 1556 3672 1375 
Q 3750 1194 3750 997 
Q 3750 581 3459 290 
Q 3169 0 2747 0 
Q 2322 0 2037 286 
Q 1753 572 1753 997 
z
M 259 1375 
L 122 1728 
L 3606 3122 
L 3763 2769 
L 259 1375 
z
M 525 3475 
Q 525 3228 689 3064 
Q 853 2900 1100 2900 
Q 1341 2900 1509 3067 
Q 1678 3234 1678 3475 
Q 1678 3716 1509 3883 
Q 1341 4050 1100 4050 
Q 859 4050 692 3884 
Q 525 3719 525 3475 
z
M 103 3475 
Q 103 3897 390 4186 
Q 678 4475 1100 4475 
Q 1300 4475 1483 4400 
Q 1666 4325 1806 4184 
Q 1947 4044 2023 3861 
Q 2100 3678 2100 3475 
Q 2100 3056 1809 2767 
Q 1519 2478 1100 2478 
Q 678 2478 390 2765 
Q 103 3053 103 3475 
z
" transform="scale(0.015625)"/>
       </defs>
       <use xlink:href="#Menlo-Regular-2d"/>
       <use xlink:href="#Menlo-Regular-35" transform="translate(60.205078 0)"/>
       <use xlink:href="#Menlo-Regular-25" transform="translate(120.410156 0)"/>
      </g>
     </g>
    </g>
    <g id="ytick_8">
     <g id="line2d_32">
      <path d="M 87.696 517.129186 
L 780.912 517.129186 
" clip-path="url(#pc6f069e721)" style="fill: none; stroke: #e9ecf1; stroke-width: 0.8; stroke-linecap: square"/>
     </g>
     <g id="line2d_33"/>
     <g id="text_20">
      <!-- 0% -->
      <g style="fill: #5b6470" transform="translate(72.155375 520.942467) scale(0.1 -0.1)">
       <use xlink:href="#Menlo-Regular-30"/>
       <use xlink:href="#Menlo-Regular-25" transform="translate(60.205078 0)"/>
      </g>
     </g>
    </g>
    <g id="ytick_9">
     <g id="line2d_34">
      <path d="M 87.696 494.880286 
L 780.912 494.880286 
" clip-path="url(#pc6f069e721)" style="fill: none; stroke: #e9ecf1; stroke-width: 0.8; stroke-linecap: square"/>
     </g>
     <g id="line2d_35"/>
     <g id="text_21">
      <!-- 5% -->
      <g style="fill: #5b6470" transform="translate(72.155375 498.693567) scale(0.1 -0.1)">
       <use xlink:href="#Menlo-Regular-35"/>
       <use xlink:href="#Menlo-Regular-25" transform="translate(60.205078 0)"/>
      </g>
     </g>
    </g>
    <g id="ytick_10">
     <g id="line2d_36">
      <path d="M 87.696 472.631386 
L 780.912 472.631386 
" clip-path="url(#pc6f069e721)" style="fill: none; stroke: #e9ecf1; stroke-width: 0.8; stroke-linecap: square"/>
     </g>
     <g id="line2d_37"/>
     <g id="text_22">
      <!-- 10% -->
      <g style="fill: #5b6470" transform="translate(66.135062 476.444667) scale(0.1 -0.1)">
       <use xlink:href="#Menlo-Regular-31"/>
       <use xlink:href="#Menlo-Regular-30" transform="translate(60.205078 0)"/>
       <use xlink:href="#Menlo-Regular-25" transform="translate(120.410156 0)"/>
      </g>
     </g>
    </g>
    <g id="ytick_11">
     <g id="line2d_38">
      <path d="M 87.696 450.382486 
L 780.912 450.382486 
" clip-path="url(#pc6f069e721)" style="fill: none; stroke: #e9ecf1; stroke-width: 0.8; stroke-linecap: square"/>
     </g>
     <g id="line2d_39"/>
     <g id="text_23">
      <!-- 15% -->
      <g style="fill: #5b6470" transform="translate(66.135062 454.195767) scale(0.1 -0.1)">
       <use xlink:href="#Menlo-Regular-31"/>
       <use xlink:href="#Menlo-Regular-35" transform="translate(60.205078 0)"/>
       <use xlink:href="#Menlo-Regular-25" transform="translate(120.410156 0)"/>
      </g>
     </g>
    </g>
    <g id="ytick_12">
     <g id="line2d_40">
      <path d="M 87.696 428.133586 
L 780.912 428.133586 
" clip-path="url(#pc6f069e721)" style="fill: none; stroke: #e9ecf1; stroke-width: 0.8; stroke-linecap: square"/>
     </g>
     <g id="line2d_41"/>
     <g id="text_24">
      <!-- 20% -->
      <g style="fill: #5b6470" transform="translate(66.135062 431.946867) scale(0.1 -0.1)">
       <use xlink:href="#Menlo-Regular-32"/>
       <use xlink:href="#Menlo-Regular-30" transform="translate(60.205078 0)"/>
       <use xlink:href="#Menlo-Regular-25" transform="translate(120.410156 0)"/>
      </g>
     </g>
    </g>
    <g id="ytick_13">
     <g id="line2d_42">
      <path d="M 87.696 405.884686 
L 780.912 405.884686 
" clip-path="url(#pc6f069e721)" style="fill: none; stroke: #e9ecf1; stroke-width: 0.8; stroke-linecap: square"/>
     </g>
     <g id="line2d_43"/>
     <g id="text_25">
      <!-- 25% -->
      <g style="fill: #5b6470" transform="translate(66.135062 409.697967) scale(0.1 -0.1)">
       <use xlink:href="#Menlo-Regular-32"/>
       <use xlink:href="#Menlo-Regular-35" transform="translate(60.205078 0)"/>
       <use xlink:href="#Menlo-Regular-25" transform="translate(120.410156 0)"/>
      </g>
     </g>
    </g>
    <g id="ytick_14">
     <g id="line2d_44">
      <path d="M 87.696 383.635786 
L 780.912 383.635786 
" clip-path="url(#pc6f069e721)" style="fill: none; stroke: #e9ecf1; stroke-width: 0.8; stroke-linecap: square"/>
     </g>
     <g id="line2d_45"/>
     <g id="text_26">
      <!-- 30% -->
      <g style="fill: #5b6470" transform="translate(66.135062 387.449067) scale(0.1 -0.1)">
       <defs>
        <path id="Menlo-Regular-33" d="M 2425 2497 
Q 2884 2375 3128 2064 
Q 3372 1753 3372 1288 
Q 3372 644 2939 276 
Q 2506 -91 1741 -91 
Q 1419 -91 1084 -31 
Q 750 28 428 141 
L 428 769 
Q 747 603 1056 522 
Q 1366 441 1672 441 
Q 2191 441 2469 675 
Q 2747 909 2747 1350 
Q 2747 1756 2469 1995 
Q 2191 2234 1716 2234 
L 1234 2234 
L 1234 2753 
L 1716 2753 
Q 2150 2753 2394 2943 
Q 2638 3134 2638 3475 
Q 2638 3834 2411 4026 
Q 2184 4219 1766 4219 
Q 1488 4219 1191 4156 
Q 894 4094 569 3969 
L 569 4550 
Q 947 4650 1242 4700 
Q 1538 4750 1766 4750 
Q 2447 4750 2855 4408 
Q 3263 4066 3263 3500 
Q 3263 3116 3048 2859 
Q 2834 2603 2425 2497 
z
" transform="scale(0.015625)"/>
       </defs>
       <use xlink:href="#Menlo-Regular-33"/>
       <use xlink:href="#Menlo-Regular-30" transform="translate(60.205078 0)"/>
       <use xlink:href="#Menlo-Regular-25" transform="translate(120.410156 0)"/>
      </g>
     </g>
    </g>
    <g id="ytick_15">
     <g id="line2d_46">
      <path d="M 87.696 361.386886 
L 780.912 361.386886 
" clip-path="url(#pc6f069e721)" style="fill: none; stroke: #e9ecf1; stroke-width: 0.8; stroke-linecap: square"/>
     </g>
     <g id="line2d_47"/>
     <g id="text_27">
      <!-- 35% -->
      <g style="fill: #5b6470" transform="translate(66.135062 365.200167) scale(0.1 -0.1)">
       <use xlink:href="#Menlo-Regular-33"/>
       <use xlink:href="#Menlo-Regular-35" transform="translate(60.205078 0)"/>
       <use xlink:href="#Menlo-Regular-25" transform="translate(120.410156 0)"/>
      </g>
     </g>
    </g>
    <g id="text_28">
     <!-- Perp funding, annualized -->
     <g style="fill: #5b6470" transform="translate(60.148969 511.173567) rotate(-90) scale(0.095 -0.095)">
      <defs>
       <path id="HelveticaNeue-66" d="M 634 2829 
L 634 0 
L 1178 0 
L 1178 2829 
L 1818 2829 
L 1818 3309 
L 1178 3309 
L 1178 3770 
Q 1178 3987 1286 4064 
Q 1395 4141 1594 4141 
Q 1664 4141 1747 4131 
Q 1830 4122 1901 4096 
L 1901 4570 
Q 1824 4595 1725 4608 
Q 1626 4621 1549 4621 
Q 1101 4621 867 4413 
Q 634 4205 634 3802 
L 634 3309 
L 77 3309 
L 77 2829 
L 634 2829 
z
" transform="scale(0.015625)"/>
       <path id="HelveticaNeue-75" d="M 3149 0 
L 3149 3309 
L 2605 3309 
L 2605 1440 
Q 2605 1216 2544 1027 
Q 2483 838 2361 697 
Q 2240 557 2057 480 
Q 1875 403 1626 403 
Q 1312 403 1133 582 
Q 954 762 954 1069 
L 954 3309 
L 410 3309 
L 410 1133 
Q 410 864 464 643 
Q 518 422 652 262 
Q 787 102 1004 16 
Q 1222 -70 1549 -70 
Q 1914 -70 2182 74 
Q 2451 218 2624 525 
L 2637 525 
L 2637 0 
L 3149 0 
z
" transform="scale(0.015625)"/>
       <path id="HelveticaNeue-67" d="M 3264 282 
L 3264 3309 
L 2752 3309 
L 2752 2835 
L 2746 2835 
Q 2598 3110 2336 3248 
Q 2074 3386 1760 3386 
Q 1331 3386 1036 3222 
Q 742 3059 563 2806 
Q 384 2554 307 2243 
Q 230 1933 230 1638 
Q 230 1299 323 995 
Q 416 691 601 464 
Q 787 237 1062 102 
Q 1338 -32 1709 -32 
Q 2029 -32 2313 112 
Q 2598 256 2739 563 
L 2752 563 
L 2752 346 
Q 2752 70 2697 -160 
Q 2643 -390 2521 -553 
Q 2400 -717 2214 -809 
Q 2029 -902 1760 -902 
Q 1626 -902 1478 -873 
Q 1331 -845 1206 -781 
Q 1082 -717 995 -614 
Q 909 -512 902 -365 
L 358 -365 
Q 371 -634 499 -819 
Q 627 -1005 822 -1120 
Q 1018 -1235 1258 -1286 
Q 1498 -1338 1728 -1338 
Q 2522 -1338 2893 -934 
Q 3264 -531 3264 282 
z
M 1741 442 
Q 1472 442 1293 554 
Q 1114 666 1005 848 
Q 896 1030 851 1254 
Q 806 1478 806 1702 
Q 806 1939 860 2156 
Q 915 2374 1033 2540 
Q 1152 2707 1337 2806 
Q 1523 2906 1786 2906 
Q 2042 2906 2221 2803 
Q 2400 2701 2512 2531 
Q 2624 2362 2675 2150 
Q 2726 1939 2726 1722 
Q 2726 1491 2672 1260 
Q 2618 1030 2502 848 
Q 2387 666 2198 554 
Q 2010 442 1741 442 
z
" transform="scale(0.015625)"/>
       <path id="HelveticaNeue-6c" d="M 442 4570 
L 442 0 
L 986 0 
L 986 4570 
L 442 4570 
z
" transform="scale(0.015625)"/>
       <path id="HelveticaNeue-7a" d="M 141 416 
L 141 0 
L 2931 0 
L 2931 480 
L 819 480 
L 2842 2938 
L 2842 3309 
L 269 3309 
L 269 2829 
L 2138 2829 
L 141 416 
z
" transform="scale(0.015625)"/>
      </defs>
      <use xlink:href="#HelveticaNeue-50"/>
      <use xlink:href="#HelveticaNeue-65" transform="translate(64.799988 0)"/>
      <use xlink:href="#HelveticaNeue-72" transform="translate(118.499985 0)"/>
      <use xlink:href="#HelveticaNeue-70" transform="translate(151.799973 0)"/>
      <use xlink:href="#HelveticaNeue-20" transform="translate(211.09996 0)"/>
      <use xlink:href="#HelveticaNeue-66" transform="translate(238.899948 0)"/>
      <use xlink:href="#HelveticaNeue-75" transform="translate(268.499939 0)"/>
      <use xlink:href="#HelveticaNeue-6e" transform="translate(324.09993 0)"/>
      <use xlink:href="#HelveticaNeue-64" transform="translate(379.699921 0)"/>
      <use xlink:href="#HelveticaNeue-69" transform="translate(438.999908 0)"/>
      <use xlink:href="#HelveticaNeue-6e" transform="translate(461.199905 0)"/>
      <use xlink:href="#HelveticaNeue-67" transform="translate(516.799896 0)"/>
      <use xlink:href="#HelveticaNeue-2c" transform="translate(574.19989 0)"/>
      <use xlink:href="#HelveticaNeue-20" transform="translate(601.999878 0)"/>
      <use xlink:href="#HelveticaNeue-61" transform="translate(629.799866 0)"/>
      <use xlink:href="#HelveticaNeue-6e" transform="translate(683.499863 0)"/>
      <use xlink:href="#HelveticaNeue-6e" transform="translate(739.099854 0)"/>
      <use xlink:href="#HelveticaNeue-75" transform="translate(794.699844 0)"/>
      <use xlink:href="#HelveticaNeue-61" transform="translate(850.299835 0)"/>
      <use xlink:href="#HelveticaNeue-6c" transform="translate(903.999832 0)"/>
      <use xlink:href="#HelveticaNeue-69" transform="translate(926.199829 0)"/>
      <use xlink:href="#HelveticaNeue-7a" transform="translate(948.399826 0)"/>
      <use xlink:href="#HelveticaNeue-65" transform="translate(996.399811 0)"/>
      <use xlink:href="#HelveticaNeue-64" transform="translate(1050.099808 0)"/>
     </g>
    </g>
   </g>
   <g id="line2d_48">
    <path d="M 87.696 517.129186 
L 780.912 517.129186 
" clip-path="url(#pc6f069e721)" style="fill: none; stroke: #98a1ad; stroke-linecap: square"/>
   </g>
   <g id="line2d_49">
    <path d="M 317.267532 557.28 
L 317.267532 359.677994 
" clip-path="url(#pc6f069e721)" style="fill: none; stroke-dasharray: 3,3; stroke-dashoffset: 0; stroke: #3b7dd8; stroke-opacity: 0.5"/>
   </g>
   <g id="line2d_50">
    <path d="M 353.278753 557.28 
L 353.278753 359.677994 
" clip-path="url(#pc6f069e721)" style="fill: none; stroke-dasharray: 3,3; stroke-dashoffset: 0; stroke: #11a37f; stroke-opacity: 0.5"/>
   </g>
   <g id="patch_6">
    <path d="M 87.696 557.28 
L 87.696 359.677994 
" style="fill: none; stroke: #e9ecf1; stroke-width: 0.8; stroke-linejoin: miter; stroke-linecap: square"/>
   </g>
   <g id="patch_7">
    <path d="M 87.696 557.28 
L 780.912 557.28 
" style="fill: none; stroke: #e9ecf1; stroke-width: 0.8; stroke-linejoin: miter; stroke-linecap: square"/>
   </g>
   <g id="text_29">
    <!--   24% -->
    <g style="fill: #11a37f" transform="translate(749.402182 414.441171) scale(0.11 -0.11)">
     <use xlink:href="#Menlo-Regular-20"/>
     <use xlink:href="#Menlo-Regular-20" transform="translate(60.205078 0)"/>
     <use xlink:href="#Menlo-Regular-32" transform="translate(120.410156 0)"/>
     <use xlink:href="#Menlo-Regular-34" transform="translate(180.615234 0)"/>
     <use xlink:href="#Menlo-Regular-25" transform="translate(240.820312 0)"/>
    </g>
   </g>
   <g id="text_30">
    <!--   5% -->
    <g style="fill: #3b7dd8" transform="translate(749.402182 496.668682) scale(0.11 -0.11)">
     <use xlink:href="#Menlo-Regular-20"/>
     <use xlink:href="#Menlo-Regular-20" transform="translate(60.205078 0)"/>
     <use xlink:href="#Menlo-Regular-35" transform="translate(120.410156 0)"/>
     <use xlink:href="#Menlo-Regular-25" transform="translate(180.615234 0)"/>
    </g>
   </g>
   <g id="line2d_51">
    <path d="M 119.205818 477.552572 
L 137.211429 464.874531 
L 155.217039 468.404095 
L 173.222649 470.736711 
L 191.22826 474.332266 
L 209.23387 521.480434 
L 227.239481 460.273502 
L 245.245091 468.404095 
L 263.250701 475.779401 
L 281.256312 481.232811 
L 299.261922 502.826715 
L 317.267532 470.39125 
L 335.273143 478.840571 
L 353.278753 472.584074 
L 371.284364 468.722254 
L 389.289974 469.987384 
L 407.295584 510.413017 
L 425.301195 508.94964 
L 443.306805 523.367833 
L 461.312416 548.298091 
L 479.318026 455.503218 
L 497.323636 462.751172 
L 515.329247 468.642458 
L 533.334857 509.519529 
L 551.340468 489.911789 
L 569.346078 479.43094 
L 587.351688 510.027926 
L 605.357299 493.87577 
L 623.362909 488.830725 
L 641.368519 503.016889 
L 659.37413 426.42012 
L 677.37974 368.659903 
L 695.385351 397.521155 
L 713.390961 446.011294 
L 731.396571 381.915321 
L 749.402182 411.39039 
" clip-path="url(#pc6f069e721)" style="fill: none; stroke: #11a37f; stroke-width: 2.2; stroke-linecap: square"/>
   </g>
   <g id="line2d_52">
    <path d="M 119.205818 542.982232 
L 137.211429 519.771434 
L 155.217039 491.170244 
L 173.222649 529.744404 
L 191.22826 504.909209 
L 209.23387 482.453147 
L 227.239481 490.192445 
L 245.245091 475.519826 
L 263.250701 507.656574 
L 281.256312 498.89944 
L 299.261922 503.014615 
L 317.267532 482.753586 
L 335.273143 491.260954 
L 353.278753 520.123343 
L 371.284364 513.420833 
L 389.289974 545.361267 
L 407.295584 513.815035 
L 425.301195 483.8875 
L 443.306805 468.404095 
L 461.312416 468.404095 
L 479.318026 477.724653 
L 497.323636 486.064293 
L 515.329247 528.158403 
L 533.334857 542.748887 
L 551.340468 544.009714 
L 569.346078 537.887049 
L 587.351688 519.624901 
L 605.357299 480.77931 
L 623.362909 487.495219 
L 641.368519 493.174567 
L 659.37413 474.163726 
L 677.37974 468.404095 
L 695.385351 468.75183 
L 713.390961 482.471078 
L 731.396571 495.453813 
L 749.402182 493.6179 
" clip-path="url(#pc6f069e721)" style="fill: none; stroke: #3b7dd8; stroke-width: 2.2; stroke-linecap: square"/>
   </g>
  </g>
  <g id="text_31">
   <!-- H Y P E   V S   B T C   ·   P R I C E   &amp;   F U N D I N G -->
   <g style="fill: #11a37f" transform="translate(87.696 34.056) scale(0.12 -0.12)">
    <defs>
     <path id="Menlo-Regular-48" d="M 428 4666 
L 1063 4666 
L 1063 2878 
L 2791 2878 
L 2791 4666 
L 3425 4666 
L 3425 0 
L 2791 0 
L 2791 2347 
L 1063 2347 
L 1063 0 
L 428 0 
L 428 4666 
z
" transform="scale(0.015625)"/>
     <path id="Menlo-Regular-59" d="M 116 4666 
L 788 4666 
L 1925 2606 
L 3059 4666 
L 3738 4666 
L 2241 2094 
L 2241 0 
L 1606 0 
L 1606 2094 
L 116 4666 
z
" transform="scale(0.015625)"/>
     <path id="Menlo-Regular-50" d="M 1247 4147 
L 1247 2394 
L 1978 2394 
Q 2416 2394 2661 2625 
Q 2906 2856 2906 3272 
Q 2906 3688 2662 3917 
Q 2419 4147 1978 4147 
L 1247 4147 
z
M 616 4666 
L 1978 4666 
Q 2759 4666 3162 4311 
Q 3566 3956 3566 3272 
Q 3566 2581 3164 2228 
Q 2763 1875 1978 1875 
L 1247 1875 
L 1247 0 
L 616 0 
L 616 4666 
z
" transform="scale(0.015625)"/>
     <path id="Menlo-Regular-45" d="M 616 4666 
L 3384 4666 
L 3384 4134 
L 1247 4134 
L 1247 2878 
L 3291 2878 
L 3291 2347 
L 1247 2347 
L 1247 531 
L 3444 531 
L 3444 0 
L 616 0 
L 616 4666 
z
" transform="scale(0.015625)"/>
     <path id="Menlo-Regular-56" d="M 1925 531 
L 3022 4666 
L 3675 4666 
L 2309 0 
L 1544 0 
L 178 4666 
L 831 4666 
L 1925 531 
z
" transform="scale(0.015625)"/>
     <path id="Menlo-Regular-53" d="M 3163 4506 
L 3163 3866 
Q 2875 4050 2586 4144 
Q 2297 4238 2003 4238 
Q 1556 4238 1297 4030 
Q 1038 3822 1038 3469 
Q 1038 3159 1208 2996 
Q 1378 2834 1844 2725 
L 2175 2650 
Q 2831 2497 3131 2169 
Q 3431 1841 3431 1275 
Q 3431 609 3018 259 
Q 2606 -91 1819 -91 
Q 1491 -91 1159 -20 
Q 828 50 494 191 
L 494 863 
Q 853 634 1173 528 
Q 1494 422 1819 422 
Q 2297 422 2562 636 
Q 2828 850 2828 1234 
Q 2828 1584 2645 1768 
Q 2463 1953 2009 2053 
L 1672 2131 
Q 1022 2278 728 2575 
Q 434 2872 434 3372 
Q 434 3997 854 4373 
Q 1275 4750 1972 4750 
Q 2241 4750 2537 4689 
Q 2834 4628 3163 4506 
z
" transform="scale(0.015625)"/>
     <path id="Menlo-Regular-42" d="M 1153 2353 
L 1153 519 
L 1900 519 
Q 2450 519 2684 711 
Q 2919 903 2919 1344 
Q 2919 1925 2672 2139 
Q 2425 2353 1900 2353 
L 1153 2353 
z
M 1153 4147 
L 1153 2866 
L 1888 2866 
Q 2344 2866 2548 3041 
Q 2753 3216 2753 3481 
Q 2753 3834 2551 3990 
Q 2350 4147 1888 4147 
L 1153 4147 
z
M 519 4666 
L 1900 4666 
Q 2616 4666 3003 4356 
Q 3391 4047 3391 3481 
Q 3391 3178 3186 2931 
Q 2981 2684 2572 2622 
Q 3031 2553 3292 2229 
Q 3553 1906 3553 1281 
Q 3553 647 3137 323 
Q 2722 0 1900 0 
L 519 0 
L 519 4666 
z
" transform="scale(0.015625)"/>
     <path id="Menlo-Regular-54" d="M 147 4666 
L 3706 4666 
L 3706 4134 
L 2247 4134 
L 2247 0 
L 1613 0 
L 1613 4134 
L 147 4134 
L 147 4666 
z
" transform="scale(0.015625)"/>
     <path id="Menlo-Regular-43" d="M 3353 166 
Q 3113 38 2859 -26 
Q 2606 -91 2322 -91 
Q 1425 -91 929 543 
Q 434 1178 434 2328 
Q 434 3472 932 4111 
Q 1431 4750 2322 4750 
Q 2606 4750 2859 4686 
Q 3113 4622 3353 4494 
L 3353 3847 
Q 3122 4038 2856 4138 
Q 2591 4238 2322 4238 
Q 1706 4238 1400 3763 
Q 1094 3288 1094 2328 
Q 1094 1372 1400 897 
Q 1706 422 2322 422 
Q 2597 422 2861 522 
Q 3125 622 3353 813 
L 3353 166 
z
" transform="scale(0.015625)"/>
     <path id="Menlo-Regular-52" d="M 2375 2203 
Q 2619 2141 2791 1967 
Q 2963 1794 3219 1275 
L 3853 0 
L 3175 0 
L 2619 1178 
Q 2378 1681 2186 1826 
Q 1994 1972 1684 1972 
L 1081 1972 
L 1081 0 
L 447 0 
L 447 4666 
L 1747 4666 
Q 2516 4666 2925 4319 
Q 3334 3972 3334 3316 
Q 3334 2853 3082 2561 
Q 2831 2269 2375 2203 
z
M 1081 4147 
L 1081 2491 
L 1772 2491 
Q 2225 2491 2447 2694 
Q 2669 2897 2669 3316 
Q 2669 3719 2433 3933 
Q 2197 4147 1747 4147 
L 1081 4147 
z
" transform="scale(0.015625)"/>
     <path id="Menlo-Regular-49" d="M 628 4666 
L 3219 4666 
L 3219 4134 
L 2241 4134 
L 2241 531 
L 3219 531 
L 3219 0 
L 628 0 
L 628 531 
L 1606 531 
L 1606 4134 
L 628 4134 
L 628 4666 
z
" transform="scale(0.015625)"/>
     <path id="Menlo-Regular-26" d="M 1709 2834 
L 3009 1088 
Q 3131 1241 3190 1475 
Q 3250 1709 3250 2034 
Q 3250 2134 3241 2353 
L 3238 2375 
L 3750 2375 
L 3750 2253 
Q 3750 1750 3634 1370 
Q 3519 991 3284 716 
L 3816 0 
L 3150 0 
L 2906 341 
Q 2647 122 2356 15 
Q 2066 -91 1734 -91 
Q 1059 -91 618 329 
Q 178 750 178 1388 
Q 178 1816 393 2181 
Q 609 2547 1044 2859 
Q 888 3084 813 3300 
Q 738 3516 738 3738 
Q 738 4206 1048 4478 
Q 1359 4750 1900 4750 
Q 2103 4750 2308 4712 
Q 2513 4675 2731 4603 
L 2731 4031 
Q 2547 4153 2351 4211 
Q 2156 4269 1941 4269 
Q 1638 4269 1463 4126 
Q 1288 3984 1288 3744 
Q 1288 3559 1378 3357 
Q 1469 3156 1709 2834 
z
M 1300 2509 
Q 1013 2281 870 2026 
Q 728 1772 728 1484 
Q 728 1013 1040 702 
Q 1353 391 1838 391 
Q 1969 391 2112 428 
Q 2256 466 2394 538 
Q 2478 584 2533 620 
Q 2588 656 2638 697 
L 1300 2509 
z
" transform="scale(0.015625)"/>
     <path id="Menlo-Regular-46" d="M 728 4666 
L 3475 4666 
L 3475 4134 
L 1363 4134 
L 1363 2884 
L 3278 2884 
L 3278 2353 
L 1363 2353 
L 1363 0 
L 728 0 
L 728 4666 
z
" transform="scale(0.015625)"/>
     <path id="Menlo-Regular-55" d="M 459 1791 
L 459 4666 
L 1094 4666 
L 1094 1503 
Q 1094 1163 1112 1017 
Q 1131 872 1178 794 
Q 1278 609 1467 515 
Q 1656 422 1925 422 
Q 2197 422 2384 515 
Q 2572 609 2675 794 
Q 2722 872 2740 1015 
Q 2759 1159 2759 1497 
L 2759 4666 
L 3391 4666 
L 3391 1791 
Q 3391 1075 3302 773 
Q 3213 472 2994 275 
Q 2788 91 2522 0 
Q 2256 -91 1925 -91 
Q 1597 -91 1331 0 
Q 1066 91 856 275 
Q 641 469 550 776 
Q 459 1084 459 1791 
z
" transform="scale(0.015625)"/>
     <path id="Menlo-Regular-4e" d="M 59 4650 
L 922 4650 
L 2747 822 
L 2747 4650 
L 3419 4650 
L 3419 0 
L 2556 0 
L 731 3828 
L 731 0 
L 59 0 
L 59 4650 
z
" transform="scale(0.015625)"/>
     <path id="Menlo-Regular-44" d="M 1363 519 
Q 2159 519 2475 911 
Q 2791 1303 2791 2328 
Q 2791 3363 2477 3755 
Q 2163 4147 1363 4147 
L 1063 4147 
L 1063 519 
L 1363 519 
z
M 1375 4666 
Q 2444 4666 2950 4097 
Q 3456 3528 3456 2328 
Q 3456 1134 2950 567 
Q 2444 0 1375 0 
L 428 0 
L 428 4666 
L 1375 4666 
z
" transform="scale(0.015625)"/>
     <path id="Menlo-Regular-47" d="M 3450 384 
Q 3197 150 2880 29 
Q 2563 -91 2194 -91 
Q 1306 -91 812 545 
Q 319 1181 319 2328 
Q 319 3472 819 4111 
Q 1319 4750 2209 4750 
Q 2503 4750 2772 4667 
Q 3041 4584 3291 4416 
L 3291 3769 
Q 3038 4009 2772 4123 
Q 2506 4238 2209 4238 
Q 1594 4238 1286 3761 
Q 978 3284 978 2328 
Q 978 1356 1276 889 
Q 1575 422 2194 422 
Q 2403 422 2561 470 
Q 2719 519 2847 622 
L 2847 1875 
L 2169 1875 
L 2169 2394 
L 3450 2394 
L 3450 384 
z
" transform="scale(0.015625)"/>
    </defs>
    <use xlink:href="#Menlo-Regular-48"/>
    <use xlink:href="#Menlo-Regular-20" transform="translate(60.205078 0)"/>
    <use xlink:href="#Menlo-Regular-59" transform="translate(120.410156 0)"/>
    <use xlink:href="#Menlo-Regular-20" transform="translate(180.615234 0)"/>
    <use xlink:href="#Menlo-Regular-50" transform="translate(240.820312 0)"/>
    <use xlink:href="#Menlo-Regular-20" transform="translate(301.025391 0)"/>
    <use xlink:href="#Menlo-Regular-45" transform="translate(361.230469 0)"/>
    <use xlink:href="#Menlo-Regular-20" transform="translate(421.435547 0)"/>
    <use xlink:href="#Menlo-Regular-20" transform="translate(481.640625 0)"/>
    <use xlink:href="#Menlo-Regular-20" transform="translate(541.845703 0)"/>
    <use xlink:href="#Menlo-Regular-56" transform="translate(602.050781 0)"/>
    <use xlink:href="#Menlo-Regular-20" transform="translate(662.255859 0)"/>
    <use xlink:href="#Menlo-Regular-53" transform="translate(722.460938 0)"/>
    <use xlink:href="#Menlo-Regular-20" transform="translate(782.666016 0)"/>
    <use xlink:href="#Menlo-Regular-20" transform="translate(842.871094 0)"/>
    <use xlink:href="#Menlo-Regular-20" transform="translate(903.076172 0)"/>
    <use xlink:href="#Menlo-Regular-42" transform="translate(963.28125 0)"/>
    <use xlink:href="#Menlo-Regular-20" transform="translate(1023.486328 0)"/>
    <use xlink:href="#Menlo-Regular-54" transform="translate(1083.691406 0)"/>
    <use xlink:href="#Menlo-Regular-20" transform="translate(1143.896484 0)"/>
    <use xlink:href="#Menlo-Regular-43" transform="translate(1204.101562 0)"/>
    <use xlink:href="#Menlo-Regular-20" transform="translate(1264.306641 0)"/>
    <use xlink:href="#Menlo-Regular-20" transform="translate(1324.511719 0)"/>
    <use xlink:href="#Menlo-Regular-20" transform="translate(1384.716797 0)"/>
    <use xlink:href="#Menlo-Regular-b7" transform="translate(1444.921875 0)"/>
    <use xlink:href="#Menlo-Regular-20" transform="translate(1505.126953 0)"/>
    <use xlink:href="#Menlo-Regular-20" transform="translate(1565.332031 0)"/>
    <use xlink:href="#Menlo-Regular-20" transform="translate(1625.537109 0)"/>
    <use xlink:href="#Menlo-Regular-50" transform="translate(1685.742188 0)"/>
    <use xlink:href="#Menlo-Regular-20" transform="translate(1745.947266 0)"/>
    <use xlink:href="#Menlo-Regular-52" transform="translate(1806.152344 0)"/>
    <use xlink:href="#Menlo-Regular-20" transform="translate(1866.357422 0)"/>
    <use xlink:href="#Menlo-Regular-49" transform="translate(1926.5625 0)"/>
    <use xlink:href="#Menlo-Regular-20" transform="translate(1986.767578 0)"/>
    <use xlink:href="#Menlo-Regular-43" transform="translate(2046.972656 0)"/>
    <use xlink:href="#Menlo-Regular-20" transform="translate(2107.177734 0)"/>
    <use xlink:href="#Menlo-Regular-45" transform="translate(2167.382812 0)"/>
    <use xlink:href="#Menlo-Regular-20" transform="translate(2227.587891 0)"/>
    <use xlink:href="#Menlo-Regular-20" transform="translate(2287.792969 0)"/>
    <use xlink:href="#Menlo-Regular-20" transform="translate(2347.998047 0)"/>
    <use xlink:href="#Menlo-Regular-26" transform="translate(2408.203125 0)"/>
    <use xlink:href="#Menlo-Regular-20" transform="translate(2468.408203 0)"/>
    <use xlink:href="#Menlo-Regular-20" transform="translate(2528.613281 0)"/>
    <use xlink:href="#Menlo-Regular-20" transform="translate(2588.818359 0)"/>
    <use xlink:href="#Menlo-Regular-46" transform="translate(2649.023438 0)"/>
    <use xlink:href="#Menlo-Regular-20" transform="translate(2709.228516 0)"/>
    <use xlink:href="#Menlo-Regular-55" transform="translate(2769.433594 0)"/>
    <use xlink:href="#Menlo-Regular-20" transform="translate(2829.638672 0)"/>
    <use xlink:href="#Menlo-Regular-4e" transform="translate(2889.84375 0)"/>
    <use xlink:href="#Menlo-Regular-20" transform="translate(2950.048828 0)"/>
    <use xlink:href="#Menlo-Regular-44" transform="translate(3010.253906 0)"/>
    <use xlink:href="#Menlo-Regular-20" transform="translate(3070.458984 0)"/>
    <use xlink:href="#Menlo-Regular-49" transform="translate(3130.664062 0)"/>
    <use xlink:href="#Menlo-Regular-20" transform="translate(3190.869141 0)"/>
    <use xlink:href="#Menlo-Regular-4e" transform="translate(3251.074219 0)"/>
    <use xlink:href="#Menlo-Regular-20" transform="translate(3311.279297 0)"/>
    <use xlink:href="#Menlo-Regular-47" transform="translate(3371.484375 0)"/>
   </g>
  </g>
  <g id="text_32">
   <!-- HYPE ran ahead of BTC — and longs kept paying -->
   <g style="fill: #1a1d21" transform="translate(87.696 71.208) scale(0.23 -0.23)">
    <defs>
     <path id="HelveticaNeue-68" d="M 410 4570 
L 410 0 
L 954 0 
L 954 1869 
Q 954 2093 1014 2281 
Q 1075 2470 1196 2611 
Q 1318 2752 1500 2829 
Q 1683 2906 1933 2906 
Q 2246 2906 2425 2726 
Q 2605 2547 2605 2240 
L 2605 0 
L 3149 0 
L 3149 2176 
Q 3149 2445 3094 2665 
Q 3040 2886 2905 3046 
Q 2771 3206 2553 3296 
Q 2336 3386 2010 3386 
Q 1862 3386 1705 3354 
Q 1549 3322 1405 3254 
Q 1261 3187 1145 3081 
Q 1030 2976 966 2822 
L 954 2822 
L 954 4570 
L 410 4570 
z
" transform="scale(0.015625)"/>
     <path id="HelveticaNeue-2014" d="M 832 2035 
L 832 1523 
L 5568 1523 
L 5568 2035 
L 832 2035 
z
" transform="scale(0.015625)"/>
     <path id="HelveticaNeue-73" d="M 742 1043 
L 198 1043 
Q 211 736 326 521 
Q 442 307 634 176 
Q 826 45 1075 -12 
Q 1325 -70 1600 -70 
Q 1850 -70 2102 -22 
Q 2355 26 2556 147 
Q 2758 269 2883 467 
Q 3008 666 3008 966 
Q 3008 1203 2915 1363 
Q 2822 1523 2672 1628 
Q 2522 1734 2326 1798 
Q 2131 1862 1926 1907 
Q 1734 1952 1542 1993 
Q 1350 2035 1196 2096 
Q 1043 2157 944 2249 
Q 845 2342 845 2483 
Q 845 2611 909 2691 
Q 973 2771 1075 2819 
Q 1178 2867 1302 2886 
Q 1427 2906 1549 2906 
Q 1683 2906 1814 2877 
Q 1946 2848 2054 2784 
Q 2163 2720 2233 2614 
Q 2304 2509 2317 2349 
L 2861 2349 
Q 2842 2650 2733 2851 
Q 2624 3053 2441 3171 
Q 2259 3290 2022 3338 
Q 1786 3386 1504 3386 
Q 1286 3386 1065 3331 
Q 845 3277 669 3165 
Q 493 3053 381 2873 
Q 269 2694 269 2445 
Q 269 2125 429 1945 
Q 589 1766 829 1667 
Q 1069 1568 1350 1513 
Q 1632 1459 1872 1392 
Q 2112 1325 2272 1216 
Q 2432 1107 2432 896 
Q 2432 742 2355 643 
Q 2278 544 2160 493 
Q 2042 442 1901 422 
Q 1760 403 1632 403 
Q 1466 403 1309 435 
Q 1152 467 1027 540 
Q 902 614 825 739 
Q 749 864 742 1043 
z
" transform="scale(0.015625)"/>
    </defs>
    <use xlink:href="#HelveticaNeue-48"/>
    <use xlink:href="#HelveticaNeue-59" transform="translate(72.199982 0)"/>
    <use xlink:href="#HelveticaNeue-50" transform="translate(136.999969 0)"/>
    <use xlink:href="#HelveticaNeue-45" transform="translate(201.799957 0)"/>
    <use xlink:href="#HelveticaNeue-20" transform="translate(262.899948 0)"/>
    <use xlink:href="#HelveticaNeue-72" transform="translate(290.699936 0)"/>
    <use xlink:href="#HelveticaNeue-61" transform="translate(323.999924 0)"/>
    <use xlink:href="#HelveticaNeue-6e" transform="translate(377.699921 0)"/>
    <use xlink:href="#HelveticaNeue-20" transform="translate(433.299911 0)"/>
    <use xlink:href="#HelveticaNeue-61" transform="translate(461.099899 0)"/>
    <use xlink:href="#HelveticaNeue-68" transform="translate(514.799896 0)"/>
    <use xlink:href="#HelveticaNeue-65" transform="translate(570.399887 0)"/>
    <use xlink:href="#HelveticaNeue-61" transform="translate(624.099884 0)"/>
    <use xlink:href="#HelveticaNeue-64" transform="translate(677.799881 0)"/>
    <use xlink:href="#HelveticaNeue-20" transform="translate(737.099869 0)"/>
    <use xlink:href="#HelveticaNeue-6f" transform="translate(764.899857 0)"/>
    <use xlink:href="#HelveticaNeue-66" transform="translate(822.29985 0)"/>
    <use xlink:href="#HelveticaNeue-20" transform="translate(851.899841 0)"/>
    <use xlink:href="#HelveticaNeue-42" transform="translate(879.699829 0)"/>
    <use xlink:href="#HelveticaNeue-54" transform="translate(948.199814 0)"/>
    <use xlink:href="#HelveticaNeue-43" transform="translate(1005.599808 0)"/>
    <use xlink:href="#HelveticaNeue-20" transform="translate(1077.799789 0)"/>
    <use xlink:href="#HelveticaNeue-2014" transform="translate(1105.599777 0)"/>
    <use xlink:href="#HelveticaNeue-20" transform="translate(1205.599762 0)"/>
    <use xlink:href="#HelveticaNeue-61" transform="translate(1233.39975 0)"/>
    <use xlink:href="#HelveticaNeue-6e" transform="translate(1287.099747 0)"/>
    <use xlink:href="#HelveticaNeue-64" transform="translate(1342.699738 0)"/>
    <use xlink:href="#HelveticaNeue-20" transform="translate(1401.999725 0)"/>
    <use xlink:href="#HelveticaNeue-6c" transform="translate(1429.799713 0)"/>
    <use xlink:href="#HelveticaNeue-6f" transform="translate(1451.99971 0)"/>
    <use xlink:href="#HelveticaNeue-6e" transform="translate(1509.399704 0)"/>
    <use xlink:href="#HelveticaNeue-67" transform="translate(1564.999695 0)"/>
    <use xlink:href="#HelveticaNeue-73" transform="translate(1622.399689 0)"/>
    <use xlink:href="#HelveticaNeue-20" transform="translate(1672.399673 0)"/>
    <use xlink:href="#HelveticaNeue-6b" transform="translate(1700.199661 0)"/>
    <use xlink:href="#HelveticaNeue-65" transform="translate(1752.099655 0)"/>
    <use xlink:href="#HelveticaNeue-70" transform="translate(1805.799652 0)"/>
    <use xlink:href="#HelveticaNeue-74" transform="translate(1865.09964 0)"/>
    <use xlink:href="#HelveticaNeue-20" transform="translate(1896.599625 0)"/>
    <use xlink:href="#HelveticaNeue-70" transform="translate(1924.399612 0)"/>
    <use xlink:href="#HelveticaNeue-61" transform="translate(1983.6996 0)"/>
    <use xlink:href="#HelveticaNeue-79" transform="translate(2037.399597 0)"/>
    <use xlink:href="#HelveticaNeue-69" transform="translate(2087.399582 0)"/>
    <use xlink:href="#HelveticaNeue-6e" transform="translate(2109.599579 0)"/>
    <use xlink:href="#HelveticaNeue-67" transform="translate(2165.19957 0)"/>
   </g>
  </g>
  <g id="text_33">
   <!-- HYPE funding ran ~8% vs BTC ~3% through May, then spiked to 33% as price fell -->
   <g style="fill: #5b6470" transform="translate(87.696 99.072) scale(0.125 -0.125)">
    <defs>
     <path id="HelveticaNeue-7e" d="M 3514 2368 
Q 3437 2234 3347 2109 
Q 3258 1984 3149 1885 
Q 3040 1786 2905 1725 
Q 2771 1664 2598 1664 
Q 2400 1664 2217 1741 
Q 2035 1818 1865 1907 
Q 1696 1997 1533 2073 
Q 1370 2150 1210 2150 
Q 1005 2150 867 1993 
Q 730 1837 653 1664 
L 307 1971 
Q 365 2099 448 2227 
Q 531 2355 646 2454 
Q 762 2554 909 2614 
Q 1056 2675 1242 2675 
Q 1414 2675 1596 2598 
Q 1779 2522 1955 2432 
Q 2131 2342 2297 2265 
Q 2464 2189 2605 2189 
Q 2701 2189 2781 2233 
Q 2861 2278 2928 2348 
Q 2995 2419 3052 2505 
Q 3110 2592 3168 2675 
L 3514 2368 
L 3514 2368 
z
" transform="scale(0.015625)"/>
     <path id="HelveticaNeue-38" d="M 992 3360 
Q 992 3533 1056 3661 
Q 1120 3789 1225 3878 
Q 1331 3968 1478 4013 
Q 1626 4058 1786 4058 
Q 2118 4058 2332 3882 
Q 2547 3706 2547 3360 
Q 2547 3014 2336 2822 
Q 2125 2630 1798 2630 
Q 1632 2630 1485 2675 
Q 1338 2720 1229 2809 
Q 1120 2899 1056 3036 
Q 992 3174 992 3360 
z
M 416 3379 
Q 416 3072 589 2813 
Q 762 2554 1050 2438 
Q 666 2304 461 2006 
Q 256 1709 256 1306 
Q 256 960 374 701 
Q 493 442 701 269 
Q 909 96 1190 13 
Q 1472 -70 1798 -70 
Q 2112 -70 2387 19 
Q 2662 109 2864 285 
Q 3066 461 3184 717 
Q 3302 973 3302 1306 
Q 3302 1728 3104 2019 
Q 2906 2310 2496 2438 
Q 2784 2566 2953 2819 
Q 3123 3072 3123 3379 
Q 3123 3597 3046 3805 
Q 2970 4013 2806 4176 
Q 2643 4339 2380 4438 
Q 2118 4538 1747 4538 
Q 1485 4538 1245 4461 
Q 1005 4384 819 4237 
Q 634 4090 525 3875 
Q 416 3661 416 3379 
z
M 832 1280 
Q 832 1478 905 1638 
Q 979 1798 1110 1913 
Q 1242 2029 1418 2089 
Q 1594 2150 1792 2150 
Q 1984 2150 2153 2083 
Q 2323 2016 2451 1901 
Q 2579 1786 2652 1629 
Q 2726 1472 2726 1286 
Q 2726 1094 2659 934 
Q 2592 774 2467 656 
Q 2342 538 2172 470 
Q 2003 403 1798 403 
Q 1376 403 1104 636 
Q 832 870 832 1280 
z
" transform="scale(0.015625)"/>
     <path id="HelveticaNeue-25" d="M 1069 3251 
Q 1069 3398 1088 3561 
Q 1107 3725 1168 3862 
Q 1229 4000 1337 4093 
Q 1446 4186 1626 4186 
Q 1811 4186 1916 4093 
Q 2022 4000 2080 3862 
Q 2138 3725 2154 3561 
Q 2170 3398 2170 3258 
Q 2170 3110 2150 2944 
Q 2131 2778 2070 2640 
Q 2010 2502 1901 2412 
Q 1792 2323 1606 2323 
Q 1427 2323 1321 2416 
Q 1216 2509 1158 2646 
Q 1101 2784 1085 2947 
Q 1069 3110 1069 3251 
z
M 589 3238 
Q 589 2976 643 2745 
Q 698 2515 819 2342 
Q 941 2170 1139 2070 
Q 1338 1971 1626 1971 
Q 1907 1971 2099 2080 
Q 2291 2189 2416 2365 
Q 2541 2541 2595 2774 
Q 2650 3008 2650 3258 
Q 2650 3520 2602 3753 
Q 2554 3987 2435 4160 
Q 2317 4333 2121 4435 
Q 1926 4538 1626 4538 
Q 1331 4538 1132 4432 
Q 934 4326 812 4147 
Q 691 3968 640 3734 
Q 589 3501 589 3238 
z
M 4230 1203 
Q 4230 1350 4249 1513 
Q 4269 1677 4329 1814 
Q 4390 1952 4499 2045 
Q 4608 2138 4787 2138 
Q 4973 2138 5078 2045 
Q 5184 1952 5241 1814 
Q 5299 1677 5315 1513 
Q 5331 1350 5331 1210 
Q 5331 1062 5312 896 
Q 5293 730 5232 592 
Q 5171 454 5062 364 
Q 4954 275 4768 275 
Q 4589 275 4483 368 
Q 4378 461 4320 598 
Q 4262 736 4246 899 
Q 4230 1062 4230 1203 
z
M 3750 1190 
Q 3750 928 3804 697 
Q 3859 467 3980 297 
Q 4102 128 4300 29 
Q 4499 -70 4787 -70 
Q 5069 -70 5261 35 
Q 5453 141 5577 317 
Q 5702 493 5756 726 
Q 5811 960 5811 1210 
Q 5811 1472 5763 1705 
Q 5715 1939 5596 2112 
Q 5478 2285 5283 2387 
Q 5088 2490 4787 2490 
Q 4493 2490 4294 2384 
Q 4096 2278 3974 2099 
Q 3853 1920 3801 1686 
Q 3750 1453 3750 1190 
z
M 4646 4621 
L 1203 -134 
L 1754 -134 
L 5190 4621 
L 4646 4621 
z
" transform="scale(0.015625)"/>
     <path id="HelveticaNeue-76" d="M 1901 0 
L 3110 3309 
L 2541 3309 
L 1638 550 
L 1626 550 
L 698 3309 
L 90 3309 
L 1318 0 
L 1901 0 
z
" transform="scale(0.015625)"/>
    </defs>
    <use xlink:href="#HelveticaNeue-48"/>
    <use xlink:href="#HelveticaNeue-59" transform="translate(72.199982 0)"/>
    <use xlink:href="#HelveticaNeue-50" transform="translate(136.999969 0)"/>
    <use xlink:href="#HelveticaNeue-45" transform="translate(201.799957 0)"/>
    <use xlink:href="#HelveticaNeue-20" transform="translate(262.899948 0)"/>
    <use xlink:href="#HelveticaNeue-66" transform="translate(290.699936 0)"/>
    <use xlink:href="#HelveticaNeue-75" transform="translate(320.299927 0)"/>
    <use xlink:href="#HelveticaNeue-6e" transform="translate(375.899918 0)"/>
    <use xlink:href="#HelveticaNeue-64" transform="translate(431.499908 0)"/>
    <use xlink:href="#HelveticaNeue-69" transform="translate(490.799896 0)"/>
    <use xlink:href="#HelveticaNeue-6e" transform="translate(512.999893 0)"/>
    <use xlink:href="#HelveticaNeue-67" transform="translate(568.599884 0)"/>
    <use xlink:href="#HelveticaNeue-20" transform="translate(625.999878 0)"/>
    <use xlink:href="#HelveticaNeue-72" transform="translate(653.799866 0)"/>
    <use xlink:href="#HelveticaNeue-61" transform="translate(687.099854 0)"/>
    <use xlink:href="#HelveticaNeue-6e" transform="translate(740.79985 0)"/>
    <use xlink:href="#HelveticaNeue-20" transform="translate(796.399841 0)"/>
    <use xlink:href="#HelveticaNeue-7e" transform="translate(824.199829 0)"/>
    <use xlink:href="#HelveticaNeue-38" transform="translate(884.199814 0)"/>
    <use xlink:href="#HelveticaNeue-25" transform="translate(939.799805 0)"/>
    <use xlink:href="#HelveticaNeue-20" transform="translate(1039.799789 0)"/>
    <use xlink:href="#HelveticaNeue-76" transform="translate(1067.599777 0)"/>
    <use xlink:href="#HelveticaNeue-73" transform="translate(1117.599762 0)"/>
    <use xlink:href="#HelveticaNeue-20" transform="translate(1167.599747 0)"/>
    <use xlink:href="#HelveticaNeue-42" transform="translate(1195.399734 0)"/>
    <use xlink:href="#HelveticaNeue-54" transform="translate(1263.899719 0)"/>
    <use xlink:href="#HelveticaNeue-43" transform="translate(1321.299713 0)"/>
    <use xlink:href="#HelveticaNeue-20" transform="translate(1393.499695 0)"/>
    <use xlink:href="#HelveticaNeue-7e" transform="translate(1421.299683 0)"/>
    <use xlink:href="#HelveticaNeue-33" transform="translate(1481.299667 0)"/>
    <use xlink:href="#HelveticaNeue-25" transform="translate(1536.899658 0)"/>
    <use xlink:href="#HelveticaNeue-20" transform="translate(1636.899643 0)"/>
    <use xlink:href="#HelveticaNeue-74" transform="translate(1664.699631 0)"/>
    <use xlink:href="#HelveticaNeue-68" transform="translate(1696.199615 0)"/>
    <use xlink:href="#HelveticaNeue-72" transform="translate(1751.799606 0)"/>
    <use xlink:href="#HelveticaNeue-6f" transform="translate(1783.349594 0)"/>
    <use xlink:href="#HelveticaNeue-75" transform="translate(1840.749588 0)"/>
    <use xlink:href="#HelveticaNeue-67" transform="translate(1896.349579 0)"/>
    <use xlink:href="#HelveticaNeue-68" transform="translate(1953.749573 0)"/>
    <use xlink:href="#HelveticaNeue-20" transform="translate(2009.349564 0)"/>
    <use xlink:href="#HelveticaNeue-4d" transform="translate(2037.149551 0)"/>
    <use xlink:href="#HelveticaNeue-61" transform="translate(2124.249542 0)"/>
    <use xlink:href="#HelveticaNeue-79" transform="translate(2177.949539 0)"/>
    <use xlink:href="#HelveticaNeue-2c" transform="translate(2220.574524 0)"/>
    <use xlink:href="#HelveticaNeue-20" transform="translate(2248.374512 0)"/>
    <use xlink:href="#HelveticaNeue-74" transform="translate(2276.1745 0)"/>
    <use xlink:href="#HelveticaNeue-68" transform="translate(2307.674484 0)"/>
    <use xlink:href="#HelveticaNeue-65" transform="translate(2363.274475 0)"/>
    <use xlink:href="#HelveticaNeue-6e" transform="translate(2416.974472 0)"/>
    <use xlink:href="#HelveticaNeue-20" transform="translate(2472.574463 0)"/>
    <use xlink:href="#HelveticaNeue-73" transform="translate(2500.374451 0)"/>
    <use xlink:href="#HelveticaNeue-70" transform="translate(2550.374435 0)"/>
    <use xlink:href="#HelveticaNeue-69" transform="translate(2609.674423 0)"/>
    <use xlink:href="#HelveticaNeue-6b" transform="translate(2631.87442 0)"/>
    <use xlink:href="#HelveticaNeue-65" transform="translate(2683.774414 0)"/>
    <use xlink:href="#HelveticaNeue-64" transform="translate(2737.474411 0)"/>
    <use xlink:href="#HelveticaNeue-20" transform="translate(2796.774399 0)"/>
    <use xlink:href="#HelveticaNeue-74" transform="translate(2824.574387 0)"/>
    <use xlink:href="#HelveticaNeue-6f" transform="translate(2856.074371 0)"/>
    <use xlink:href="#HelveticaNeue-20" transform="translate(2913.474365 0)"/>
    <use xlink:href="#HelveticaNeue-33" transform="translate(2941.274353 0)"/>
    <use xlink:href="#HelveticaNeue-33" transform="translate(2996.874344 0)"/>
    <use xlink:href="#HelveticaNeue-25" transform="translate(3052.474335 0)"/>
    <use xlink:href="#HelveticaNeue-20" transform="translate(3152.474319 0)"/>
    <use xlink:href="#HelveticaNeue-61" transform="translate(3180.274307 0)"/>
    <use xlink:href="#HelveticaNeue-73" transform="translate(3233.974304 0)"/>
    <use xlink:href="#HelveticaNeue-20" transform="translate(3283.974289 0)"/>
    <use xlink:href="#HelveticaNeue-70" transform="translate(3311.774277 0)"/>
    <use xlink:href="#HelveticaNeue-72" transform="translate(3371.074265 0)"/>
    <use xlink:href="#HelveticaNeue-69" transform="translate(3404.374252 0)"/>
    <use xlink:href="#HelveticaNeue-63" transform="translate(3426.574249 0)"/>
    <use xlink:href="#HelveticaNeue-65" transform="translate(3480.274246 0)"/>
    <use xlink:href="#HelveticaNeue-20" transform="translate(3533.974243 0)"/>
    <use xlink:href="#HelveticaNeue-66" transform="translate(3561.774231 0)"/>
    <use xlink:href="#HelveticaNeue-65" transform="translate(3591.374222 0)"/>
    <use xlink:href="#HelveticaNeue-6c" transform="translate(3645.074219 0)"/>
    <use xlink:href="#HelveticaNeue-6c" transform="translate(3667.274216 0)"/>
   </g>
  </g>
  <g id="text_34">
   <!-- HYPE  ETF  RESEARCH -->
   <g style="fill: #98a1ad" transform="translate(87.696 597.528) scale(0.09 -0.09)">
    <defs>
     <path id="Menlo-Regular-41" d="M 1925 4109 
L 1259 1722 
L 2591 1722 
L 1925 4109 
z
M 1544 4666 
L 2309 4666 
L 3738 0 
L 3084 0 
L 2741 1216 
L 1106 1216 
L 769 0 
L 116 0 
L 1544 4666 
z
" transform="scale(0.015625)"/>
    </defs>
    <use xlink:href="#Menlo-Regular-48"/>
    <use xlink:href="#Menlo-Regular-59" transform="translate(60.205078 0)"/>
    <use xlink:href="#Menlo-Regular-50" transform="translate(120.410156 0)"/>
    <use xlink:href="#Menlo-Regular-45" transform="translate(180.615234 0)"/>
    <use xlink:href="#Menlo-Regular-20" transform="translate(240.820312 0)"/>
    <use xlink:href="#Menlo-Regular-20" transform="translate(301.025391 0)"/>
    <use xlink:href="#Menlo-Regular-45" transform="translate(361.230469 0)"/>
    <use xlink:href="#Menlo-Regular-54" transform="translate(421.435547 0)"/>
    <use xlink:href="#Menlo-Regular-46" transform="translate(481.640625 0)"/>
    <use xlink:href="#Menlo-Regular-20" transform="translate(541.845703 0)"/>
    <use xlink:href="#Menlo-Regular-20" transform="translate(602.050781 0)"/>
    <use xlink:href="#Menlo-Regular-52" transform="translate(662.255859 0)"/>
    <use xlink:href="#Menlo-Regular-45" transform="translate(722.460938 0)"/>
    <use xlink:href="#Menlo-Regular-53" transform="translate(782.666016 0)"/>
    <use xlink:href="#Menlo-Regular-45" transform="translate(842.871094 0)"/>
    <use xlink:href="#Menlo-Regular-41" transform="translate(903.076172 0)"/>
    <use xlink:href="#Menlo-Regular-52" transform="translate(963.28125 0)"/>
    <use xlink:href="#Menlo-Regular-43" transform="translate(1023.486328 0)"/>
    <use xlink:href="#Menlo-Regular-48" transform="translate(1083.691406 0)"/>
   </g>
  </g>
  <g id="text_35">
   <!-- Sources: CoinGecko (price) · Hyperliquid API (funding) -->
   <g style="fill: #98a1ad" transform="translate(563.556375 597.528) scale(0.09 -0.09)">
    <defs>
     <path id="HelveticaNeue-53" d="M 3142 3232 
L 3718 3232 
Q 3706 3610 3574 3882 
Q 3443 4154 3216 4333 
Q 2989 4512 2688 4595 
Q 2387 4678 2035 4678 
Q 1722 4678 1424 4598 
Q 1126 4518 892 4355 
Q 659 4192 518 3939 
Q 378 3686 378 3341 
Q 378 3027 502 2819 
Q 627 2611 835 2480 
Q 1043 2349 1305 2269 
Q 1568 2189 1840 2128 
Q 2112 2067 2374 2009 
Q 2637 1952 2845 1859 
Q 3053 1766 3177 1619 
Q 3302 1472 3302 1235 
Q 3302 986 3200 826 
Q 3098 666 2931 573 
Q 2765 480 2557 441 
Q 2349 403 2144 403 
Q 1888 403 1645 467 
Q 1402 531 1219 665 
Q 1037 800 925 1008 
Q 813 1216 813 1504 
L 237 1504 
Q 237 1088 387 784 
Q 538 480 797 285 
Q 1056 90 1398 -6 
Q 1741 -102 2125 -102 
Q 2438 -102 2755 -28 
Q 3072 45 3328 208 
Q 3584 371 3747 630 
Q 3910 890 3910 1254 
Q 3910 1594 3785 1818 
Q 3661 2042 3453 2189 
Q 3245 2336 2982 2422 
Q 2720 2509 2448 2573 
Q 2176 2637 1913 2691 
Q 1651 2746 1443 2829 
Q 1235 2912 1110 3043 
Q 986 3174 986 3386 
Q 986 3610 1072 3760 
Q 1158 3910 1302 4000 
Q 1446 4090 1632 4128 
Q 1818 4166 2010 4166 
Q 2483 4166 2787 3945 
Q 3091 3725 3142 3232 
z
" transform="scale(0.015625)"/>
     <path id="HelveticaNeue-3a" d="M 1242 2598 
L 1242 3309 
L 531 3309 
L 531 2598 
L 1242 2598 
z
M 531 710 
L 531 0 
L 1242 0 
L 1242 710 
L 531 710 
z
" transform="scale(0.015625)"/>
     <path id="HelveticaNeue-47" d="M 3917 570 
L 4077 0 
L 4461 0 
L 4461 2406 
L 2458 2406 
L 2458 1894 
L 3917 1894 
Q 3930 1581 3834 1309 
Q 3738 1037 3549 835 
Q 3360 634 3085 518 
Q 2810 403 2451 403 
Q 2067 403 1776 553 
Q 1485 704 1286 957 
Q 1088 1210 985 1539 
Q 883 1869 883 2227 
Q 883 2592 972 2941 
Q 1062 3290 1251 3562 
Q 1440 3834 1737 4000 
Q 2035 4166 2451 4166 
Q 2707 4166 2934 4105 
Q 3162 4045 3341 3923 
Q 3520 3802 3641 3613 
Q 3763 3424 3808 3162 
L 4416 3162 
Q 4352 3565 4176 3849 
Q 4000 4134 3741 4320 
Q 3482 4506 3152 4592 
Q 2822 4678 2451 4678 
Q 1907 4678 1500 4476 
Q 1094 4275 822 3936 
Q 550 3597 412 3145 
Q 275 2694 275 2195 
Q 275 1747 422 1331 
Q 570 915 851 595 
Q 1133 275 1536 86 
Q 1939 -102 2451 -102 
Q 2854 -102 3251 54 
Q 3648 211 3917 570 
z
" transform="scale(0.015625)"/>
     <path id="HelveticaNeue-b7" d="M 480 1990 
Q 480 1824 605 1702 
Q 730 1581 896 1581 
Q 1056 1581 1177 1709 
Q 1299 1837 1299 1990 
Q 1299 2157 1177 2278 
Q 1056 2400 890 2400 
Q 723 2400 601 2278 
Q 480 2157 480 1990 
z
" transform="scale(0.015625)"/>
     <path id="HelveticaNeue-71" d="M 806 1626 
Q 806 1869 857 2099 
Q 909 2330 1024 2509 
Q 1139 2688 1331 2797 
Q 1523 2906 1798 2906 
Q 2080 2906 2278 2800 
Q 2477 2694 2601 2521 
Q 2726 2349 2784 2121 
Q 2842 1894 2842 1651 
Q 2842 1421 2787 1197 
Q 2733 973 2611 797 
Q 2490 621 2298 512 
Q 2106 403 1830 403 
Q 1568 403 1373 505 
Q 1178 608 1053 781 
Q 928 954 867 1174 
Q 806 1395 806 1626 
z
M 3366 -1261 
L 3366 3309 
L 2822 3309 
L 2822 2867 
L 2810 2867 
Q 2720 3014 2589 3113 
Q 2458 3213 2310 3273 
Q 2163 3334 2016 3360 
Q 1869 3386 1741 3386 
Q 1363 3386 1078 3248 
Q 794 3110 605 2876 
Q 416 2643 323 2329 
Q 230 2016 230 1664 
Q 230 1312 326 998 
Q 422 685 611 448 
Q 800 211 1085 70 
Q 1370 -70 1754 -70 
Q 2099 -70 2387 51 
Q 2675 173 2810 448 
L 2822 448 
L 2822 -1261 
L 3366 -1261 
z
" transform="scale(0.015625)"/>
     <path id="HelveticaNeue-41" d="M 1286 1888 
L 2061 4019 
L 2074 4019 
L 2835 1888 
L 1286 1888 
z
M 1741 4570 
L -38 0 
L 582 0 
L 1094 1376 
L 3027 1376 
L 3526 0 
L 4198 0 
L 2413 4570 
L 1741 4570 
z
" transform="scale(0.015625)"/>
     <path id="HelveticaNeue-49" d="M 525 4570 
L 525 0 
L 1133 0 
L 1133 4570 
L 525 4570 
z
" transform="scale(0.015625)"/>
    </defs>
    <use xlink:href="#HelveticaNeue-53"/>
    <use xlink:href="#HelveticaNeue-6f" transform="translate(64.799988 0)"/>
    <use xlink:href="#HelveticaNeue-75" transform="translate(122.199982 0)"/>
    <use xlink:href="#HelveticaNeue-72" transform="translate(177.799973 0)"/>
    <use xlink:href="#HelveticaNeue-63" transform="translate(209.34996 0)"/>
    <use xlink:href="#HelveticaNeue-65" transform="translate(263.049957 0)"/>
    <use xlink:href="#HelveticaNeue-73" transform="translate(316.749954 0)"/>
    <use xlink:href="#HelveticaNeue-3a" transform="translate(366.749939 0)"/>
    <use xlink:href="#HelveticaNeue-20" transform="translate(394.549927 0)"/>
    <use xlink:href="#HelveticaNeue-43" transform="translate(422.349915 0)"/>
    <use xlink:href="#HelveticaNeue-6f" transform="translate(494.549896 0)"/>
    <use xlink:href="#HelveticaNeue-69" transform="translate(551.94989 0)"/>
    <use xlink:href="#HelveticaNeue-6e" transform="translate(574.149887 0)"/>
    <use xlink:href="#HelveticaNeue-47" transform="translate(629.749878 0)"/>
    <use xlink:href="#HelveticaNeue-65" transform="translate(705.649872 0)"/>
    <use xlink:href="#HelveticaNeue-63" transform="translate(759.349869 0)"/>
    <use xlink:href="#HelveticaNeue-6b" transform="translate(813.049866 0)"/>
    <use xlink:href="#HelveticaNeue-6f" transform="translate(864.94986 0)"/>
    <use xlink:href="#HelveticaNeue-20" transform="translate(922.349854 0)"/>
    <use xlink:href="#HelveticaNeue-28" transform="translate(950.149841 0)"/>
    <use xlink:href="#HelveticaNeue-70" transform="translate(976.049835 0)"/>
    <use xlink:href="#HelveticaNeue-72" transform="translate(1035.349823 0)"/>
    <use xlink:href="#HelveticaNeue-69" transform="translate(1068.649811 0)"/>
    <use xlink:href="#HelveticaNeue-63" transform="translate(1090.849808 0)"/>
    <use xlink:href="#HelveticaNeue-65" transform="translate(1144.549805 0)"/>
    <use xlink:href="#HelveticaNeue-29" transform="translate(1198.249802 0)"/>
    <use xlink:href="#HelveticaNeue-20" transform="translate(1224.149796 0)"/>
    <use xlink:href="#HelveticaNeue-b7" transform="translate(1251.949783 0)"/>
    <use xlink:href="#HelveticaNeue-20" transform="translate(1279.749771 0)"/>
    <use xlink:href="#HelveticaNeue-48" transform="translate(1307.549759 0)"/>
    <use xlink:href="#HelveticaNeue-79" transform="translate(1379.749741 0)"/>
    <use xlink:href="#HelveticaNeue-70" transform="translate(1429.749725 0)"/>
    <use xlink:href="#HelveticaNeue-65" transform="translate(1489.049713 0)"/>
    <use xlink:href="#HelveticaNeue-72" transform="translate(1542.74971 0)"/>
    <use xlink:href="#HelveticaNeue-6c" transform="translate(1576.049698 0)"/>
    <use xlink:href="#HelveticaNeue-69" transform="translate(1598.249695 0)"/>
    <use xlink:href="#HelveticaNeue-71" transform="translate(1620.449692 0)"/>
    <use xlink:href="#HelveticaNeue-75" transform="translate(1679.74968 0)"/>
    <use xlink:href="#HelveticaNeue-69" transform="translate(1735.34967 0)"/>
    <use xlink:href="#HelveticaNeue-64" transform="translate(1757.549667 0)"/>
    <use xlink:href="#HelveticaNeue-20" transform="translate(1816.849655 0)"/>
    <use xlink:href="#HelveticaNeue-41" transform="translate(1844.649643 0)"/>
    <use xlink:href="#HelveticaNeue-50" transform="translate(1909.449631 0)"/>
    <use xlink:href="#HelveticaNeue-49" transform="translate(1974.249619 0)"/>
    <use xlink:href="#HelveticaNeue-20" transform="translate(2000.149612 0)"/>
    <use xlink:href="#HelveticaNeue-28" transform="translate(2027.9496 0)"/>
    <use xlink:href="#HelveticaNeue-66" transform="translate(2053.849594 0)"/>
    <use xlink:href="#HelveticaNeue-75" transform="translate(2083.449585 0)"/>
    <use xlink:href="#HelveticaNeue-6e" transform="translate(2139.049576 0)"/>
    <use xlink:href="#HelveticaNeue-64" transform="translate(2194.649567 0)"/>
    <use xlink:href="#HelveticaNeue-69" transform="translate(2253.949554 0)"/>
    <use xlink:href="#HelveticaNeue-6e" transform="translate(2276.149551 0)"/>
    <use xlink:href="#HelveticaNeue-67" transform="translate(2331.749542 0)"/>
    <use xlink:href="#HelveticaNeue-29" transform="translate(2389.149536 0)"/>
   </g>
  </g>
 </g>
 <defs>
  <clipPath id="p480691b5e9">
   <rect x="87.696" y="123.84" width="693.216" height="207.482106"/>
  </clipPath>
  <clipPath id="pc6f069e721">
   <rect x="87.696" y="359.677994" width="693.216" height="197.602006"/>
  </clipPath>
 </defs>
</svg>
